<svg width="18" height="18" viewBox="0 0 18 18" fill="none" xmlns="http://www.w3.org/2000/svg">
<path d="M16.5654 5.09378V12.9062C16.5654 13.0894 16.4661 13.2581 16.306 13.3471L9.24501 17.2698C9.09269 17.3545 8.90742 17.3545 8.75511 17.2698L1.69412 13.3471C1.53402 13.2581 1.43471 13.0894 1.43471 12.9062L1.43469 5.09378C1.43469 4.91062 1.534 4.74185 1.69412 4.6529L8.75511 0.730123C8.90742 0.645501 9.09269 0.645501 9.24501 0.730123L16.306 4.6529C16.466 4.74185 16.5654 4.91062 16.5654 5.09378Z" stroke="black" stroke-width="1.2" stroke-linecap="round" stroke-linejoin="round"/>
<path d="M1.87891 5.0438L8.7551 8.8639C8.90742 8.94855 9.09268 8.94855 9.245 8.8639L16.1451 5.03052" stroke="black" stroke-width="1.2" stroke-linecap="round" stroke-linejoin="round"/>
<path d="M9 16.5653V9" stroke="black" stroke-width="1.2" stroke-linecap="round" stroke-linejoin="round"/>
</svg>
