<svg width="18" height="18" viewBox="0 0 18 18" fill="none" xmlns="http://www.w3.org/2000/svg">
<path d="M9.00008 0.666656C4.40484 0.666656 0.666748 4.40475 0.666748 8.99999C0.666748 13.5952 4.40484 17.3333 9.00008 17.3333C13.5953 17.3333 17.3334 13.5952 17.3334 8.99999C17.3334 4.40475 13.5953 0.666656 9.00008 0.666656ZM9.00008 1.46031C13.1575 1.46031 16.5398 4.84258 16.5398 8.99999C16.5398 13.1574 13.1575 16.5397 9.00008 16.5397C4.84267 16.5397 1.4604 13.1574 1.4604 8.99999C1.4604 4.84258 4.84267 1.46031 9.00008 1.46031ZM7.54506 4.63491C7.32548 4.63491 7.14823 4.81216 7.14823 5.03174V5.95766H6.7514C6.53183 5.95766 6.35458 6.13491 6.35458 6.35449C6.35458 6.57406 6.53183 6.75131 6.7514 6.75131H7.14823V11.2487H6.7514C6.53183 11.2487 6.35458 11.4259 6.35458 11.6455C6.35458 11.8651 6.53183 12.0423 6.7514 12.0423H7.14823V12.9682C7.14823 13.1878 7.32548 13.3651 7.54506 13.3651C7.76463 13.3651 7.94188 13.1878 7.94188 12.9682V12.0423H9.00008V12.9682C9.00008 13.1878 9.17733 13.3651 9.39691 13.3651C9.61648 13.3651 9.79373 13.1878 9.79373 12.9682V12.0423H10.4551C11.4035 12.0423 12.1747 11.2712 12.1747 10.3227C12.1747 9.57803 11.6986 8.94567 11.0359 8.70625C11.2515 8.41921 11.381 8.06348 11.381 7.67724C11.381 6.7738 10.68 6.03184 9.79373 5.96438V5.03174C9.79373 4.81216 9.61648 4.63491 9.39691 4.63491C9.17733 4.63491 9.00008 4.81216 9.00008 5.03174V5.95766H7.94188V5.03174C7.94188 4.81216 7.76463 4.63491 7.54506 4.63491ZM7.94188 6.75131H9.66146C10.172 6.75131 10.5874 7.16666 10.5874 7.67724C10.5874 8.18782 10.172 8.60317 9.66146 8.60317H7.94188V6.75131ZM7.94188 9.39682H9.66146H10.4551C10.9657 9.39682 11.381 9.81216 11.381 10.3227C11.381 10.8333 10.9657 11.2487 10.4551 11.2487H7.94188V9.39682Z" fill="black"/>
</svg>
