<svg width="67" height="40" viewBox="0 0 67 40" fill="none" xmlns="http://www.w3.org/2000/svg">
<path d="M0.489136 1.14001H10.8091V4.30001H4.84913V35.7H10.8091V38.86H0.489136V1.14001Z" fill="black"/>
<path d="M53.5714 24.7297C50.8083 35.2045 39.579 41.579 28.493 38.9669C17.4098 36.3561 10.6634 25.7459 13.4292 15.2724C16.1909 4.79628 27.4189 -1.57821 38.5035 1.03258C49.5894 3.64338 56.3358 14.2549 53.5714 24.7297Z" fill="#F7931A"/>
<path d="M42.6246 17.2152C43.0371 14.6133 40.9397 13.2149 38.0734 12.2809L39.0029 8.75642L36.7327 8.22236L35.8273 11.6545C35.2299 11.514 34.6179 11.3811 34.0084 11.2495L34.9206 7.79461L32.6517 7.26056L31.7208 10.7838C31.2266 10.6775 30.7417 10.5725 30.2703 10.4624L30.2729 10.451L27.1415 9.71189L26.5374 12.0038C26.5374 12.0038 28.2224 12.3682 28.1862 12.391C29.1064 12.6074 29.2724 13.1833 29.2443 13.6388L28.1849 17.6544C28.2478 17.6696 28.3309 17.6911 28.4206 17.7265C28.3443 17.7088 28.2639 17.6898 28.1809 17.6708L26.6955 23.2961C26.583 23.5606 26.2977 23.9567 25.6548 23.8061C25.6776 23.8378 24.0047 23.4163 24.0047 23.4163L22.877 25.8727L25.8316 26.5688C26.3807 26.6991 26.9205 26.8358 27.4509 26.9636L26.5107 30.5286L28.7782 31.0627L29.7091 27.5357C30.3292 27.6951 30.9306 27.8406 31.5186 27.9799L30.5917 31.4904L32.8619 32.0245L33.8008 28.4658C37.673 29.1581 40.5847 28.8797 41.8103 25.5703C42.7974 22.9063 41.7607 21.3687 39.7235 20.3664C41.2075 20.0437 42.3246 19.1211 42.6233 17.2165L42.6246 17.2152ZM37.4359 24.0896C36.7341 26.7536 31.986 25.3134 30.4471 24.9527L31.694 20.2297C33.2329 20.5929 38.1685 21.3118 37.4359 24.0896ZM38.1377 17.1773C37.4975 19.6008 33.5464 18.3694 32.2646 18.0682L33.395 13.7844C34.6768 14.0868 38.8047 14.65 38.1377 17.1773Z" fill="white"/>
<path d="M66.511 1.14001H56.191V4.30001H62.151V35.7H56.191V38.86H66.511V1.14001Z" fill="black"/>
</svg>
