<svg width="16" height="16" viewBox="0 0 16 16" fill="none" xmlns="http://www.w3.org/2000/svg">
<path fill-rule="evenodd" clip-rule="evenodd" d="M8 2C4.68548 2 2 4.68548 2 8C2 11.3145 4.68548 14 8 14C11.3145 14 14 11.3145 14 8C14 4.68548 11.3145 2 8 2ZM8 12.8387C5.32661 12.8387 3.16129 10.6734 3.16129 8C3.16129 5.32661 5.32661 3.16129 8 3.16129C10.6734 3.16129 12.8387 5.32661 12.8387 8C12.8387 10.6734 10.6734 12.8387 8 12.8387ZM10.4629 6.49516L8.95806 8L10.4629 9.50484C10.5766 9.61855 10.5766 9.80242 10.4629 9.91613L9.91613 10.4629C9.80242 10.5766 9.61855 10.5766 9.50484 10.4629L8 8.95806L6.49516 10.4629C6.38145 10.5766 6.19758 10.5766 6.08387 10.4629L5.5371 9.91613C5.42339 9.80242 5.42339 9.61855 5.5371 9.50484L7.04194 8L5.5371 6.49516C5.42339 6.38145 5.42339 6.19758 5.5371 6.08387L6.08387 5.5371C6.19758 5.42339 6.38145 5.42339 6.49516 5.5371L8 7.04194L9.50484 5.5371C9.61855 5.42339 9.80242 5.42339 9.91613 5.5371L10.4629 6.08387C10.5766 6.19758 10.5766 6.38145 10.4629 6.49516Z" fill="#1A1A1A"/>
</svg>
