<svg width="16" height="16" viewBox="0 0 16 16" fill="none" xmlns="http://www.w3.org/2000/svg">
<path d="M12.8535 12.1463C12.9 12.1927 12.9368 12.2479 12.962 12.3086C12.9871 12.3693 13.0001 12.4343 13.0001 12.5C13.0001 12.5657 12.9871 12.6308 12.962 12.6915C12.9368 12.7521 12.9 12.8073 12.8535 12.8538C12.8071 12.9002 12.7519 12.9371 12.6912 12.9622C12.6305 12.9873 12.5655 13.0003 12.4998 13.0003C12.4341 13.0003 12.369 12.9873 12.3083 12.9622C12.2476 12.9371 12.1925 12.9002 12.146 12.8538L7.99979 8.70688L3.85354 12.8538C3.75972 12.9476 3.63247 13.0003 3.49979 13.0003C3.36711 13.0003 3.23986 12.9476 3.14604 12.8538C3.05222 12.7599 2.99951 12.6327 2.99951 12.5C2.99951 12.3673 3.05222 12.2401 3.14604 12.1463L7.29291 8L3.14604 3.85375C3.05222 3.75993 2.99951 3.63269 2.99951 3.5C2.99951 3.36732 3.05222 3.24007 3.14604 3.14625C3.23986 3.05243 3.36711 2.99973 3.49979 2.99973C3.63247 2.99973 3.75972 3.05243 3.85354 3.14625L7.99979 7.29313L12.146 3.14625C12.2399 3.05243 12.3671 2.99973 12.4998 2.99973C12.6325 2.99973 12.7597 3.05243 12.8535 3.14625C12.9474 3.24007 13.0001 3.36732 13.0001 3.5C13.0001 3.63269 12.9474 3.75993 12.8535 3.85375L8.70666 8L12.8535 12.1463Z" fill="#545454"/>
</svg>
