<svg width="32" height="32" viewBox="0 0 32 32" fill="none" xmlns="http://www.w3.org/2000/svg">
<path fill-rule="evenodd" clip-rule="evenodd" d="M2.83325 8.88886C2.83325 6.53039 4.75256 4.61108 7.11103 4.61108H23.111C24.4895 4.61108 25.611 5.73265 25.611 7.11108V8.16664H26.6666C28.045 8.16664 29.1666 9.2882 29.1666 10.6666V24.8889C29.1666 26.2673 28.045 27.3889 26.6666 27.3889H5.33325C3.95481 27.3889 2.83325 26.2673 2.83325 24.8889V8.88886ZM7.11103 6.05553C5.5485 6.05553 4.2777 7.32633 4.2777 8.88886V24.8889C4.2777 25.4714 4.75124 25.9444 5.33325 25.9444H26.6666C27.2486 25.9444 27.7221 25.4714 27.7221 24.8889V10.6666C27.7221 10.0841 27.2486 9.61108 26.6666 9.61108H7.2777V8.16664H24.1666V7.11108C24.1666 6.52853 23.693 6.05553 23.111 6.05553H7.11103ZM22.3888 17.7778C22.3888 16.8897 23.1115 16.1666 23.9999 16.1666C24.8883 16.1666 25.611 16.8897 25.611 17.7778C25.611 18.6658 24.8883 19.3889 23.9999 19.3889C23.1115 19.3889 22.3888 18.6658 22.3888 17.7778Z" fill="white"/>
<path fill-rule="evenodd" clip-rule="evenodd" d="M14.8571 12.9524V12H16.0952V12.9539L16.43 12.9524C16.9179 12.9502 17.3958 13.0902 17.8054 13.3552C18.215 13.6202 18.5385 13.9988 18.7365 14.4446C18.9345 14.8905 18.9983 15.3844 18.9202 15.866C18.8421 16.3475 18.6254 16.7959 18.2966 17.1563L18.0917 17.381L18.2966 17.6056C18.6254 17.966 18.8421 18.4144 18.9202 18.8959C18.9983 19.3775 18.9345 19.8714 18.7365 20.3173C18.5385 20.7631 18.215 21.1417 17.8054 21.4067C17.3958 21.6717 16.9179 21.8117 16.43 21.8095L16.0952 21.808V22.7619H14.8571V21.8095H12V20.5714H12.9524V14.1905H12V12.9524H14.8571ZM16.4286 14.1905H14.1905V16.7619H16.4286C16.7696 16.7619 17.0966 16.6264 17.3377 16.3853C17.5788 16.1442 17.7143 15.8172 17.7143 15.4762C17.7143 15.1352 17.5788 14.8082 17.3377 14.5671C17.0966 14.3259 16.7696 14.1905 16.4286 14.1905ZM16.4286 18H14.1905V20.5714H16.4286C16.7696 20.5714 17.0966 20.436 17.3377 20.1948C17.5788 19.9537 17.7143 19.6267 17.7143 19.2857C17.7143 18.9447 17.5788 18.6177 17.3377 18.3766C17.0966 18.1355 16.7696 18 16.4286 18Z" fill="#F7931B"/>
</svg>
