<svg width="262" height="64" viewBox="0 0 262 64" fill="none" xmlns="http://www.w3.org/2000/svg">
<g clip-path="url(#clip0_908_726)">
<path d="M239.422 53.6868C239.422 53.4073 239.431 53.15 239.422 52.8907C239.405 52.4977 239.375 52.1067 239.351 51.7137C239.345 51.6205 239.497 51.4605 239.598 51.4605C240.132 51.4605 240.663 51.4605 241.197 51.4605C241.322 51.4605 241.452 51.6205 241.446 51.7461C241.42 52.3458 241.399 52.9434 241.369 53.543C241.362 53.6645 241.407 53.6889 241.527 53.6889C242.82 53.6848 244.113 53.6889 245.408 53.6848C245.635 53.6848 245.862 53.6645 246.09 53.6463C246.287 53.6301 246.433 53.7598 246.424 53.9441C246.407 54.3249 246.386 54.7058 246.383 55.0846C246.379 56.4702 246.379 57.8579 246.383 59.2435C246.383 59.5474 246.418 59.8492 246.439 60.1531C246.448 60.2746 246.304 60.4367 246.173 60.4367C245.689 60.4367 245.202 60.4367 244.718 60.4367C244.585 60.4367 244.441 60.2989 244.441 60.1713C244.441 60.0295 244.437 59.8877 244.441 59.7459C244.443 59.673 244.415 59.6466 244.336 59.6466C243.382 59.6466 242.428 59.6466 241.474 59.6466C241.397 59.6466 241.369 59.6709 241.369 59.7439C241.386 60.9391 241.401 62.1343 241.418 63.3295C241.418 63.4105 241.435 63.4915 241.444 63.5705C241.472 63.8055 241.36 63.925 241.116 63.925C240.614 63.925 240.11 63.925 239.609 63.925C239.467 63.925 239.326 63.7772 239.334 63.6495C239.366 63.1532 239.413 62.6549 239.422 62.1586C239.437 61.3685 239.422 60.5785 239.428 59.7864C239.428 59.675 239.398 59.6426 239.278 59.6426C238.406 59.6466 237.533 59.6466 236.661 59.6426C236.551 59.6426 236.502 59.6649 236.515 59.7763C236.526 59.8816 236.517 59.987 236.517 60.0923C236.517 60.3293 236.408 60.4326 236.155 60.4326C235.713 60.4326 235.269 60.4326 234.828 60.4326C234.645 60.4326 234.515 60.2928 234.525 60.1247C234.549 59.7439 234.579 59.365 234.581 58.9842C234.587 57.6796 234.587 56.373 234.581 55.0684C234.581 54.6835 234.551 54.2986 234.534 53.9157C234.527 53.7901 234.675 53.6362 234.806 53.6382C235.863 53.6524 236.918 53.6686 237.975 53.6807C238.404 53.6848 238.835 53.6807 239.263 53.6807C239.311 53.6807 239.358 53.6807 239.422 53.6807V53.6868ZM241.371 57.9085C241.418 57.9126 241.448 57.9187 241.476 57.9187C242.426 57.9187 243.373 57.9187 244.323 57.9207C244.426 57.9207 244.441 57.8822 244.441 57.7991C244.439 57.0496 244.437 56.3001 244.441 55.5505C244.441 55.4452 244.405 55.4229 244.302 55.4249C243.369 55.429 242.439 55.429 241.506 55.4249C241.401 55.4249 241.367 55.4513 241.367 55.5526C241.371 56.298 241.369 57.0435 241.369 57.789V57.9105L241.371 57.9085ZM236.523 55.433C236.521 55.4817 236.517 55.5181 236.517 55.5526C236.517 56.298 236.519 57.0435 236.515 57.789C236.515 57.9024 236.556 57.9207 236.663 57.9207C237.535 57.9166 238.406 57.9207 239.278 57.9187C239.323 57.9187 239.368 57.9146 239.418 57.9126V55.433H236.526H236.523Z" fill="#2E2E2E"/>
<path d="M261.029 63.8785C258.951 63.2545 257.011 62.4078 255.332 61.0647C253.623 62.4017 251.666 63.2626 249.556 63.8724C249.535 63.8278 249.511 63.7833 249.492 63.7346C249.293 63.2788 249.038 62.8534 248.71 62.4685C248.589 62.3288 248.669 62.1079 248.851 62.0613C249.966 61.7676 251.061 61.4273 252.099 60.935C252.719 60.6413 253.302 60.2908 253.849 59.8897C253.883 59.8654 253.913 59.8391 253.939 59.8168C253.656 59.4745 253.368 59.1463 253.103 58.8039C252.284 57.7485 251.683 56.5857 251.274 55.3378C251.229 55.2021 251.167 55.1555 251.014 55.1636C250.371 55.194 249.728 55.2143 249.085 55.2386C248.984 55.2426 248.815 55.1049 248.815 55.0076C248.815 54.5539 248.815 54.1001 248.815 53.6463C248.815 53.5572 248.986 53.4134 249.078 53.4235C250.217 53.5592 251.362 53.4883 252.504 53.5025C253.023 53.5086 253.544 53.5025 254.065 53.5025C254.117 53.5025 254.168 53.5025 254.215 53.5025C254.226 53.4802 254.234 53.4701 254.234 53.46C254.234 52.9292 254.265 52.3985 254.164 51.8718C254.136 51.7259 254.28 51.5699 254.436 51.5699C254.953 51.5699 255.467 51.5699 255.984 51.5699C256.134 51.5699 256.278 51.7299 256.25 51.8697C256.149 52.3843 256.177 52.9029 256.173 53.4215C256.173 53.4863 256.203 53.5065 256.267 53.5045C256.306 53.5045 256.344 53.5045 256.383 53.5045C257.641 53.5045 258.902 53.5106 260.16 53.5005C260.602 53.4964 261.044 53.4559 261.485 53.4275C261.635 53.4174 261.794 53.545 261.796 53.6889C261.796 54.1143 261.796 54.5397 261.796 54.9651C261.796 55.1191 261.638 55.2386 261.477 55.2325C260.786 55.2062 260.096 55.1879 259.406 55.1636C259.32 55.1616 259.311 55.2143 259.292 55.2669C259.118 55.7531 258.97 56.2515 258.763 56.7255C258.287 57.8113 257.628 58.7978 256.829 59.6993C256.801 59.7297 256.775 59.7621 256.736 59.8067C256.897 59.9161 257.052 60.0214 257.21 60.1247C258.503 60.9695 259.94 61.5002 261.455 61.8568C261.556 61.8811 261.655 61.9114 261.756 61.9236C261.882 61.9378 261.946 61.9945 261.985 62.112C262.015 62.2052 262.017 62.27 261.942 62.349C261.545 62.7663 261.297 63.2647 261.08 63.7792C261.067 63.8096 261.052 63.8379 261.033 63.8805L261.029 63.8785ZM253.216 55.1717C253.308 55.9111 254.749 58.2367 255.332 58.5811C256.239 57.5804 256.902 56.454 257.281 55.1717H253.216Z" fill="#2E2E2E"/>
<path d="M222.697 64C222.525 63.8461 222.534 63.684 222.585 63.4672C222.785 62.6184 222.946 61.7595 223.119 60.9046C223.13 60.85 223.136 60.7932 223.147 60.7244C223.096 60.7203 223.055 60.7142 223.014 60.7142C222.335 60.7142 221.657 60.7142 220.977 60.7142C220.887 60.7142 220.84 60.7284 220.823 60.8277C220.716 61.4719 220.596 62.114 220.493 62.7582C220.465 62.9365 220.471 63.1208 220.463 63.3153C220.42 63.3194 220.379 63.3254 220.339 63.3254C219.792 63.3254 219.247 63.3254 218.701 63.3254C218.533 63.3254 218.396 63.1553 218.443 63.0054C218.681 62.2579 218.793 61.486 218.934 60.7183C219.022 60.2483 219.084 59.7743 219.157 59.3002C219.174 59.1828 219.318 59.0713 219.445 59.0734C220.737 59.0875 222.03 59.0997 223.323 59.1159C223.417 59.1159 223.456 59.0875 223.462 59.0025C223.469 58.9133 223.482 58.8242 223.494 58.7371C223.507 58.648 223.467 58.6095 223.372 58.6155C223.334 58.6176 223.295 58.6155 223.256 58.6155C223.01 58.6155 222.916 58.5021 222.918 58.2752C222.918 58.0544 222.892 57.8316 222.853 57.6128C222.834 57.5054 222.838 57.4264 222.928 57.3555C222.967 57.3251 222.997 57.2866 223.038 57.2441C222.841 57.1246 223.001 56.9423 222.922 56.7964C222.798 57.4446 222.63 58.0848 222.622 58.7614C222.523 58.7614 222.442 58.7614 222.362 58.7614C222.007 58.7614 221.649 58.7614 221.293 58.7614C221.138 58.7614 221.007 58.5872 221.042 58.4433C221.138 58.0463 221.228 57.6472 221.32 57.2481C221.305 57.2421 221.29 57.238 221.275 57.2319C221.248 57.2785 221.222 57.3251 221.194 57.3717C221.089 57.5439 220.984 57.7161 220.875 57.8863C220.793 58.0139 220.549 58.0179 220.448 57.9004C220.39 57.8316 220.326 57.7667 220.244 57.6776C220.148 58.0666 220.118 58.4352 220.116 58.8161C220.06 58.8181 220.015 58.8242 219.97 58.8242C219.541 58.8242 219.11 58.8242 218.681 58.8242C218.497 58.8242 218.377 58.6601 218.415 58.492C218.548 57.9065 218.679 57.319 218.793 56.7296C218.954 55.897 219.101 55.0623 219.254 54.2277C219.271 54.1285 219.279 54.0272 219.288 53.9259C219.307 53.7091 219.421 53.6159 219.655 53.6301C219.837 53.6403 220.019 53.6484 220.218 53.6585C220.137 53.2959 220.015 52.9738 219.848 52.6679C219.8 52.5808 219.751 52.4957 219.702 52.4106C219.58 52.1979 219.635 52.05 219.875 51.9589C220.246 51.8191 220.617 51.6813 220.99 51.5436C221.018 51.5335 221.046 51.5254 221.074 51.5173C221.458 52.0622 221.681 52.6699 221.925 53.304C221.949 53.2513 221.964 53.227 221.968 53.2027C222.039 52.7064 222.112 52.208 222.18 51.7097C222.193 51.6104 222.326 51.4767 222.433 51.4747C222.888 51.4747 223.344 51.4727 223.799 51.4747C223.932 51.4747 224.067 51.6672 224.024 51.7887C223.816 52.3721 223.745 52.9819 223.625 53.5815C223.621 53.5997 223.625 53.62 223.625 53.6504H224.226C224.226 53.6504 224.232 53.6342 224.234 53.624C224.131 53.5856 224.026 53.5471 223.923 53.5066C223.818 53.466 223.743 53.2311 223.818 53.1541C224.288 52.6679 224.669 52.127 224.948 51.5152C224.987 51.5233 225.019 51.5294 225.051 51.5395C225.428 51.6651 225.803 51.7907 226.181 51.9163C226.337 51.969 226.415 52.1696 226.318 52.2992C226.024 52.6942 225.724 53.0832 225.426 53.4762C225.388 53.5288 225.34 53.5754 225.28 53.6463C225.439 53.6463 225.574 53.6605 225.707 53.6423C225.84 53.624 225.928 53.6605 225.994 53.7659C226.018 53.8023 226.05 53.8347 226.089 53.8813C226.818 53.1156 227.465 52.3134 227.9 51.3714C228.4 51.4585 228.893 51.5436 229.384 51.6347C229.502 51.657 229.581 51.8859 229.515 51.9872C229.367 52.2101 229.219 52.4329 229.071 52.6578C229.054 52.6841 229.039 52.7125 229.011 52.759C229.064 52.7631 229.103 52.7692 229.144 52.7692C229.858 52.7692 230.57 52.7692 231.283 52.7611C231.506 52.7591 231.729 52.7347 231.95 52.7165C232.07 52.7064 232.246 52.8705 232.225 52.9799C232.143 53.4113 232.06 53.8408 231.985 54.2723C231.97 54.3574 231.933 54.3797 231.849 54.3695C231.657 54.3493 231.464 54.3412 231.273 54.3209C231.176 54.3108 231.125 54.3432 231.082 54.4242C230.769 54.9935 230.428 55.5465 230.008 56.0529C229.879 56.2089 229.74 56.3588 229.596 56.5229C229.654 56.5594 229.708 56.5979 229.763 56.6303C230.25 56.9139 230.786 57.0861 231.324 57.2603C231.528 57.3251 231.596 57.5297 231.457 57.6837C231.118 58.0544 230.859 58.4737 230.621 58.9072C230.597 58.9498 230.574 58.9903 230.546 59.0389C229.755 58.6966 228.983 58.3421 228.314 57.8194C228.217 57.7424 228.114 57.7391 228.005 57.8093C227.373 58.2205 226.695 58.5507 225.975 58.8039C225.801 58.8647 225.641 58.7817 225.578 58.6155C225.484 58.3664 225.375 58.1213 225.267 57.868C225.094 58.0767 224.944 58.257 224.785 58.4474C224.912 58.4474 225.045 58.4474 225.18 58.4474C225.33 58.4474 225.469 58.6317 225.426 58.7675C225.392 58.8789 225.362 58.9903 225.325 59.122C225.398 59.122 225.445 59.122 225.49 59.122C226.577 59.12 227.664 59.12 228.751 59.1139C228.996 59.1139 229.24 59.0936 229.485 59.0835C229.609 59.0774 229.768 59.2516 229.746 59.363C229.577 60.1855 229.412 61.01 229.234 61.8304C229.18 62.0755 229.118 62.3227 229.015 62.5516C228.82 62.9831 228.411 63.137 227.954 63.2019C227.33 63.289 226.702 63.2545 226.076 63.214C225.966 63.2079 225.823 63.2181 225.761 63.1593C225.705 63.1046 225.748 62.9669 225.739 62.8676C225.707 62.5415 225.677 62.2153 225.632 61.8892C225.608 61.717 225.763 61.5671 225.947 61.5873C226.314 61.6278 226.68 61.6765 227.047 61.6927C227.429 61.7109 227.435 61.6927 227.502 61.3422C227.538 61.1437 227.577 60.9452 227.617 60.7325C227.562 60.7284 227.521 60.7244 227.478 60.7244C226.704 60.7244 225.93 60.7264 225.158 60.7203C225.047 60.7203 225.012 60.7568 224.995 60.852C224.852 61.6542 224.704 62.4544 224.558 63.2566C224.541 63.3477 224.519 63.4429 224.53 63.5341C224.554 63.7326 224.489 63.8886 224.32 64.0081H224.294C224.243 64.0041 224.193 63.9939 224.142 63.9939C223.737 63.9939 223.329 63.9939 222.924 63.9939C222.864 63.9939 222.806 64.0041 222.746 64.0081H222.695L222.697 64ZM225.36 57.3474C225.988 57.1448 226.554 56.8957 227.073 56.5776C226.888 56.2393 226.713 55.9152 226.53 55.5809C226.41 55.6822 226.277 55.7754 226.172 55.8889C226.061 56.0084 225.943 56.0286 225.801 55.9679C225.746 55.9436 225.698 55.897 225.638 55.8544C225.546 56.3467 225.456 56.8329 225.36 57.3474ZM229.272 54.3229H227.879C227.999 54.7321 228.151 55.1089 228.436 55.4412C228.769 55.0988 229.041 54.7321 229.272 54.3229ZM221.7 55.1191C221.376 55.1191 221.07 55.1191 220.761 55.1191C220.742 55.1191 220.712 55.1414 220.707 55.1596C220.677 55.2913 220.654 55.4229 220.628 55.5566C220.639 55.5587 220.649 55.5627 220.66 55.5647C220.686 55.4979 220.714 55.4331 220.739 55.3662C220.791 55.2305 220.967 55.1515 221.108 55.2021C221.282 55.2649 221.458 55.3277 221.648 55.3966C221.666 55.2994 221.681 55.2183 221.698 55.1191H221.7ZM221.211 53.618C221.215 53.6301 221.22 53.6423 221.224 53.6524C221.423 53.6524 221.623 53.6524 221.82 53.6504C221.844 53.6504 221.882 53.618 221.886 53.5937C221.908 53.5086 221.919 53.4215 221.938 53.3101C221.679 53.4194 221.445 53.5187 221.209 53.618H221.211ZM223.362 57.2664C223.362 57.2664 223.368 57.2866 223.37 57.2968C223.389 57.3008 223.411 57.3069 223.43 57.3069C223.499 57.313 223.567 57.319 223.636 57.319C223.788 57.319 223.831 57.2623 223.797 57.1023C223.651 57.157 223.505 57.2117 223.362 57.2664ZM223.951 55.1272C224.003 55.2568 224.052 55.3824 224.101 55.51L224.125 55.5141C224.148 55.3885 224.172 55.2629 224.198 55.1272H223.951ZM223.216 55.275C223.334 55.2325 223.443 55.192 223.554 55.1515C223.55 55.1413 223.548 55.1292 223.544 55.1191C223.475 55.1191 223.409 55.1231 223.34 55.1191C223.218 55.1089 223.192 55.1636 223.216 55.2771V55.275Z" fill="#4D4D4D"/>
<path d="M208.277 54.0697C208.446 54.0697 208.605 54.0738 208.761 54.0697C208.877 54.0657 208.991 54.0393 209.106 54.0353C209.192 54.0312 209.276 54.0474 209.389 54.0576C209.464 53.6565 209.548 53.2169 209.632 52.7672C210.491 52.9069 211.343 52.8583 212.226 52.8684C212.279 52.4086 212.331 51.9568 212.385 51.4889C212.412 51.4889 212.457 51.4828 212.505 51.4828C213.013 51.4828 213.519 51.4828 214.027 51.4828C214.198 51.4828 214.323 51.657 214.28 51.815C214.188 52.1554 214.106 52.4998 214.014 52.8664C214.091 52.8664 214.136 52.8664 214.181 52.8664C214.861 52.8583 215.538 52.8522 216.218 52.8401C216.359 52.8381 216.501 52.8219 216.64 52.8036C216.803 52.7834 216.973 52.9333 216.945 53.0852C216.857 53.5653 216.767 54.0434 216.677 54.5215C216.675 54.5336 216.668 54.5438 216.66 54.5681C216.458 54.5539 216.254 54.5275 216.051 54.5235C215.307 54.5093 214.565 54.5012 213.821 54.4951C213.787 54.4951 213.729 54.5316 213.722 54.56C213.664 54.8375 213.613 55.117 213.559 55.4027C213.598 55.4088 213.626 55.4189 213.654 55.4189C214.428 55.4169 215.202 55.4169 215.973 55.4088C216.205 55.4067 216.437 55.3824 216.668 55.3682C216.827 55.3581 216.975 55.51 216.949 55.6539C216.865 56.1056 216.78 56.5553 216.7 57.0071C216.683 57.1003 216.651 57.1246 216.55 57.1165C216.13 57.082 215.71 57.0597 215.292 57.0294C215.191 57.0213 215.146 57.0516 215.131 57.1509C215.101 57.3575 215.058 57.5642 215.015 57.8012C215.403 57.7809 215.772 57.7667 216.136 57.7404C216.312 57.7283 216.479 57.8701 216.449 58.0341C216.364 58.5021 216.276 58.968 216.19 59.434C216.186 59.4603 216.173 59.4866 216.164 59.515C215.877 59.4907 215.596 59.4623 215.313 59.4421C215.163 59.4319 215.013 59.438 214.863 59.4238C214.745 59.4137 214.698 59.4542 214.679 59.5636C214.546 60.301 214.404 61.0384 214.267 61.7757C214.22 62.0229 214.177 62.272 214.125 62.5172C213.969 63.2525 213.581 63.607 212.796 63.7265C212.052 63.838 211.306 63.7974 210.56 63.7569C210.446 63.7509 210.335 63.5928 210.348 63.4672C210.388 63.0945 210.38 62.7218 210.292 62.3551C210.281 62.3085 210.266 62.2639 210.251 62.2092C210.217 62.2234 210.193 62.2315 210.172 62.2437C209.958 62.3673 209.786 62.3186 209.69 62.0978C209.396 61.4212 208.993 60.8074 208.504 60.2402C208.395 60.1126 208.431 59.9201 208.579 59.8371C208.768 59.7317 208.956 59.6264 209.145 59.5211C209.179 59.5028 209.211 59.4805 209.237 59.434C209.124 59.434 209.01 59.4279 208.898 59.434C208.671 59.4481 208.444 59.4704 208.219 59.4907C208.092 59.5028 207.925 59.3448 207.944 59.2253C207.953 59.1665 207.964 59.1078 207.979 59.0146C207.743 59.1078 207.533 59.1828 207.331 59.2759C207.295 59.2921 207.288 59.3752 207.278 59.4299C207.185 59.912 207.091 60.3942 207.005 60.8763C206.866 61.6582 206.727 62.4422 206.596 63.2262C206.562 63.4267 206.553 63.6293 206.54 63.8319C206.534 63.9129 206.517 63.9534 206.414 63.9514C205.88 63.9474 205.348 63.9514 204.814 63.9494C204.686 63.9494 204.54 63.7711 204.576 63.6556C204.814 62.9061 204.943 62.1323 205.089 61.3645C205.17 60.933 205.249 60.5036 205.331 60.0721C205.339 60.0295 205.342 59.987 205.35 59.9242C205.005 60.0315 204.679 60.1328 204.355 60.2362C204.111 60.3152 203.869 60.3982 203.626 60.4792C203.506 60.5198 203.298 60.3962 203.292 60.2767C203.268 59.7824 203.251 59.2881 203.228 58.7958C203.226 58.729 203.249 58.7047 203.32 58.6986C204.111 58.6176 204.859 58.3704 205.616 58.1577C205.652 58.1476 205.695 58.103 205.702 58.0686C205.845 57.319 205.983 56.5695 206.122 55.818C206.124 55.8018 206.122 55.7855 206.122 55.7491C205.983 55.7491 205.848 55.743 205.713 55.7531C205.683 55.7552 205.646 55.8078 205.629 55.8443C205.387 56.3811 205.147 56.9179 204.904 57.4548C204.825 57.629 204.611 57.6715 204.454 57.55C204.203 57.3535 203.918 57.2157 203.614 57.1063C203.468 57.0537 203.399 56.8673 203.472 56.7377C204.124 55.5708 204.557 54.3331 204.825 53.0406C204.838 52.9738 204.846 52.9049 204.853 52.836C204.874 52.6091 204.992 52.52 205.232 52.5484C205.586 52.5909 205.94 52.6314 206.294 52.6719C206.435 52.6882 206.549 52.8745 206.508 53.0062C206.405 53.3404 206.311 53.6767 206.212 54.013C206.208 54.0272 206.21 54.0454 206.208 54.0596C206.396 54.1204 206.446 54.1001 206.474 53.934C206.583 53.2817 206.692 52.6294 206.797 51.9771C206.808 51.9143 206.806 51.8475 206.808 51.7826C206.812 51.5679 206.922 51.4666 207.145 51.4666C207.599 51.4666 208.056 51.4666 208.51 51.4666C208.673 51.4666 208.798 51.6429 208.763 51.7907C208.62 52.4126 208.485 53.0346 208.347 53.6565C208.317 53.7902 208.298 53.9259 208.272 54.0657L208.277 54.0697ZM212.888 59.438H210.206C210.755 60.0376 211.177 60.6838 211.529 61.3827C211.218 61.5792 210.914 61.7737 210.592 61.9763C210.631 61.9945 210.641 62.0026 210.652 62.0026C211.156 62.0411 211.66 62.0836 212.166 62.112C212.357 62.1221 212.402 62.0715 212.436 61.8892C212.582 61.1174 212.725 60.3435 212.871 59.5717C212.88 59.5292 212.884 59.4866 212.89 59.438H212.888ZM207.627 57.5338C207.7 57.5115 207.745 57.4993 207.79 57.4852C208.03 57.3981 208.27 57.3089 208.513 57.2238C208.549 57.2117 208.6 57.2016 208.63 57.2157C208.808 57.2968 208.845 57.3697 208.819 57.5581C208.817 57.5783 208.813 57.5986 208.811 57.6189C208.785 57.7708 208.785 57.7728 208.954 57.7769C209.28 57.785 209.606 57.7951 209.934 57.7951C210.965 57.7971 211.996 57.7951 213.028 57.7951C213.066 57.7951 213.107 57.7992 213.143 57.7911C213.169 57.785 213.206 57.7647 213.21 57.7465C213.257 57.5135 213.3 57.2806 213.347 57.0294C213.274 57.0294 213.225 57.0294 213.173 57.0294C212.044 57.0294 210.914 57.0253 209.784 57.0314C209.402 57.0334 209.021 57.0658 208.639 57.0922C208.448 57.1043 208.298 56.9605 208.332 56.7822C208.341 56.7417 208.347 56.7032 208.354 56.6627C208.407 56.369 208.463 56.0752 208.523 55.7531C208.358 55.7531 208.21 55.7531 208.062 55.7531C207.989 55.7531 207.957 55.7734 207.944 55.8463C207.889 56.1664 207.826 56.4844 207.766 56.8045C207.724 57.0395 207.679 57.2725 207.629 57.5358L207.627 57.5338ZM209.248 55.3885C209.312 55.3925 209.355 55.3986 209.398 55.3986C210.041 55.4067 210.684 55.4148 211.328 55.4189C211.458 55.4189 211.628 55.4533 211.711 55.3905C211.788 55.3338 211.778 55.1677 211.801 55.0482C211.836 54.8699 211.868 54.6916 211.9 54.5093C211.859 54.5012 211.834 54.4931 211.81 54.4931C211.111 54.5093 210.412 54.5255 209.713 54.5397C209.619 54.5397 209.524 54.5235 209.413 54.5113C209.364 54.7787 209.308 55.0765 209.248 55.3885Z" fill="#4D4D4D"/>
<path d="M197.726 55.9192C197.771 55.903 197.801 55.8969 197.825 55.8848C198.766 55.3966 199.692 54.88 200.513 54.2216C200.674 54.094 200.824 53.9542 200.976 53.8165C201.075 53.7274 201.307 53.7375 201.382 53.8428C201.635 54.1953 201.888 54.5478 202.138 54.9023C202.203 54.9935 202.168 55.192 202.078 55.2507C201.071 55.9152 200.05 56.5594 198.967 57.1104C198.472 57.3616 197.973 57.6067 197.473 57.8478C197.39 57.8883 197.342 57.9369 197.327 58.026C197.098 59.2698 196.864 60.5137 196.631 61.7575C196.603 61.9013 196.613 61.9236 196.772 61.9317C197.141 61.9499 197.51 61.9621 197.878 61.9601C198.114 61.9601 198.35 61.9337 198.584 61.9135C198.807 61.8952 198.968 61.7838 199.032 61.5833C199.167 61.1619 199.302 60.7385 199.416 60.3111C199.501 59.989 199.557 59.6608 199.626 59.3347C199.654 59.1989 199.881 59.0977 200.005 59.1726C200.402 59.4056 200.826 59.5778 201.279 59.6912C201.373 59.7155 201.399 59.7479 201.375 59.8431C201.186 60.6048 201.013 61.3706 200.721 62.1039C200.582 62.4503 200.404 62.7785 200.123 63.0459C199.761 63.3903 199.304 63.5321 198.813 63.5807C197.771 63.686 196.729 63.6921 195.687 63.5847C195.475 63.5624 195.258 63.4915 195.066 63.4004C194.66 63.2079 194.555 62.8514 194.613 62.4604C194.703 61.8385 194.823 61.2227 194.939 60.6048C195.141 59.519 195.346 58.4352 195.55 57.3494C195.814 55.9375 196.082 54.5255 196.335 53.1115C196.408 52.7084 196.438 52.2992 196.478 51.892C196.489 51.7867 196.519 51.7543 196.631 51.7563C197.173 51.7624 197.713 51.7563 198.256 51.7583C198.421 51.7583 198.545 51.9285 198.511 52.0804C198.361 52.7368 198.211 53.3951 198.076 54.0535C197.958 54.6227 197.859 55.194 197.754 55.7632C197.745 55.8098 197.741 55.8564 197.733 55.9192H197.726Z" fill="#4D4D4D"/>
<path d="M192.527 55.3804C192.564 55.3865 192.587 55.3925 192.613 55.3925C193.361 55.3925 194.107 55.3925 194.855 55.3824C195.057 55.3804 195.256 55.3459 195.456 55.3257C195.565 55.3135 195.747 55.4817 195.728 55.585C195.642 56.0509 195.554 56.5189 195.467 56.9848C195.447 57.082 195.286 57.2016 195.184 57.1853C194.448 57.076 193.708 57.1347 192.971 57.1205C192.752 57.1165 192.534 57.1205 192.313 57.1205C192.231 57.1205 192.195 57.1388 192.178 57.2238C192.013 58.1172 191.843 59.0085 191.674 59.9019C191.603 60.2807 191.532 60.6595 191.462 61.0384C191.455 61.0687 191.455 61.1012 191.449 61.1538C191.509 61.1417 191.556 61.1336 191.603 61.1214C192.544 60.85 193.483 60.5805 194.422 60.3091C194.611 60.2544 194.798 60.4002 194.765 60.5846C194.693 60.9999 194.618 61.4151 194.549 61.8304C194.534 61.9155 194.5 61.9581 194.407 61.9905C192.722 62.5638 191.011 63.058 189.279 63.4855C188.906 63.5766 188.539 63.6921 188.168 63.7974C188.066 63.8258 187.847 63.7043 187.845 63.607C187.832 63.0479 187.825 62.4888 187.817 61.9297C187.817 61.9216 187.821 61.9155 187.83 61.8912C187.995 61.875 188.171 61.8649 188.342 61.8385C188.672 61.7879 189.002 61.7312 189.328 61.6663C189.371 61.6582 189.421 61.5873 189.431 61.5387C189.523 61.0809 189.605 60.6231 189.691 60.1652C189.946 58.8019 190.203 57.4386 190.456 56.0732C190.673 54.9003 190.885 53.7274 191.093 52.5524C191.131 52.3336 191.136 52.1088 191.157 51.8859C191.161 51.8434 191.166 51.7988 191.172 51.7502C191.219 51.7482 191.256 51.7441 191.294 51.7441C191.85 51.7441 192.403 51.7441 192.958 51.7441C193.123 51.7441 193.25 51.9184 193.213 52.0662C193.076 52.6537 192.939 53.2432 192.814 53.8347C192.716 54.3027 192.636 54.7767 192.549 55.2467C192.54 55.2892 192.536 55.3338 192.527 55.3824V55.3804Z" fill="#4D4D4D"/>
<path d="M174.325 47.3381C174.259 47.2935 174.201 47.2307 174.128 47.2064C174.031 47.176 173.926 47.1659 173.823 47.1618C173.272 47.1355 172.739 47.016 172.205 46.9005C171.872 46.8296 171.551 46.7141 171.231 46.5987C170.858 46.463 170.481 46.3272 170.127 46.151C169.591 45.8836 169.075 45.5797 168.605 45.209C167.822 44.5911 167.164 43.874 166.648 43.0414C166.337 42.539 166.047 42.0265 165.859 41.4694C165.689 40.961 165.479 40.4626 165.359 39.944C165.192 39.235 165.11 38.5098 165.057 37.7825C164.982 36.7595 165.048 35.7426 165.145 34.7277C165.196 34.1747 165.335 33.6277 165.449 33.0807C165.524 32.7161 165.614 32.3535 165.711 31.9949C165.788 31.7053 165.882 31.4196 165.979 31.136C166.075 30.8524 166.176 30.5688 166.29 30.2892C166.427 29.9509 166.568 29.6126 166.727 29.2824C166.875 28.9745 167.046 28.6747 167.205 28.3729C167.52 27.7793 167.891 27.2182 168.29 26.6712C169.195 25.4294 170.275 24.3416 171.529 23.4097C172.143 22.9539 172.792 22.5508 173.465 22.1801C174.059 21.854 174.681 21.5906 175.316 21.3516C175.601 21.2442 175.901 21.1753 176.197 21.1004C176.585 21.0011 176.975 20.914 177.365 20.8228C177.423 20.8087 177.481 20.7904 177.541 20.7823C178.962 20.6162 180.384 20.4845 181.818 20.6851C182.369 20.7621 182.918 20.8411 183.46 20.9565C183.776 21.0234 184.084 21.1267 184.387 21.2361C184.768 21.3739 185.148 21.5217 185.517 21.6878C185.778 21.8053 186.027 21.9492 186.275 22.093C186.854 22.4293 187.377 22.8324 187.845 23.2983C188.272 23.7217 188.664 24.1694 188.973 24.6779C189.223 25.0911 189.479 25.5044 189.68 25.9399C189.873 26.3593 189.993 26.809 190.156 27.2425C190.268 27.5423 190.325 27.8502 190.392 28.1602C190.724 29.7038 190.808 31.2555 190.596 32.8174C190.568 33.0179 190.555 33.2205 190.527 33.4211C190.49 33.6763 190.45 33.9336 190.4 34.1868C190.321 34.5839 190.244 34.9809 190.145 35.3739C190.049 35.7588 189.933 36.1376 189.817 36.5185C189.736 36.7899 189.646 37.0593 189.551 37.3267C189.479 37.5334 189.404 37.74 189.318 37.9406C188.85 39.0284 188.297 40.0737 187.611 41.0542C186.644 42.4357 185.476 43.6411 184.069 44.6357C183.411 45.1016 182.719 45.5149 181.992 45.8795C181.507 46.1226 181.004 46.3191 180.498 46.5116C180.215 46.6189 179.912 46.6858 179.614 46.7587C179.218 46.858 178.819 46.9491 178.42 47.0362C178.279 47.0666 178.133 47.0849 177.989 47.1011C177.691 47.1355 177.393 47.1659 177.095 47.1983C176.99 47.2105 176.889 47.2267 176.846 47.3381H174.327H174.325ZM183.235 31.608C183.248 31.0631 183.177 30.4938 183.087 29.9246C182.987 29.2946 182.802 28.699 182.509 28.1257C182.14 27.4106 181.537 26.9589 180.751 26.7401C180.311 26.6186 179.848 26.5254 179.381 26.5618C179.031 26.5882 178.686 26.6469 178.339 26.6834C177.86 26.734 177.427 26.9103 177.016 27.125C176.28 27.5099 175.669 28.0427 175.131 28.6463C174.486 29.3675 173.997 30.1819 173.592 31.0408C173.513 31.211 173.437 31.3832 173.373 31.5574C173.277 31.8248 173.184 32.0922 173.101 32.3636C172.996 32.704 172.876 33.0443 172.809 33.3927C172.704 33.9336 172.606 34.4724 172.552 35.0235C172.441 36.1943 172.488 37.347 172.749 38.4976C172.869 39.0243 173.067 39.5166 173.354 39.9805C173.622 40.414 174.012 40.724 174.479 40.9448C174.938 41.1595 175.438 41.2446 175.942 41.2871C176.66 41.3499 177.354 41.2345 178.036 41.0116C178.544 40.8455 178.999 40.5963 179.415 40.2823C180.142 39.7313 180.772 39.0932 181.265 38.3457C181.507 37.977 181.724 37.5901 181.93 37.2012C182.097 36.8831 182.243 36.5549 182.367 36.2207C182.543 35.7487 182.714 35.2726 182.839 34.7885C182.959 34.3266 183.01 33.8505 183.1 33.3826C183.212 32.8073 183.25 32.2259 183.237 31.6121L183.235 31.608Z" fill="#4D4D4D"/>
<path d="M151.955 47.3381C151.923 47.2165 151.816 47.2064 151.713 47.1943C151.432 47.1618 151.149 47.1477 150.87 47.1011C150.366 47.014 149.865 46.9147 149.365 46.8073C149.116 46.7526 148.87 46.6797 148.632 46.5946C148.242 46.4548 147.845 46.3232 147.472 46.1469C146.998 45.9241 146.531 45.6851 146.091 45.4075C145.602 45.0976 145.146 44.741 144.723 44.346C144.072 43.7383 143.54 43.0536 143.103 42.2939C142.82 41.8017 142.582 41.2891 142.414 40.7584C142.226 40.1567 142.076 39.5429 141.956 38.921C141.698 37.586 141.756 36.245 141.799 34.9019C141.808 34.6608 141.855 34.4198 141.887 34.1787C141.919 33.9376 141.941 33.6946 141.988 33.4575C142.076 33.022 142.17 32.5865 142.277 32.1529C142.354 31.839 142.449 31.527 142.549 31.2191C142.648 30.9111 142.753 30.6032 142.873 30.3014C143.008 29.9611 143.15 29.6248 143.311 29.2946C143.516 28.8692 143.726 28.4438 143.962 28.0346C144.335 27.3883 144.766 26.7745 145.244 26.1931C145.892 25.4051 146.612 24.6819 147.42 24.0357C148.083 23.507 148.788 23.037 149.534 22.6237C149.946 22.3948 150.379 22.2024 150.81 22.0059C151.17 21.8418 151.537 21.6878 151.91 21.546C152.178 21.4447 152.459 21.3678 152.737 21.2908C153.033 21.2077 153.329 21.1308 153.627 21.0639C154.086 20.9626 154.541 20.835 155.006 20.7843C155.983 20.681 156.961 20.5656 157.952 20.5757C158.888 20.5858 159.817 20.6912 160.743 20.7864C161.208 20.833 161.663 20.9646 162.122 21.0659C162.445 21.1389 162.769 21.2158 163.089 21.307C163.374 21.388 163.655 21.4873 163.935 21.5845C164.16 21.6635 164.381 21.7486 164.602 21.8337C164.705 21.8742 164.808 21.9147 164.904 21.9654C165.132 22.0849 165.138 22.1193 165.033 22.3482C164.707 23.0411 164.386 23.7359 164.06 24.4287C163.768 25.0486 163.47 25.6644 163.179 26.2843C163.022 26.6165 162.876 26.9508 162.726 27.2871C162.619 27.5261 162.553 27.5565 162.302 27.4714C161.755 27.2871 161.215 27.0804 160.657 26.9305C159.639 26.657 158.597 26.5152 157.536 26.5699C157.006 26.5963 156.477 26.6469 155.953 26.73C155.587 26.7887 155.233 26.9285 154.871 27.0176C154.493 27.1108 154.152 27.2749 153.812 27.443C153.364 27.6638 152.95 27.9373 152.564 28.2493C151.766 28.8955 151.145 29.6714 150.666 30.5506C150.48 30.8929 150.341 31.2596 150.197 31.6222C150.081 31.9159 149.972 32.2157 149.892 32.5196C149.792 32.9126 149.702 33.3097 149.65 33.7087C149.582 34.2456 149.532 34.7885 149.517 35.3293C149.502 35.7811 149.543 36.2328 149.569 36.6846C149.582 36.8953 149.601 37.1059 149.648 37.3105C149.73 37.665 149.809 38.0236 149.935 38.3639C150.066 38.7124 150.235 39.0507 150.416 39.3788C150.75 39.9846 151.258 40.4403 151.903 40.7422C152.371 40.9589 152.868 41.0926 153.389 41.1757C154.433 41.3418 155.467 41.3074 156.511 41.1838C157.015 41.1251 157.51 41.0379 158.001 40.9306C158.541 40.8131 159.062 40.6267 159.592 40.4707C159.682 40.4444 159.77 40.414 159.862 40.3897C160.044 40.3411 160.098 40.3674 160.123 40.5457C160.168 40.8496 160.203 41.1554 160.235 41.4613C160.284 41.9435 160.329 42.4276 160.376 42.9118C160.396 43.1204 160.415 43.3311 160.434 43.5398C160.475 43.9591 160.518 44.3764 160.556 44.7957C160.587 45.1097 160.619 45.4237 160.638 45.7397C160.649 45.9281 160.614 45.9525 160.426 46.0153C160.136 46.1105 159.851 46.2199 159.56 46.311C159.268 46.4022 158.972 46.4832 158.676 46.5622C158.406 46.6351 158.132 46.704 157.859 46.7668C157.443 46.8641 157.032 46.9734 156.612 47.0403C156.157 47.1132 155.692 47.1396 155.233 47.1882C155.119 47.2003 154.982 47.1861 154.941 47.334H151.959L151.955 47.3381Z" fill="#4D4D4D"/>
<path d="M82.3836 46.9127C80.7949 46.8377 79.5171 46.8073 78.2458 46.7101C77.266 46.6351 76.2798 46.5845 75.3064 46.4326C74.6396 46.3292 73.9643 46.2705 73.2975 46.1773C72.8837 46.1186 72.4721 46.0375 72.0626 45.9585C71.8353 45.914 71.7989 45.8329 71.8589 45.6283C71.9597 45.2779 72.0562 44.9254 72.1484 44.5729C72.2684 44.111 72.3863 43.6471 72.5 43.1832C72.59 42.8145 72.6715 42.4418 72.7637 42.0731C72.8537 41.7125 72.9545 41.3519 73.0488 40.9914C73.1367 40.6551 73.2246 40.3168 73.3104 39.9805C73.4262 39.5247 73.5419 39.0709 73.6556 38.6151C73.7456 38.2525 73.8249 37.8899 73.915 37.5273C74.0072 37.1586 74.1058 36.7899 74.2023 36.4212C74.2902 36.085 74.3781 35.7467 74.4638 35.4104C74.5818 34.9465 74.7018 34.4846 74.8154 34.0207C74.9055 33.652 74.9891 33.2793 75.077 32.9086C75.1499 32.6087 75.2249 32.311 75.3 32.0132C75.4222 31.527 75.5444 31.0388 75.6709 30.5526C75.7674 30.1839 75.8767 29.8193 75.971 29.4506C76.0632 29.09 76.1425 28.7253 76.2283 28.3627C76.3055 28.0406 76.387 27.7185 76.4684 27.3964C76.5842 26.9325 76.7 26.4686 76.82 26.0068C76.9144 25.6462 77.0151 25.2876 77.1116 24.927C77.1824 24.6617 77.251 24.3943 77.3174 24.1269C77.4075 23.7561 77.489 23.3854 77.5811 23.0167C77.6733 22.6481 77.7741 22.2794 77.8706 21.9107C77.9585 21.5744 78.0464 21.2361 78.1321 20.8978C78.2458 20.4501 78.3615 20.0044 78.473 19.5547C78.5631 19.1921 78.6424 18.8295 78.7324 18.4669C78.8268 18.0901 78.9275 17.7133 79.024 17.3385C79.1076 17.0164 79.1955 16.6964 79.277 16.3743C79.3992 15.8962 79.5214 15.4181 79.6393 14.938C79.7272 14.5754 79.813 14.2128 79.8902 13.8502C79.9181 13.7185 79.9802 13.6253 80.1196 13.5888C80.1775 13.5726 80.2332 13.5503 80.2932 13.5422C80.8421 13.4572 81.391 13.3721 81.9398 13.289C81.9913 13.2809 82.0427 13.2829 82.0942 13.2769C82.8081 13.1958 83.522 13.1107 84.236 13.0338C84.6197 12.9912 85.0014 12.9548 85.3873 12.9284C86.0198 12.8839 86.6522 12.8393 87.2847 12.815C88.406 12.7724 89.5273 12.7299 90.6507 12.7177C91.6948 12.7056 92.7411 12.7299 93.7873 12.7481C94.051 12.7522 94.3147 12.7947 94.5784 12.8231C94.8507 12.8535 95.1251 12.8758 95.3931 12.9244C95.8798 13.0135 96.3643 13.1107 96.8467 13.2181C97.1297 13.2809 97.4084 13.3599 97.6829 13.447C98.0066 13.5483 98.3239 13.6658 98.6455 13.7752C99.0979 13.9292 99.5202 14.1398 99.9362 14.3606C100.551 14.6888 101.102 15.096 101.602 15.566C102.14 16.0724 102.575 16.6538 102.893 17.3041C103.107 17.7437 103.264 18.2035 103.384 18.6776C103.547 19.3238 103.572 19.9761 103.544 20.6304C103.529 21.0092 103.469 21.386 103.424 21.7628C103.373 22.1882 103.294 22.6116 103.159 23.0208C103.088 23.2375 103.017 23.4543 102.927 23.663C102.363 24.9534 101.48 26.0169 100.356 26.9143C99.666 27.4673 98.8921 27.8928 98.0988 28.2918C97.9401 28.3708 97.7708 28.4296 97.6121 28.5106C97.4535 28.5916 97.4513 28.6909 97.61 28.776C97.8179 28.8894 98.0302 28.9907 98.2403 29.0981C99.3016 29.643 100.166 30.3885 100.787 31.3669C101.072 31.8167 101.291 32.2968 101.461 32.8012C101.879 34.0491 101.894 35.3111 101.688 36.5914C101.615 37.0391 101.529 37.4848 101.409 37.9223C101.33 38.21 101.225 38.4936 101.12 38.7752C101.049 38.9656 100.961 39.1499 100.886 39.3383C100.618 40.0089 100.241 40.6206 99.8011 41.2C99.0036 42.2494 98.0238 43.1204 96.896 43.8497C96.3022 44.2346 95.6804 44.5729 95.0329 44.8646C94.5098 45.1016 93.9653 45.2961 93.425 45.4926C92.964 45.6607 92.4966 45.8188 92.0228 45.9565C91.6734 46.0598 91.311 46.1287 90.953 46.2057C90.5028 46.3009 90.0504 46.39 89.6002 46.4812C89.5423 46.4933 89.4844 46.5116 89.4244 46.5176C88.7447 46.5946 88.0651 46.6858 87.3833 46.7405C86.2985 46.8276 85.2158 46.9187 84.1245 46.9066C83.4384 46.8985 82.7524 46.9066 82.3815 46.9066L82.3836 46.9127ZM86.4614 31.7984C85.4516 31.7984 84.4397 31.7984 83.4299 31.7984C83.1426 31.7984 83.1233 31.8065 83.0482 32.0577C82.9689 32.3211 82.911 32.5905 82.8403 32.8579C82.7416 33.2347 82.6387 33.6095 82.5423 33.9863C82.4286 34.4259 82.3193 34.8654 82.2099 35.305C82.1242 35.6514 82.0406 35.9978 81.9548 36.3422C81.8648 36.7129 81.7769 37.0816 81.6868 37.4523C81.6418 37.6326 81.5968 37.8129 81.5518 37.9932C81.466 38.3315 81.3824 38.6678 81.2945 39.0061C81.1916 39.4052 81.0758 39.8043 80.9879 40.2074C80.9043 40.5903 80.9686 40.6652 81.3759 40.7523C81.4167 40.7604 81.4596 40.7685 81.5024 40.7726C81.9205 40.807 82.3386 40.8658 82.7567 40.8678C84.6991 40.8799 86.6436 40.9407 88.5754 40.6267C89.1692 40.5295 89.7481 40.3897 90.3055 40.1952C90.923 39.9805 91.5083 39.6928 92.0293 39.3019C92.6081 38.8684 93.0841 38.3579 93.4143 37.7319C93.6201 37.3389 93.7487 36.9256 93.8087 36.4861C93.8838 35.9533 93.9245 35.4327 93.8045 34.8958C93.6522 34.2071 93.3328 33.6196 92.8097 33.1273C92.3208 32.6675 91.7355 32.3677 91.0902 32.1448C90.3227 31.8815 89.5337 31.7863 88.7211 31.7944C87.9665 31.8025 87.2139 31.7944 86.4593 31.7944L86.4614 31.7984ZM87.9043 26.2276C88.0587 26.2276 88.213 26.2296 88.3674 26.2276C89.5123 26.2033 90.6614 26.3005 91.7977 26.0554C92.293 25.95 92.7775 25.8204 93.2342 25.6198C93.8538 25.3484 94.3812 24.9534 94.8293 24.4611C95.2195 24.0296 95.5175 23.5475 95.6611 23.0026C95.794 22.5002 95.8176 21.9836 95.7254 21.461C95.6547 21.0578 95.4875 20.7013 95.243 20.3792C94.7349 19.7046 94.006 19.3258 93.1913 19.0807C92.5524 18.8882 91.8835 18.8133 91.2188 18.791C90.1662 18.7566 89.1135 18.7505 88.0587 18.7545C87.6063 18.7545 87.1539 18.8052 86.7015 18.8477C86.4464 18.872 86.425 18.9105 86.3692 19.1415C86.2877 19.4798 86.1977 19.816 86.1098 20.1543C86.0155 20.5149 85.9168 20.8735 85.8247 21.2341C85.711 21.6737 85.6017 22.1132 85.4902 22.5528C85.4044 22.8992 85.3187 23.2436 85.2329 23.59C85.1472 23.9445 85.0678 24.2991 84.9778 24.6515C84.8835 25.0202 84.7763 25.3869 84.6776 25.7535C84.6583 25.8245 84.6455 25.8954 84.6369 25.9683C84.6155 26.1587 84.6669 26.2134 84.8749 26.2256C84.9435 26.2296 85.0121 26.2256 85.0807 26.2256C86.0219 26.2256 86.9652 26.2256 87.9064 26.2256L87.9043 26.2276Z" fill="#4D4D4D"/>
<path d="M226.127 46.6149C224.995 46.6149 223.865 46.6149 222.733 46.6149C222.682 46.6149 222.63 46.6189 222.579 46.6149C222.433 46.6007 222.388 46.5501 222.397 46.4062C222.399 46.3576 222.41 46.309 222.422 46.2624C222.495 45.9707 222.57 45.681 222.643 45.3913C222.763 44.9133 222.881 44.4331 223.006 43.9551C223.098 43.5945 223.205 43.2359 223.297 42.8753C223.389 42.5147 223.471 42.1501 223.561 41.7895C223.655 41.4127 223.752 41.0359 223.848 40.6591C223.936 40.3148 224.028 39.9684 224.116 39.624C224.234 39.1601 224.352 38.6982 224.466 38.2343C224.556 37.8636 224.637 37.4929 224.727 37.1222C224.817 36.7595 224.914 36.401 225.008 36.0404C225.096 35.7041 225.186 35.3658 225.272 35.0295C225.39 34.5656 225.51 34.1038 225.621 33.6399C225.711 33.261 225.789 32.8802 225.872 32.5014C225.911 32.3272 225.966 32.157 225.994 31.9808C226.084 31.4298 226.187 30.8787 226.245 30.3257C226.282 29.9732 226.275 29.6126 226.247 29.2581C226.179 28.3931 225.814 27.6659 225.042 27.1635C224.856 27.0419 224.635 26.9629 224.419 26.89C223.589 26.6044 222.725 26.6935 221.871 26.7259C221.284 26.7482 220.699 26.8515 220.111 26.9184C219.959 26.9346 219.858 27.0075 219.807 27.1432C219.775 27.2263 219.736 27.3094 219.713 27.3944C219.62 27.7631 219.532 28.1338 219.44 28.5046C219.346 28.8813 219.247 29.2581 219.151 29.6349C219.065 29.9651 218.977 30.2933 218.894 30.6235C218.773 31.0935 218.653 31.5655 218.538 32.0375C218.448 32.4062 218.368 32.7789 218.276 33.1496C218.186 33.5102 218.087 33.8708 217.991 34.2314C217.907 34.5535 217.822 34.8736 217.738 35.1957C217.618 35.6656 217.498 36.1376 217.382 36.6096C217.292 36.9783 217.211 37.3511 217.12 37.7218C217.03 38.0824 216.934 38.443 216.84 38.8035C216.754 39.1337 216.666 39.4619 216.58 39.7921C216.46 40.2621 216.338 40.7341 216.222 41.2061C216.132 41.5748 216.053 41.9475 215.963 42.3182C215.871 42.6869 215.768 43.0536 215.671 43.4223C215.59 43.7282 215.51 44.0341 215.431 44.34C215.305 44.8342 215.18 45.3285 215.058 45.8248C215.015 45.997 214.996 46.1773 214.944 46.3475C214.876 46.5865 214.805 46.627 214.539 46.627C212.243 46.627 209.947 46.627 207.648 46.627C207.38 46.627 207.344 46.5642 207.415 46.3151C207.535 45.8937 207.638 45.4703 207.747 45.0469C207.841 44.6864 207.936 44.3258 208.03 43.9652C208.118 43.6289 208.21 43.2926 208.298 42.9543C208.416 42.5006 208.534 42.0448 208.645 41.589C208.735 41.2264 208.815 40.8637 208.907 40.5032C208.997 40.1426 209.096 39.782 209.192 39.4214C209.28 39.0932 209.368 38.763 209.454 38.4349C209.574 37.973 209.694 37.5091 209.81 37.0472C209.9 36.6846 209.979 36.322 210.069 35.9594C210.157 35.6049 210.256 35.2544 210.35 34.9019C210.44 34.5656 210.528 34.2273 210.616 33.8911C210.734 33.4373 210.852 32.9815 210.965 32.5257C211.055 32.1651 211.135 31.8005 211.225 31.4379C211.315 31.0773 211.415 30.7167 211.51 30.3561C211.598 30.0279 211.683 29.6977 211.769 29.3675C211.887 28.9117 212.005 28.458 212.119 28.0022C212.211 27.6335 212.292 27.2607 212.384 26.892C212.472 26.5375 212.571 26.1871 212.663 25.8346C212.753 25.4902 212.843 25.1458 212.933 24.7994C213.047 24.3598 213.158 23.9202 213.272 23.4807C213.341 23.2133 213.411 22.9479 213.48 22.6805C213.523 22.5103 213.634 22.4354 213.817 22.3948C214.149 22.3199 214.473 22.2146 214.799 22.1193C215.026 22.0525 215.253 21.9775 215.483 21.9127C215.802 21.8256 216.124 21.7405 216.447 21.6635C216.745 21.5906 217.045 21.5258 217.346 21.463C217.796 21.3678 218.248 21.2766 218.701 21.1875C218.851 21.1571 219.005 21.1409 219.157 21.1227C219.309 21.1044 219.464 21.0963 219.616 21.07C220.639 20.9019 221.674 20.831 222.71 20.7844C223.531 20.7479 224.354 20.7621 225.177 20.7722C225.51 20.7763 225.842 20.8208 226.174 20.8553C226.779 20.916 227.381 20.9971 227.971 21.1368C228.293 21.2138 228.612 21.309 228.923 21.4184C229.266 21.54 229.603 21.6777 229.933 21.8276C230.81 22.2247 231.556 22.7838 232.165 23.5009C232.589 24.0013 232.926 24.5503 233.187 25.1458C233.457 25.7617 233.631 26.3957 233.76 27.0501C233.916 27.8462 233.929 28.6423 233.903 29.4445C233.893 29.7828 233.841 30.1211 233.805 30.4594C233.783 30.66 233.755 30.8605 233.725 31.0611C233.695 31.2616 233.657 31.4601 233.62 31.6587C233.603 31.7458 233.58 31.8329 233.558 31.92C233.438 32.4244 233.318 32.9268 233.198 33.4312C233.112 33.7938 233.031 34.1564 232.941 34.519C232.846 34.8958 232.741 35.2706 232.643 35.6474C232.574 35.9067 232.508 36.164 232.443 36.4233C232.353 36.7859 232.268 37.1465 232.177 37.5091C232.092 37.8555 232.008 38.2019 231.92 38.5463C231.811 38.9778 231.702 39.4092 231.59 39.8407C231.496 40.2013 231.399 40.5619 231.305 40.9225C231.217 41.2588 231.129 41.5971 231.041 41.9333C230.923 42.3891 230.808 42.8429 230.694 43.2987C230.602 43.6674 230.522 44.0401 230.43 44.4088C230.34 44.7694 230.239 45.13 230.145 45.4906C230.066 45.7884 229.993 46.0882 229.911 46.384C229.849 46.6088 229.821 46.625 229.573 46.625C228.423 46.625 227.276 46.625 226.127 46.625V46.6149Z" fill="#4D4D4D"/>
<path d="M135.633 27.0622C134.39 27.0622 133.148 27.0622 131.905 27.0622C131.819 27.0622 131.733 27.0602 131.648 27.0662C131.429 27.0825 131.375 27.1392 131.326 27.3417C131.221 27.7753 131.105 28.2047 130.998 28.6362C130.906 29.0049 130.822 29.3776 130.73 29.7463C130.638 30.115 130.537 30.4837 130.44 30.8524C130.359 31.1664 130.273 31.4784 130.192 31.7924C130.067 32.2785 129.941 32.7647 129.821 33.2529C129.731 33.6155 129.656 33.9802 129.566 34.3408C129.474 34.7095 129.364 35.0761 129.27 35.4448C129.173 35.8297 129.086 36.2166 128.993 36.6015C128.978 36.6643 128.974 36.7312 128.957 36.7919C128.76 37.4969 128.725 38.214 128.803 38.9352C128.878 39.6422 129.233 40.2054 129.853 40.6085C130.357 40.9367 130.927 41.1007 131.534 41.1494C132.304 41.2122 133.078 41.2081 133.845 41.1311C134.388 41.0764 134.921 40.9488 135.455 40.8414C135.764 40.7787 136.068 40.6956 136.371 40.6166C136.534 40.574 136.694 40.5173 136.855 40.4647C137.048 40.4019 137.128 40.4464 137.147 40.6389C137.269 41.8462 137.389 43.0556 137.513 44.263C137.558 44.6904 137.621 45.1138 137.668 45.5412C137.694 45.7782 137.691 45.7863 137.443 45.8674C137.063 45.9909 136.682 46.1064 136.298 46.2199C135.972 46.3171 135.646 46.4184 135.316 46.4974C134.928 46.5906 134.533 46.6655 134.141 46.7466C134.083 46.7587 134.021 46.7587 133.963 46.7688C132.494 47.0464 131.007 47.1315 129.514 47.0808C128.77 47.0545 128.026 46.9836 127.289 46.8823C126.768 46.8094 126.245 46.6898 125.747 46.5237C124.384 46.0679 123.226 45.3346 122.414 44.1759C122.101 43.7302 121.856 43.2501 121.702 42.7335C121.601 42.3912 121.496 42.0508 121.408 41.7044C121.363 41.5241 121.357 41.3357 121.331 41.1514C121.202 40.1729 121.284 39.1925 121.365 38.2181C121.417 37.6063 121.55 37.0026 121.659 36.3969C121.74 35.935 121.833 35.4752 121.935 35.0154C122.017 34.6527 122.122 34.2942 122.214 33.9336C122.3 33.6034 122.386 33.2752 122.469 32.945C122.589 32.473 122.709 32.003 122.825 31.531C122.915 31.1603 122.997 30.7896 123.087 30.4189C123.177 30.0563 123.273 29.6977 123.368 29.3371C123.455 29.0009 123.543 28.6625 123.629 28.3242C123.747 27.8603 123.865 27.3985 123.979 26.9346C124.067 26.572 124.148 26.2093 124.238 25.8467C124.332 25.4699 124.431 25.0932 124.53 24.7164C124.613 24.3943 124.699 24.0742 124.78 23.7521C124.903 23.274 125.025 22.7939 125.141 22.3138C125.231 21.9431 125.31 21.5724 125.402 21.2017C125.494 20.833 125.595 20.4643 125.692 20.0956C125.775 19.7735 125.859 19.4534 125.94 19.1313C126.063 18.6532 126.185 18.1731 126.303 17.6951C126.393 17.3243 126.47 16.9516 126.562 16.5829C126.654 16.2142 126.759 15.8476 126.854 15.4789C126.884 15.3614 126.912 15.2419 126.929 15.1223C126.946 15.0008 127.004 14.936 127.139 14.9177C127.604 14.857 128.071 14.7921 128.535 14.7212C129.161 14.626 129.784 14.5268 130.408 14.4295C130.468 14.4194 130.526 14.4072 130.586 14.3991C131.197 14.3181 131.808 14.2391 132.417 14.1581C132.527 14.1439 132.636 14.1176 132.745 14.0993C132.955 14.0669 133.168 14.0385 133.38 14.0061C133.607 13.9717 133.837 13.9352 134.064 13.9008C134.242 13.8745 134.418 13.842 134.598 13.8279C134.739 13.8177 134.786 13.8765 134.765 14.0041C134.754 14.0669 134.726 14.1277 134.705 14.1905C134.675 14.2837 134.638 14.3748 134.615 14.468C134.493 14.9299 134.37 15.3918 134.255 15.8557C134.162 16.2162 134.085 16.5809 133.991 16.9415C133.901 17.294 133.798 17.6444 133.701 17.9969C133.616 18.317 133.53 18.6391 133.446 18.9612C133.331 19.4007 133.217 19.8383 133.103 20.2779C133.041 20.521 132.975 20.7641 132.919 21.0092C132.882 21.1733 132.947 21.2482 133.131 21.2685C133.2 21.2766 133.268 21.2746 133.337 21.2746C135.89 21.2746 138.444 21.2746 140.999 21.2746C141.349 21.2746 141.37 21.3171 141.272 21.6271C141.158 21.9816 141.066 22.3442 140.969 22.7027C140.852 23.1403 140.736 23.5799 140.624 24.0195C140.534 24.372 140.453 24.7285 140.363 25.081C140.271 25.4416 140.168 25.8001 140.073 26.1607C140.022 26.3572 139.988 26.5558 139.932 26.7523C139.852 27.0379 139.818 27.0602 139.505 27.0602C138.21 27.0602 136.917 27.0602 135.622 27.0602L135.633 27.0622Z" fill="#4D4D4D"/>
<path d="M108.947 46.5501C107.841 46.5501 106.737 46.5501 105.631 46.5501C105.562 46.5501 105.493 46.5541 105.425 46.548C105.247 46.5338 105.223 46.4913 105.266 46.3313C105.363 45.9626 105.448 45.5919 105.543 45.2232C105.637 44.8545 105.736 44.4858 105.832 44.1171C105.916 43.795 106.001 43.4749 106.083 43.1528C106.207 42.6667 106.332 42.1805 106.452 41.6923C106.54 41.3297 106.615 40.965 106.705 40.6044C106.797 40.2357 106.9 39.8691 106.996 39.5004C107.084 39.1641 107.168 38.8258 107.253 38.4875C107.365 38.0479 107.476 37.6083 107.586 37.1687C107.676 36.8061 107.757 36.4435 107.849 36.0829C107.946 35.698 108.049 35.3152 108.148 34.9303C108.231 34.6082 108.315 34.2881 108.396 33.966C108.518 33.4879 108.641 33.0078 108.759 32.5297C108.849 32.159 108.928 31.7883 109.018 31.4176C109.108 31.057 109.209 30.6964 109.303 30.3358C109.391 29.9996 109.479 29.6612 109.565 29.3229C109.678 28.8753 109.794 28.4296 109.903 27.9799C109.993 27.6112 110.077 27.2384 110.167 26.8697C110.246 26.5395 110.33 26.2093 110.414 25.8791C110.525 25.4315 110.639 24.9838 110.752 24.5361C110.845 24.1755 110.943 23.8149 111.038 23.4543C111.121 23.1322 111.209 22.8121 111.288 22.49C111.37 22.1517 111.447 21.8114 111.52 21.4731C111.546 21.3536 111.616 21.2867 111.747 21.2847C111.824 21.2847 111.902 21.2827 111.979 21.2827C114.232 21.2827 116.485 21.2827 118.739 21.2827C118.773 21.2827 118.807 21.2827 118.842 21.2827C119.05 21.2948 119.08 21.3374 119.035 21.5217C118.94 21.8985 118.857 22.2773 118.76 22.6541C118.668 23.0147 118.565 23.3733 118.469 23.7339C118.4 23.9911 118.333 24.2504 118.269 24.5097C118.179 24.8723 118.098 25.235 118.005 25.5955C117.911 25.9723 117.81 26.3491 117.714 26.7239C117.626 27.0602 117.538 27.3985 117.45 27.7347C117.334 28.1824 117.219 28.6281 117.109 29.0758C117.017 29.4445 116.936 29.8172 116.843 30.1859C116.753 30.5465 116.655 30.9071 116.56 31.2677C116.475 31.5959 116.385 31.9261 116.301 32.2542C116.181 32.7161 116.063 33.18 115.947 33.6439C115.857 34.0045 115.778 34.3691 115.688 34.7297C115.596 35.0984 115.495 35.4671 115.398 35.8338C115.315 36.1559 115.229 36.4759 115.145 36.798C115.025 37.268 114.903 37.74 114.787 38.21C114.695 38.5787 114.618 38.9514 114.524 39.3201C114.434 39.6807 114.331 40.0392 114.236 40.3998C114.153 40.7138 114.071 41.0258 113.99 41.3398C113.868 41.8179 113.743 42.2959 113.625 42.7761C113.535 43.1447 113.456 43.5175 113.364 43.8882C113.274 44.2488 113.169 44.6073 113.074 44.9679C112.982 45.3285 112.894 45.6911 112.806 46.0537C112.791 46.1165 112.785 46.1814 112.77 46.2442C112.708 46.5075 112.663 46.544 112.367 46.544C111.226 46.544 110.088 46.544 108.947 46.544V46.5501Z" fill="#4D4D4D"/>
<path d="M196.609 46.5501C195.477 46.5501 194.347 46.5501 193.215 46.5501C192.868 46.5501 192.851 46.5156 192.939 46.1976C193.065 45.7357 193.175 45.2718 193.295 44.8099C193.391 44.4412 193.492 44.0746 193.588 43.7059C193.659 43.4405 193.728 43.1731 193.794 42.9057C193.884 42.5431 193.966 42.1805 194.056 41.8199C194.152 41.435 194.253 41.0521 194.352 40.6672C194.437 40.337 194.523 40.0089 194.607 39.6787C194.725 39.2148 194.845 38.7529 194.958 38.289C195.048 37.9183 195.128 37.5476 195.22 37.1768C195.312 36.8082 195.413 36.4395 195.509 36.0728C195.591 35.7588 195.674 35.4468 195.756 35.1328C195.88 34.6467 196.005 34.1605 196.123 33.6723C196.213 33.3016 196.29 32.9308 196.382 32.5601C196.474 32.1914 196.579 31.8248 196.676 31.4561C196.746 31.1907 196.815 30.9233 196.879 30.6559C196.969 30.2852 197.051 29.9145 197.143 29.5458C197.237 29.169 197.34 28.7942 197.439 28.4174C197.52 28.1034 197.606 27.7915 197.681 27.4755C197.833 26.8454 197.977 26.2134 198.136 25.5854C198.292 24.9655 198.468 24.3497 198.627 23.7298C198.721 23.3611 198.796 22.9884 198.888 22.6177C198.978 22.2551 199.071 21.8945 199.173 21.5359C199.242 21.2969 199.272 21.2847 199.534 21.2847C201.718 21.2847 203.905 21.2847 206.09 21.2867C206.236 21.2867 206.381 21.2786 206.527 21.2867C206.692 21.2928 206.735 21.3495 206.709 21.5055C206.707 21.5217 206.701 21.5379 206.697 21.5521C206.594 21.9188 206.484 22.2834 206.39 22.6521C206.296 23.0127 206.221 23.3773 206.131 23.7399C206.041 24.1026 205.942 24.4611 205.848 24.8217C205.762 25.1499 205.672 25.4801 205.588 25.8083C205.466 26.2782 205.346 26.7502 205.23 27.2202C205.14 27.5828 205.063 27.9454 204.973 28.308C204.883 28.6686 204.782 29.0292 204.686 29.3898C204.598 29.718 204.512 30.0482 204.428 30.3784C204.312 30.8342 204.195 31.2879 204.081 31.7437C203.991 32.1064 203.912 32.469 203.822 32.8316C203.729 33.2003 203.629 33.569 203.532 33.9356C203.448 34.2577 203.361 34.5778 203.279 34.8999C203.157 35.378 203.033 35.856 202.915 36.3362C202.825 36.6988 202.747 37.0614 202.657 37.424C202.567 37.7846 202.467 38.1452 202.37 38.5057C202.282 38.8339 202.196 39.1641 202.113 39.4943C201.997 39.9501 201.879 40.4039 201.765 40.8597C201.675 41.2223 201.596 41.5849 201.504 41.9455C201.412 42.3142 201.311 42.6829 201.214 43.0495C201.131 43.3716 201.045 43.6917 200.961 44.0138C200.839 44.4919 200.717 44.972 200.597 45.4501C200.522 45.7479 200.449 46.0477 200.378 46.3475C200.333 46.5379 200.323 46.5521 200.104 46.5561C199.95 46.5602 199.795 46.5561 199.641 46.5561C198.629 46.5561 197.619 46.5561 196.607 46.5561L196.609 46.5501Z" fill="#4D4D4D"/>
<path d="M117.56 9.64872C118.111 9.6629 118.694 9.76622 119.26 9.97285C119.828 10.1795 120.338 10.4651 120.761 10.8763C121.155 11.2633 121.397 11.7272 121.507 12.2599C121.592 12.6752 121.661 13.0885 121.62 13.5119C121.53 14.4498 121.2 15.3006 120.6 16.0603C120.085 16.7105 119.433 17.1967 118.674 17.5553C117.795 17.9706 116.859 18.0982 115.879 18.0131C115.456 17.9766 115.043 17.8997 114.659 17.7457C113.893 17.4418 113.192 17.0387 112.77 16.3216C112.598 16.0299 112.489 15.7199 112.414 15.3918C112.324 14.9907 112.275 14.5916 112.315 14.1864C112.397 13.3701 112.654 12.6084 113.139 11.9196C113.643 11.2045 114.294 10.6413 115.092 10.2402C115.842 9.86345 116.651 9.67101 117.555 9.6467L117.56 9.64872Z" fill="#4D4D4D"/>
<path d="M209.25 13.2201C209.25 13.3174 209.25 13.4146 209.25 13.5118C209.254 14.0304 209.102 14.5126 208.896 14.9886C208.66 15.5336 208.33 16.0177 207.906 16.4472C207.402 16.9557 206.817 17.3466 206.141 17.6323C205.247 18.0111 204.319 18.1002 203.356 17.9928C202.488 17.8976 201.731 17.5654 201.064 17.0468C200.646 16.7227 200.372 16.3054 200.185 15.8192C199.999 15.3249 199.99 14.8205 199.99 14.312C199.992 13.2748 200.408 12.3794 201.062 11.5671C201.521 10.9958 202.106 10.5623 202.769 10.2301C203.463 9.88168 204.216 9.69733 205.003 9.65884C205.655 9.62643 206.276 9.75405 206.885 9.96676C207.38 10.1389 207.829 10.3841 208.223 10.7122C208.63 11.0485 208.901 11.4658 209.076 11.954C209.226 12.3713 209.246 12.7927 209.248 13.2201H209.25Z" fill="#4D4D4D"/>
<path d="M262 39.0689C261.97 39.3039 261.942 39.5389 261.906 39.7739C261.867 40.0231 261.822 40.2742 261.771 40.5214C261.715 40.7847 261.65 41.0481 261.586 41.3094C261.524 41.5586 261.451 41.8078 261.387 42.0569C261.322 42.3061 261.265 42.5573 261.202 42.8065C261.138 43.0597 261.072 43.3129 261.007 43.5661C260.943 43.8153 260.881 44.0665 260.816 44.3156C260.748 44.581 260.679 44.8464 260.613 45.1118C260.548 45.3609 260.486 45.6121 260.426 45.8613C260.42 45.8897 260.42 45.918 260.413 45.9444C260.371 46.1206 260.36 46.1267 260.165 46.1267C259.281 46.1267 258.398 46.1267 257.513 46.1267H257.356C257.395 45.9666 257.431 45.8248 257.465 45.683C257.532 45.4177 257.598 45.1523 257.665 44.8869C257.727 44.6377 257.791 44.3866 257.854 44.1374C257.92 43.872 257.986 43.6066 258.053 43.3413C258.115 43.0921 258.179 42.8409 258.242 42.5917C258.308 42.3304 258.374 42.0691 258.441 41.8078C258.503 41.5586 258.567 41.3074 258.628 41.0562C258.698 40.7665 258.763 40.4768 258.833 40.1871C258.917 39.8428 258.945 39.4923 258.911 39.1418C258.87 38.7428 258.707 38.3984 258.297 38.2161C258.162 38.1553 258.006 38.1168 257.858 38.1067C257.401 38.0743 256.947 38.1107 256.494 38.1837C256.288 38.2161 256.271 38.3599 256.235 38.4956C256.128 38.8967 256.027 39.2978 255.928 39.701C255.838 40.0595 255.759 40.4221 255.669 40.7807C255.579 41.1352 255.478 41.4877 255.388 41.8442C255.324 42.0974 255.27 42.3547 255.206 42.6079C255.144 42.8571 255.071 43.1063 255.006 43.3554C254.942 43.6046 254.884 43.8558 254.822 44.107C254.76 44.3562 254.695 44.6074 254.631 44.8565C254.565 45.1138 254.498 45.3711 254.434 45.6283C254.4 45.7661 254.372 45.9038 254.337 46.0396C254.316 46.1287 254.245 46.1307 254.168 46.1287C253.42 46.1287 252.674 46.1287 251.926 46.1287C251.726 46.1287 251.527 46.1287 251.314 46.1287C251.334 46.0294 251.347 45.9423 251.368 45.8593C251.432 45.6101 251.503 45.3609 251.567 45.1118C251.632 44.8586 251.69 44.6033 251.754 44.3501C251.818 44.0969 251.889 43.8436 251.953 43.5904C252.016 43.3494 252.076 43.1063 252.138 42.8632C252.206 42.5937 252.275 42.3243 252.344 42.0549C252.406 41.8098 252.466 41.5626 252.528 41.3155C252.594 41.0501 252.665 40.7847 252.734 40.5194C252.796 40.2742 252.858 40.0271 252.92 39.782C252.987 39.5207 253.053 39.2593 253.12 38.998C253.184 38.7488 253.246 38.4977 253.31 38.2485C253.377 37.9872 253.443 37.7258 253.51 37.4645C253.574 37.2153 253.636 36.9641 253.699 36.715C253.761 36.4658 253.823 36.2146 253.885 35.9654C253.954 35.696 254.02 35.4266 254.089 35.1572C254.155 34.8999 254.226 34.6426 254.292 34.3853C254.355 34.1443 254.415 33.9012 254.475 33.6581C254.543 33.3887 254.614 33.1192 254.68 32.8498C254.743 32.6006 254.805 32.3495 254.867 32.0983C254.906 31.9423 254.948 31.7863 254.987 31.6303C255.004 31.5614 255.049 31.5391 255.124 31.529C255.592 31.4642 256.059 31.3953 256.526 31.3264C256.698 31.3021 256.872 31.2758 257.043 31.2515C257.384 31.2029 257.725 31.1522 258.066 31.1036C258.076 31.1036 258.089 31.1077 258.119 31.1158C258.072 31.3021 258.027 31.4885 257.98 31.6728C257.914 31.9342 257.845 32.1955 257.776 32.4568C257.714 32.6979 257.652 32.941 257.59 33.182C257.523 33.4434 257.455 33.7047 257.386 33.966C257.324 34.2071 257.262 34.4502 257.2 34.6912C257.133 34.9526 257.065 35.2139 256.998 35.4752C256.968 35.5968 256.934 35.7163 256.908 35.8378C256.884 35.9452 256.914 35.9695 257.028 35.9533C257.661 35.8581 258.291 35.7487 258.934 35.7953C259.296 35.8216 259.65 35.8804 259.995 35.9938C260.495 36.1579 260.913 36.4273 261.243 36.8163C261.479 37.0958 261.638 37.4118 261.756 37.7522C261.88 38.1087 261.912 38.4754 261.955 38.8441C261.961 38.8947 261.981 38.9453 261.996 38.996V39.0689H262Z" fill="#2E2E2E"/>
<path d="M242.466 38.2363C242.512 38.056 242.55 37.894 242.593 37.7319C242.662 37.4625 242.732 37.1931 242.803 36.9257C242.867 36.6846 242.932 36.4435 242.996 36.2025C243.005 36.1721 243.017 36.1417 243.024 36.1093C243.058 35.9391 243.058 35.9391 243.234 35.9391C245.903 35.9391 248.57 35.9391 251.24 35.9391C251.415 35.9391 251.42 35.9513 251.377 36.1093C251.3 36.3929 251.231 36.6785 251.156 36.9621C251.085 37.2275 251.014 37.4909 250.939 37.7542C250.927 37.7967 250.892 37.8413 250.856 37.8717C248.693 39.707 246.617 41.6275 244.617 43.6188C244.593 43.6411 244.57 43.6654 244.553 43.6917C244.514 43.7545 244.538 43.795 244.61 43.8011C244.675 43.8072 244.739 43.8011 244.803 43.8011C246.332 43.8011 247.861 43.8011 249.389 43.8011C249.43 43.8011 249.471 43.8011 249.516 43.8011C249.456 44.0381 249.4 44.2549 249.344 44.4716C249.276 44.737 249.207 45.0024 249.138 45.2657C249.07 45.523 249.003 45.7803 248.928 46.0355C248.92 46.0659 248.87 46.0943 248.834 46.1064C248.8 46.1186 248.759 46.1085 248.72 46.1085C245.95 46.1085 243.178 46.1085 240.408 46.1085H240.235C240.267 45.9829 240.293 45.8735 240.32 45.7661C240.385 45.521 240.451 45.2759 240.515 45.0307C240.552 44.895 240.58 44.7552 240.625 44.6215C240.655 44.5284 240.689 44.4271 240.751 44.3541C242.584 42.2615 244.565 40.3026 246.675 38.4592C246.709 38.4288 246.75 38.4045 246.78 38.3721C246.802 38.3478 246.814 38.3153 246.832 38.287C246.799 38.2728 246.767 38.2505 246.733 38.2465C246.675 38.2404 246.613 38.2465 246.553 38.2465C245.251 38.2465 243.948 38.2465 242.647 38.2465C242.593 38.2465 242.539 38.2404 242.471 38.2384L242.466 38.2363Z" fill="#2E2E2E"/>
<path d="M234.617 44.7876C234.622 43.9935 234.993 43.4 235.73 43.0191C236.08 42.8389 236.461 42.7943 236.858 42.8247C237.239 42.8551 237.58 42.9726 237.863 43.2177C238.088 43.4121 238.2 43.6613 238.254 43.9449C238.311 44.2528 238.305 44.5587 238.228 44.8565C238.118 45.2738 237.885 45.6283 237.52 45.8917C237.023 46.2502 236.472 46.4022 235.842 46.2766C235.417 46.1935 235.061 46.0213 234.828 45.6688C234.65 45.4014 234.605 45.0996 234.615 44.7856L234.617 44.7876Z" fill="#2E2E2E"/>
<path d="M65.2493 38.8683C60.8263 55.6356 42.8514 65.8393 25.1059 61.6582C7.36464 57.479 -3.43446 40.495 0.992807 23.7298C5.41364 6.96048 23.3864 -3.2433 41.1298 0.93585C58.8753 5.115 69.6744 22.101 65.2493 38.8683Z" fill="#F7931A"/>
<path d="M47.7267 26.8394C48.387 22.6744 45.0296 20.4359 40.4415 18.9409L41.9294 13.2992L38.2954 12.4443L36.8461 17.9382C35.8899 17.7133 34.9101 17.5006 33.9346 17.2899L35.3947 11.7596L31.7628 10.9047L30.2728 16.5445C29.4816 16.3743 28.7055 16.2062 27.9508 16.0299L27.9551 16.0117L22.9426 14.8286L21.9756 18.4973C21.9756 18.4973 24.6727 19.0807 24.6149 19.1172C26.0877 19.4636 26.3536 20.3853 26.3086 21.1146L24.6127 27.5423C24.7135 27.5666 24.8464 27.6011 24.99 27.6578C24.8678 27.6294 24.7392 27.5991 24.6063 27.5687L22.2286 36.5732C22.0485 36.9966 21.5919 37.6306 20.5628 37.3896C20.5992 37.4402 17.9214 36.7656 17.9214 36.7656L16.1162 40.6977L20.8458 41.8118C21.7248 42.0205 22.5888 42.2393 23.4378 42.4439L21.9328 48.1504L25.5625 49.0053L27.0525 43.3595C28.0452 43.6148 29.0078 43.8477 29.949 44.0706L28.4654 49.69L32.0994 50.5449L33.6023 44.8484C39.8005 45.9565 44.4615 45.5109 46.4232 40.2135C48.0033 35.9493 46.3438 33.488 43.0829 31.8835C45.4584 31.367 47.2465 29.8902 47.7246 26.8414L47.7267 26.8394ZM39.421 37.8434C38.2976 42.1076 30.6973 39.8023 28.2339 39.2249L30.2299 31.6648C32.6933 32.2462 40.5938 33.3968 39.421 37.8434ZM40.5444 26.7786C39.5196 30.658 33.195 28.6869 31.1432 28.2048L32.9527 21.3475C35.0045 21.8317 41.6121 22.7332 40.5444 26.7786Z" fill="white"/>
</g>
<defs>
<clipPath id="clip0_908_726">
<rect width="262" height="64" fill="white"/>
</clipPath>
</defs>
</svg>
