<svg width="100" height="100" viewBox="0 0 100 100" fill="none" xmlns="http://www.w3.org/2000/svg">
<path d="M12.4571 93.8474H86.3512V14.2919C86.3512 8.14495 83.4684 6.01488 80.5627 6.01488H7.98828C9.00978 5.93403 10.0302 6.18418 10.8984 6.72832C11.7667 7.27246 12.4368 8.08166 12.8094 9.0362C13.0566 9.66946 13.1652 10.3486 13.1284 11.0273V43.3611" fill="#F3F3F3"/>
<path d="M74.1952 30.5344H25.8164V31.6689H74.1952V30.5344ZM74.1952 38.256H25.8164V39.3905H74.1952V38.256ZM74.1952 45.989H25.8164V47.1239H74.1952V45.989ZM74.1952 73.0557H25.8164V74.1903H74.1952V73.0557ZM74.1952 80.7887H25.8164V81.9236H74.1952V80.7887ZM74.1952 53.8496H25.8164V54.9841H74.1952V53.8496ZM43.4011 61.4328H25.8164V62.5785H43.4011V61.4328Z" fill="white"/>
<path d="M99.6409 41.486H54.1792V72.4307H99.6409V41.486Z" fill="#EFF2F4"/>
<path d="M54.2141 41.5318V72.164H99.9654V41.3353L76.6961 56.9405L54.2141 41.5318Z" fill="#F7931B"/>
<path d="M54.2141 41.5322L77.3211 24.9656L100 41.5089L54.2141 41.5322ZM59.0642 68.6449L77.2051 50.6196L96.9779 68.992L59.0642 68.6449Z" fill="#F7931B"/>
<path d="M62.5032 65.1371L77.1133 50.0755L92.1164 65.276" stroke="#231815" stroke-width="2" stroke-miterlimit="10"/>
<path d="M31.223 25.325C34.1192 25.325 36.4675 22.9768 36.4675 20.0805C36.4675 17.1843 34.1192 14.8365 31.223 14.8365C28.3268 14.8365 25.979 17.1843 25.979 20.0805C25.979 22.9768 28.3268 25.325 31.223 25.325Z" fill="#F7931B"/>
<path d="M70.6414 47.9342C71.2218 47.9342 71.7783 47.7036 72.1886 47.2933C72.599 46.8829 72.8295 46.3264 72.8295 45.7461C72.8295 45.1658 72.599 44.6092 72.1886 44.1989C71.7783 43.7885 71.2218 43.558 70.6414 43.558C70.0611 43.558 69.5046 43.7885 69.0942 44.1989C68.6839 44.6092 68.4534 45.1658 68.4534 45.7461C68.4534 46.3264 68.6839 46.8829 69.0942 47.2933C69.5046 47.7036 70.0611 47.9342 70.6414 47.9342ZM78.2705 47.9342C78.8508 47.9342 79.4074 47.7036 79.8177 47.2933C80.228 46.8829 80.4586 46.3264 80.4586 45.7461C80.4586 45.1658 80.228 44.6092 79.8177 44.1989C79.4074 43.7885 78.8508 43.558 78.2705 43.558C77.6902 43.558 77.1336 43.7885 76.7233 44.1989C76.3129 44.6092 76.0824 45.1658 76.0824 45.7461C76.0824 46.3264 76.3129 46.8829 76.7233 47.2933C77.1336 47.7036 77.6902 47.9342 78.2705 47.9342ZM85.7264 47.9342C86.3067 47.9342 86.8632 47.7036 87.2736 47.2933C87.6839 46.8829 87.9145 46.3264 87.9145 45.7461C87.9145 45.1658 87.6839 44.6092 87.2736 44.1989C86.8632 43.7885 86.3067 43.558 85.7264 43.558C85.1461 43.558 84.5895 43.7885 84.1792 44.1989C83.7688 44.6092 83.5383 45.1658 83.5383 45.7461C83.5383 46.3264 83.7688 46.8829 84.1792 47.2933C84.5895 47.7036 85.1461 47.9342 85.7264 47.9342Z" fill="white"/>
<path d="M7.58325 27.6402C7.58325 27.6402 7.65251 18.2282 7.65251 15.8319C7.65251 13.4352 8.81039 11.0043 12.1559 11.0043C15.5014 11.0043 17.2961 12.9608 17.2961 16.0168V22.9632" stroke="#1A1A1A" stroke-width="2" stroke-miterlimit="10"/>
<path d="M6 92C6 92 10.1784 71.4383 25.9998 72.3218C36.2867 72.8895 30.7828 81.5497 25.5271 77.7008C18.4807 72.5583 24.8836 62.5575 36 63.0152" stroke="#1A1A1A" stroke-width="2" stroke-miterlimit="10"/>
</svg>
