<svg width="20" height="20" viewBox="0 0 20 20" fill="none" xmlns="http://www.w3.org/2000/svg">
<path fill-rule="evenodd" clip-rule="evenodd" d="M5.32129 7.14164C5.51923 6.85886 5.90894 6.79009 6.19172 6.98803L9.99997 9.65381L13.8082 6.98803C14.091 6.79009 14.4807 6.85886 14.6787 7.14164C14.8766 7.42442 14.8078 7.81413 14.5251 8.01207L10.3584 10.9287C10.1432 11.0794 9.85676 11.0794 9.64156 10.9287L5.47489 8.01207C5.19211 7.81413 5.12334 7.42442 5.32129 7.14164Z" fill="#1A1A1A"/>
<path fill-rule="evenodd" clip-rule="evenodd" d="M3.33341 4.79163C3.05715 4.79163 2.7922 4.90137 2.59685 5.09672C2.40149 5.29207 2.29175 5.55703 2.29175 5.83329V14.1666C2.29175 14.4429 2.40149 14.7078 2.59685 14.9032C2.7922 15.0985 3.05715 15.2083 3.33341 15.2083H16.6667C16.943 15.2083 17.208 15.0985 17.4033 14.9032C17.5987 14.7078 17.7084 14.4429 17.7084 14.1666V5.83329C17.7084 5.55703 17.5987 5.29207 17.4033 5.09672C17.208 4.90137 16.943 4.79163 16.6667 4.79163H3.33341ZM1.71296 4.21284C2.14273 3.78307 2.72563 3.54163 3.33341 3.54163H16.6667C17.2745 3.54163 17.8574 3.78307 18.2872 4.21284C18.717 4.64261 18.9584 5.2255 18.9584 5.83329V14.1666C18.9584 14.7744 18.717 15.3573 18.2872 15.7871C17.8574 16.2169 17.2745 16.4583 16.6667 16.4583H3.33341C2.72563 16.4583 2.14273 16.2169 1.71296 15.7871C1.28319 15.3573 1.04175 14.7744 1.04175 14.1666V5.83329C1.04175 5.22551 1.28319 4.64261 1.71296 4.21284Z" fill="#1A1A1A"/>
</svg>
