<svg width="334" height="320" viewBox="0 0 334 320" fill="none" xmlns="http://www.w3.org/2000/svg">
<path d="M247.42 146.884C181.8 146.884 84.1593 145.501 80.1358 145.442L36.4102 137.164L251.687 134.662L299.527 146.283C291.852 146.606 276.734 146.884 247.427 146.884H247.416H247.42Z" fill="black"/>
<path d="M251.532 136.059L289.147 145.196C288.782 145.203 288.412 145.209 288.029 145.216C278.202 145.401 264.539 145.498 247.421 145.498C182.359 145.498 85.8156 144.136 80.2802 144.06L50.3704 138.397L251.532 136.059ZM251.849 133.273L22.4531 135.937L79.9945 146.828C79.9945 146.828 179.962 148.274 247.418 148.274C281.153 148.274 306.746 147.912 307.662 146.828L251.849 133.273Z" fill="black"/>
<path d="M124.165 257.611C119.423 257.611 113.965 256.954 108.182 256.259C103.399 255.686 98.4524 255.092 93.147 254.745C85.3473 254.237 79.8955 251.746 75.987 246.914C71.3991 241.238 68.6541 231.997 67.602 218.667C67.4279 216.492 67.4244 214.276 67.5916 212.077C67.7309 210.34 67.9504 208.655 68.2395 207.071C68.7865 203.903 69.6573 200.62 70.8313 197.302C74.2731 187.439 80.2543 177.056 88.6184 166.429C97.3656 155.312 106.353 146.919 112.352 141.833C120.678 134.791 126.788 127.294 130.512 119.551C130.93 118.699 131.275 117.88 131.585 117.122C132.863 113.992 133.431 111.526 133.685 109.976C144.289 113.343 155.701 115.048 167.636 115.048C190.798 115.048 209.79 108.555 215.789 106.256C215.775 107.927 215.775 109.341 215.789 110.681C215.796 111.8 215.803 112.815 215.838 113.819L215.925 115.952C216.28 122.997 217.325 130.824 220.405 149.448C221.426 155.625 221.938 161.662 221.927 167.387C221.885 184.556 217.392 197.229 211.968 210.854C208.899 218.625 206.502 227.477 204.576 234.588C203.011 240.362 201.078 247.501 199.918 248.759C198.072 248.55 192.014 248.314 181.908 247.932C168.747 247.432 152.367 246.81 143.119 246.032H143.063C141.307 245.889 139.489 245.743 137.709 245.629C134.619 245.452 131.369 245.306 128.038 245.201C124.997 245.122 122.008 245.08 119.155 245.08C118.647 245.08 118.155 245.08 117.682 245.083L117.654 247.863C121.022 247.949 125.997 248.311 130.585 249.537C134.619 250.631 136.364 252.379 136.301 253.626C136.235 254.901 134.274 256.495 130.041 257.19C128.296 257.475 126.373 257.614 124.158 257.614L124.165 257.611Z" fill="#F7931B"/>
<path d="M214.39 108.274C214.39 109.125 214.39 109.921 214.401 110.685C214.408 111.821 214.415 112.846 214.453 113.867V113.878V113.888L214.498 115L214.54 116.011V116.021V116.031C214.895 123.125 215.947 130.987 219.037 149.674C220.044 155.777 220.549 161.735 220.539 167.384C220.497 184.309 216.048 196.854 210.677 210.35C207.583 218.191 205.173 227.081 203.239 234.227C202.24 237.913 201.379 241.095 200.578 243.6C199.926 245.643 199.467 246.73 199.181 247.3C196.638 247.109 191.043 246.89 181.969 246.546C168.822 246.046 152.456 245.424 143.228 244.649L143.162 244.642C141.406 244.503 139.591 244.361 137.808 244.243H137.797H137.787C134.69 244.065 131.426 243.92 128.075 243.815C125.026 243.735 122.027 243.694 119.164 243.694C118.652 243.694 118.157 243.694 117.683 243.697L117.627 249.256C120.919 249.342 125.779 249.693 130.224 250.878C134.018 251.906 134.913 253.334 134.92 253.553C134.892 253.779 133.836 255.161 129.827 255.818C128.155 256.092 126.305 256.224 124.17 256.224C119.512 256.224 114.092 255.575 108.354 254.883C103.55 254.307 98.5863 253.709 93.2425 253.362C80.2697 252.518 71.1846 246.275 68.9969 218.556C68.8297 216.454 68.8263 214.311 68.9865 212.195C69.1224 210.5 69.3349 208.86 69.617 207.324V207.311L69.6205 207.297C70.15 204.219 71.0035 201.012 72.1565 197.757C75.5426 188.047 81.4541 177.796 89.7206 167.294C96.4892 158.692 104.85 150.028 113.259 142.903C121.731 135.736 127.96 128.086 131.767 120.172C132.206 119.28 132.561 118.435 132.878 117.657C133.84 115.305 134.418 113.315 134.763 111.772C145.078 114.875 156.121 116.448 167.641 116.448C182.425 116.448 195.384 113.822 203.657 111.619C208.221 110.404 211.872 109.195 214.394 108.281M217.208 104.192C217.208 104.192 195.673 113.659 167.641 113.659C156.626 113.659 144.608 112.196 132.499 108.125C132.499 108.125 132.44 111.373 130.301 116.601C130.001 117.338 129.67 118.123 129.262 118.953C126.455 124.793 121.222 132.515 111.458 140.777C95.9667 153.905 77.1171 175.082 69.5265 196.84C68.349 200.165 67.4468 203.51 66.8755 206.824C66.5619 208.544 66.346 210.267 66.2101 211.973C66.0359 214.255 66.0394 216.524 66.2206 218.778C68.4709 247.3 78.1901 255.168 93.0614 256.138C104.965 256.912 115.52 259.004 124.17 259.004C126.326 259.004 128.367 258.875 130.276 258.559C139.856 256.989 140.267 250.718 130.956 248.196C126.462 246.997 121.56 246.577 117.701 246.476C118.171 246.476 118.662 246.473 119.167 246.473C121.735 246.473 124.737 246.508 128.005 246.594C131.032 246.692 134.307 246.827 137.63 247.018C139.417 247.133 141.201 247.275 143.012 247.418C159.023 248.762 196.892 249.666 200.021 250.173C200.055 250.18 200.094 250.183 200.129 250.183C203.198 250.183 206.57 228.366 213.275 211.372C218.476 198.303 223.291 185.032 223.332 167.394C223.343 161.826 222.88 155.798 221.793 149.225C218.807 131.164 217.693 123.101 217.33 115.896C217.302 115.187 217.271 114.482 217.243 113.773C217.208 112.762 217.201 111.731 217.194 110.671C217.174 108.68 217.184 106.589 217.215 104.195L217.208 104.192Z" fill="black"/>
<path d="M178.444 187.891C173.936 177.973 156.588 141.392 137.783 122.545C135.808 120.555 133.837 118.46 131.91 116.316C132.966 113.568 133.46 111.39 133.69 109.98C144.294 113.346 155.706 115.052 167.641 115.052C190.803 115.052 209.796 108.559 215.794 106.259C215.784 107.774 215.78 109.08 215.794 110.31C215.575 110.699 215.449 110.911 215.446 110.914L215.408 110.977L215.376 111.043C215.108 111.633 189.504 167.968 178.444 187.891Z" fill="white"/>
<path d="M214.39 108.274C214.39 108.854 214.39 109.407 214.394 109.945C214.296 110.115 214.244 110.206 214.241 110.213L214.167 110.338L214.108 110.47C213.85 111.039 190.166 163.142 178.552 184.785C176.367 180.081 172.744 172.56 168.184 164.136C157.911 145.154 148.015 130.831 138.773 121.572C137.003 119.787 135.237 117.925 133.506 116.014C134.101 114.364 134.495 112.936 134.76 111.765C145.075 114.868 156.117 116.441 167.638 116.441C182.422 116.441 195.381 113.815 203.654 111.613C208.217 110.397 211.868 109.188 214.39 108.274ZM217.209 104.192C217.209 104.192 195.673 113.659 167.641 113.659C156.626 113.659 144.608 112.196 132.499 108.125C132.499 108.125 132.44 111.373 130.301 116.601C132.677 119.276 134.899 121.614 136.798 123.525C158.64 145.411 178.297 190.969 178.297 190.969C188.595 173.394 216.651 111.613 216.651 111.613C216.651 111.613 216.85 111.272 217.195 110.664C217.174 108.674 217.184 106.582 217.216 104.189L217.209 104.192Z" fill="black"/>
<path d="M231.494 65.384C231.4 65.1686 231.306 64.9532 231.208 64.7378C223.454 47.8195 209.565 40.2844 199.282 36.9424C196.216 35.9627 193.697 35.4277 192.105 35.1498C203.173 9.76532 210.784 5.91614 214.376 5.91614C217.379 5.91614 220.162 8.54595 222.653 13.7326C226.29 21.3129 229.017 34.1875 230.54 50.9634C231.031 56.3655 231.323 61.3854 231.498 65.377L231.494 65.384Z" fill="#F7931B"/>
<path d="M214.372 7.30922C217.385 7.30922 219.855 11.1306 221.395 14.3371C226.693 25.3844 228.864 45.1375 229.748 58.971C226.345 53.2875 221.945 48.3857 216.615 44.3559C211.627 40.5831 205.938 37.6441 199.699 35.6188C197.518 34.9205 195.603 34.4446 194.08 34.1215C197.721 25.9785 201.281 19.5273 204.691 14.9173C208.321 10.012 211.759 7.30922 214.372 7.30922ZM214.372 4.53003C206.827 4.53003 198.212 17.2518 190.105 36.265C190.105 36.265 193.694 36.6193 198.846 38.266C208.025 41.2501 222.193 48.4205 229.936 65.311C231.191 68.0868 232.281 71.1161 233.141 74.4164C233.141 74.4164 232.974 32.0475 223.906 13.1386C221.053 7.19806 217.824 4.5335 214.372 4.5335V4.53003Z" fill="black"/>
<path d="M202.324 49.4662C202.324 49.4662 207.619 20.7849 216.307 22.5115C224.995 24.2415 220.798 62.1636 220.798 62.1636L202.324 49.4662Z" fill="white"/>
<path d="M168.815 318.61C133.879 318.61 101.05 316.036 76.3687 311.367C64.434 309.109 55.0876 306.486 48.5803 303.575C42.3796 300.799 39.1016 297.898 39.1016 295.182C39.1016 292.465 42.3796 289.564 48.5803 286.789C55.0841 283.877 64.434 281.258 76.3687 278.996C101.05 274.324 133.879 271.753 168.815 271.753C203.752 271.753 236.581 274.327 261.262 278.996C273.197 281.255 282.543 283.877 289.05 286.789C295.251 289.564 298.529 292.465 298.529 295.182C298.529 297.898 295.251 300.799 289.05 303.575C282.547 306.486 273.197 309.106 261.262 311.367C236.581 316.04 203.752 318.61 168.815 318.61Z" fill="black"/>
<path d="M232.165 84.3937V84.4146C229.848 96.3894 223.379 103.949 217.743 108.861C216.297 110.108 214.921 111.192 213.684 112.123C199.9 122.424 155.477 122.479 135.9 111.036C135.9 111.036 118.569 101.906 117.562 76.2263L117.569 76.143C116.685 52.4121 135.189 33.1592 166.89 31.2659C169.192 31.127 171.575 31.054 174.031 31.1339C174.55 31.127 174.836 31.1443 174.836 31.1443C180.263 31.3111 185.356 31.8496 190.094 32.7771C217.251 38.0298 232.704 54.9794 233.049 73.7459C233.126 77.6264 232.812 81.1559 232.165 84.3902V84.3937Z" fill="white"/>
<path d="M83.7373 199.286C67.7164 178.282 67.5074 166.703 67.0127 139.516V139.248C66.7654 125.884 64.6996 115.083 60.6935 106.231C57.2274 98.5745 52.3818 92.2484 44.9827 85.7208C39.4055 80.8155 38.4998 76.2402 39.4229 73.8119C40.0813 72.0714 41.7082 71.1161 44.0038 71.1161C45.2474 71.1161 46.6304 71.3975 48.1144 71.9533C49.8353 72.6099 51.6676 73.6208 53.5522 74.9583C63.0798 81.7778 84.9914 101.597 82.5111 138.129C81.8004 148.635 82.835 158.491 85.5836 167.429C88.7431 177.705 93.2962 183.812 95.1877 186.046L83.7338 199.289L83.7373 199.286Z" fill="#F7931B"/>
<path d="M44.0001 69.723V72.5022C45.073 72.5022 46.2853 72.7523 47.6091 73.2491C49.2254 73.8675 50.9533 74.8228 52.7299 76.0804C58.6032 80.284 66.908 87.7044 73.1191 99.1999C79.3861 110.793 82.0789 123.858 81.1174 138.036C80.3963 148.711 81.4483 158.737 84.2491 167.839C87.1091 177.139 91.1187 183.149 93.3691 186.018L83.8067 197.076C69.0852 177.281 68.8762 165.755 68.3989 139.495V139.227C68.1481 125.668 66.044 114.69 61.9578 105.665C58.4534 97.9249 53.3534 91.2583 45.8986 84.682C41.1784 80.5306 39.8965 76.4799 40.7221 74.3087C41.2864 72.8218 42.8157 72.5092 44.0001 72.5092V69.73M44.0001 69.723C36.5139 69.723 34.7303 78.5574 44.0558 86.7595C56.7882 97.9979 65.107 111.467 65.6086 139.272C66.1137 167.05 66.2809 179.185 83.6708 201.485L97.0407 186.025C97.0407 186.025 90.8505 179.828 86.914 167.019C84.6428 159.637 83.0961 150.063 83.8973 138.22C86.0989 105.78 69.343 84.55 54.3532 73.8223C52.277 72.3528 50.3471 71.3176 48.5984 70.6506C46.8984 70.0148 45.3552 69.723 44.0001 69.723Z" fill="black"/>
<path d="M232.061 255.106C228.229 255.738 223.913 255.634 219.14 255.196C211.95 254.602 203.774 253.265 194.842 252.681C179.971 251.712 170.252 243.847 168.002 215.322C167.88 212.921 167.904 210.653 167.991 208.516C168.312 202.489 169.472 197.5 171.308 193.383C176.401 181.971 186.816 177.306 199.047 175.76C210.64 174.297 219.732 177.459 225.449 186.276C228.71 191.278 230.869 198.07 231.782 206.873C233.914 227.171 219.381 238.778 214.138 242.089C213.267 242.662 212.636 242.999 212.407 243.086L214.936 243.048L219.485 243.016C223.345 243.117 228.246 243.537 232.74 244.736C242.052 247.258 241.641 253.532 232.061 255.099V255.106Z" fill="#BE8E5F"/>
<path d="M218.816 198.421C213.709 218.744 203.52 240.928 203.52 240.928" stroke="#683F21" stroke-width="4.75" stroke-miterlimit="10" stroke-linecap="round"/>
<path d="M220.278 157.073C226.19 189.34 202.484 185.779 193.73 199.411C184.976 213.043 199.488 238.087 203.522 240.932C207.556 243.777 214.712 246.546 211.273 252.917C207.835 259.288 188.23 255.561 184.652 252.938C181.074 250.315 155.251 217.562 163.145 176.764" stroke="#683F21" stroke-width="4.75" stroke-miterlimit="10" stroke-linecap="round"/>
<path d="M195.503 156.517C195.503 156.517 191.006 171.261 170.69 205.653C170.69 205.653 173.79 225.65 179.779 239.383C179.779 239.383 191.863 245.917 186.756 251.316C181.646 256.718 166.517 255.884 158.348 249.464C150.179 243.048 139.185 204.031 133.785 184.744" stroke="#683F21" stroke-width="4.75" stroke-miterlimit="10" stroke-linecap="round"/>
<path d="M130.272 258.555C120.692 260.122 107.929 257.1 93.0573 256.131C78.186 255.161 68.4669 247.296 66.2165 218.771C66.0946 216.371 66.119 214.102 66.2061 211.966C66.5265 205.938 67.6866 200.95 69.5224 196.833C74.6154 185.421 85.0312 180.755 97.262 179.209C102.536 178.546 107.95 178.872 113.011 180.286L113.036 180.314C125.399 183.715 135.748 193.512 137.546 210.816C140.037 234.54 112.227 245.886 110.618 246.535L117.697 246.466C121.556 246.567 126.458 246.987 130.951 248.186C133.212 248.787 134.902 249.627 136.003 250.555C139.528 253.456 137.528 257.357 130.272 258.549V258.555Z" fill="#BE8E5F"/>
<path d="M134.894 199.119C143.826 226.782 121.737 245.903 110.617 246.542" stroke="#683F21" stroke-width="4.75" stroke-miterlimit="10" stroke-linecap="round"/>
<path d="M120.75 58.1721C121.443 54.2326 122.387 49.2995 123.578 44.0017C127.278 27.5627 131.66 15.1536 136.255 8.10835C139.167 3.64774 142.045 1.38965 144.807 1.38965C151.011 1.38965 157.884 12.9928 163.747 33.3087C162.12 33.3782 159.556 33.5797 156.404 34.1529C145.765 36.1331 131.012 41.8026 121.119 57.5641C120.993 57.7656 120.868 57.9706 120.746 58.1756L120.75 58.1721Z" fill="#F7931B"/>
<path d="M144.809 2.7792C147.408 2.7792 150.512 5.68693 153.546 10.9709C156.451 16.029 159.266 23.1021 161.924 32.0267C160.37 32.1483 158.406 32.3741 156.145 32.7841C149.707 33.9826 143.684 36.1573 138.246 39.2527C132.439 42.5564 127.437 46.8433 123.319 52.0404C126.002 38.4397 130.729 19.1348 137.424 8.86563C139.236 6.08644 141.991 2.77572 144.809 2.77572M144.806 0C141.65 0 138.389 2.28936 135.083 7.35097C123.626 24.9224 117.934 66.9091 117.934 66.9091C119.216 63.7478 120.696 60.8887 122.298 58.2971C132.178 42.5564 147.161 37.2829 156.65 35.5146C160.945 34.7365 164.122 34.66 165.188 34.66C165.442 34.66 165.578 34.6635 165.578 34.6635C159.816 14.0106 152.619 0 144.806 0Z" fill="black"/>
<path d="M125.957 58.8703C125.957 58.8703 134.038 20.6424 140.741 17.5575C147.447 14.4691 152.188 42.4348 152.188 42.4348L125.953 58.8703H125.957Z" fill="white"/>
<path d="M168.067 67.5518C162.81 89.0315 132.413 91.967 117.569 76.1395C116.685 52.4226 135.189 33.1627 166.879 31.2694C169.035 37.8005 172.08 51.165 168.067 67.5518Z" fill="#F7931B"/>
<path d="M154.316 65.7454C154.159 65.7454 154.003 65.7245 153.839 65.6828C152.191 65.259 151.885 62.9419 152.121 61.0833C152.445 58.5438 153.936 55.7993 155.783 55.7993C155.967 55.7993 156.162 55.8271 156.361 55.8792C157.942 56.303 158.225 58.5577 157.984 60.3572C157.639 62.9592 156.082 65.7454 154.316 65.7454Z" fill="#F7931B"/>
<path d="M155.784 54.4097C150.739 54.4097 148.426 65.7245 153.491 67.0272C153.774 67.1002 154.049 67.1349 154.317 67.1349C159.17 67.1349 161.758 55.8931 156.724 54.5382C156.4 54.4514 156.087 54.4097 155.784 54.4097Z" fill="black"/>
<path d="M199.39 68.7191C197.54 68.6878 196.561 66.0198 196.582 63.5255C196.6 61.1528 197.512 58.5994 199.47 58.5994H199.54C201.327 58.648 202.254 61.2709 202.222 63.7166C202.187 66.2005 201.219 68.7191 199.428 68.7191H199.394H199.39Z" fill="#F7931B"/>
<path d="M199.469 57.2097C193.697 57.2097 193.857 70.0183 199.368 70.1087C199.389 70.1087 199.407 70.1087 199.424 70.1087C204.911 70.1087 205.057 57.3591 199.574 57.2097C199.539 57.2097 199.504 57.2097 199.469 57.2097Z" fill="black"/>
<path fill-rule="evenodd" clip-rule="evenodd" d="M140.625 70.5002C140.625 70.5002 140.625 70.5002 140.625 70.5002L140.62 70.5007L140.601 70.5024C140.584 70.5039 140.558 70.5063 140.522 70.5096C140.452 70.5161 140.345 70.5262 140.204 70.5403C139.921 70.5683 139.499 70.6121 138.951 70.6744C137.853 70.799 136.245 70.9978 134.215 71.2935C130.154 71.885 124.405 72.8642 117.664 74.4132C104.173 77.5138 86.7647 82.8859 70.9851 91.9676C70.4019 92.3032 69.6563 92.1038 69.3197 91.5222C68.9831 90.9406 69.183 90.197 69.7663 89.8614C85.8333 80.6142 103.498 75.1735 117.117 72.0435C123.932 70.4772 129.748 69.4866 133.863 68.8872C135.92 68.5875 137.554 68.3855 138.675 68.2582C139.235 68.1946 139.668 68.1496 139.962 68.1204C140.109 68.1058 140.221 68.0952 140.297 68.0882C140.335 68.0846 140.364 68.082 140.384 68.0803L140.407 68.0782L140.415 68.0775C140.415 68.0775 140.416 68.0775 140.521 69.2888L140.416 68.0775C141.087 68.0197 141.677 68.5152 141.735 69.1843C141.793 69.8533 141.296 70.4425 140.625 70.5002Z" fill="black"/>
<path fill-rule="evenodd" clip-rule="evenodd" d="M132.886 76.1874C133.507 75.9299 134.221 76.2239 134.479 76.8441C134.737 77.4643 134.443 78.1758 133.821 78.4333L133.353 77.3103L132.886 76.1874ZM132.885 76.1877C132.885 76.1875 132.886 76.1874 133.353 77.3103C133.821 78.4333 133.821 78.4332 133.821 78.4333L133.798 78.4426L133.728 78.4721C133.665 78.4984 133.57 78.538 133.446 78.5906C133.197 78.6958 132.829 78.8528 132.351 79.0593C131.396 79.4724 130.006 80.0831 128.271 80.8719C124.801 82.4496 119.954 84.7384 114.451 87.5809C103.428 93.274 89.8352 101.156 79.3893 109.963C78.8751 110.397 78.1058 110.333 77.671 109.82C77.2363 109.307 77.3007 108.54 77.8149 108.106C88.4689 99.1235 102.252 91.1431 113.329 85.4215C118.876 82.5567 123.761 80.2501 127.26 78.6592C129.009 77.8636 130.413 77.2468 131.381 76.8283C131.865 76.619 132.24 76.4594 132.494 76.3517C132.621 76.2979 132.719 76.2571 132.784 76.2296L132.859 76.1984L132.884 76.1882L132.885 76.1877Z" fill="black"/>
<path fill-rule="evenodd" clip-rule="evenodd" d="M207.566 78.6659C207.791 78.0328 208.488 77.7013 209.122 77.9254L208.716 79.0716C209.122 77.9254 209.123 77.9255 209.123 77.9257L209.131 77.9283L209.153 77.936C209.171 77.9427 209.199 77.9525 209.235 77.9655C209.307 77.9914 209.412 78.0298 209.551 78.0807C209.828 78.1826 210.235 78.3346 210.762 78.5367C211.815 78.941 213.345 79.5459 215.261 80.3518C219.093 81.9635 224.473 84.3802 230.674 87.6047C243.068 94.0483 258.794 103.743 272.014 116.721C272.494 117.192 272.5 117.962 272.027 118.441C271.555 118.919 270.783 118.925 270.303 118.454C257.32 105.708 241.824 96.1442 229.547 89.761C223.414 86.572 218.096 84.1831 214.314 82.5925C212.423 81.7973 210.917 81.2019 209.886 80.8062C209.371 80.6083 208.974 80.4604 208.707 80.3623C208.574 80.3133 208.473 80.2767 208.406 80.2526C208.373 80.2406 208.348 80.2317 208.332 80.2259L208.314 80.2195L208.309 80.2178C208.309 80.2178 208.309 80.2178 208.309 80.2178C207.674 79.9937 207.342 79.2989 207.566 78.6659Z" fill="black"/>
<path fill-rule="evenodd" clip-rule="evenodd" d="M212.653 87.8985C213.059 87.3629 213.824 87.2571 214.361 87.6623L213.626 88.632L212.89 89.6017C212.353 89.1966 212.247 88.434 212.653 87.8985ZM213.626 88.632C212.89 89.6017 212.89 89.6016 212.89 89.6017L212.909 89.6163L212.97 89.6626C213.025 89.7038 213.106 89.7658 213.213 89.8479C213.427 90.012 213.745 90.2564 214.155 90.576C214.975 91.2152 216.167 92.1547 217.647 93.3529C220.608 95.7497 224.723 99.18 229.333 103.311C238.568 111.584 249.738 122.621 257.63 133.766C258.019 134.314 258.779 134.445 259.329 134.058C259.88 133.67 260.011 132.912 259.622 132.363C251.573 120.996 240.244 109.817 230.963 101.502C226.316 97.3386 222.169 93.8816 219.184 91.4648C217.691 90.2562 216.487 89.3073 215.656 88.6597C215.24 88.3359 214.918 88.0874 214.699 87.9195C214.589 87.8355 214.505 87.7716 214.449 87.7285L214.384 87.6796L214.362 87.6627C214.361 87.6624 214.361 87.6623 213.626 88.632Z" fill="black"/>
<path d="M179.493 80.2668C179.374 80.2668 179.256 80.2633 179.131 80.2564C177.361 80.1417 176.291 79.2697 175.678 78.2414C175.539 78.4533 175.375 78.6548 175.184 78.839C174.438 79.5616 173.435 79.8846 172.198 79.8047C168.805 79.5824 167.983 76.5774 168.025 75.0176C168.035 74.6042 168.373 74.2637 168.795 74.2915C169.206 74.3019 169.533 74.6424 169.523 75.0558C169.516 75.3719 169.547 78.1372 172.296 78.3144C173.097 78.363 173.7 78.1893 174.135 77.7724C174.971 76.97 174.947 75.5248 174.943 75.5109C174.936 75.3024 175.02 75.0975 175.173 74.9516C175.323 74.8057 175.529 74.7327 175.741 74.7431C176.145 74.7674 176.466 75.1079 176.455 75.5109C176.448 75.8235 176.48 78.5888 179.228 78.7695C180.033 78.8216 180.639 78.6444 181.074 78.2206C181.903 77.4216 181.879 75.9799 181.879 75.966C181.865 75.5526 182.189 75.2086 182.604 75.1947C183.011 75.1913 183.363 75.5039 183.377 75.9173C183.377 76.0042 183.429 78.026 182.116 79.2941C181.444 79.9437 180.562 80.2702 179.493 80.2702V80.2668Z" fill="black"/>
<path d="M168.753 74.2844C168.356 74.2844 168.039 74.6145 168.029 75.014C167.987 76.5738 168.809 79.5788 172.202 79.8011C172.328 79.8081 172.449 79.815 172.568 79.815C173.637 79.815 174.515 79.485 175.188 78.8388C175.379 78.6512 175.543 78.4497 175.682 78.2413C176.295 79.2696 177.365 80.1416 179.134 80.2562C179.256 80.2632 179.378 80.2666 179.497 80.2666C180.566 80.2666 181.447 79.9401 182.12 79.2905C183.433 78.0224 183.384 76.0006 183.381 75.9137C183.367 75.5038 183.019 75.1911 182.615 75.1911H182.608C182.193 75.205 181.869 75.549 181.883 75.9624C181.883 75.9763 181.907 77.418 181.078 78.217C180.692 78.5922 180.173 78.7728 179.493 78.7728C179.41 78.7728 179.323 78.7728 179.232 78.7659C176.483 78.5852 176.452 75.8199 176.459 75.5073C176.47 75.1043 176.149 74.7673 175.745 74.7395C175.731 74.7395 175.717 74.7395 175.707 74.7395C175.512 74.7395 175.32 74.8125 175.181 74.9514C175.031 75.0973 174.947 75.2988 174.951 75.5107C174.951 75.5246 174.979 76.9698 174.142 77.7723C173.756 78.144 173.237 78.3247 172.561 78.3247C172.477 78.3247 172.39 78.3247 172.3 78.3177C169.551 78.1371 169.52 75.3718 169.527 75.0591C169.537 74.6492 169.21 74.3053 168.799 74.2948C168.785 74.2948 168.771 74.2948 168.753 74.2948V74.2844Z" fill="black" stroke="black"/>
<path d="M175.711 76.2333C175.711 76.2333 175.68 76.2333 175.662 76.2333C175.248 76.2055 174.938 75.8512 174.962 75.4378L175.502 67.2183C175.53 66.8084 175.885 66.4922 176.3 66.52C176.715 66.5478 177.025 66.9022 177 67.3156L176.46 75.535C176.436 75.9311 176.105 76.2333 175.715 76.2333H175.711Z" fill="black"/>
<path d="M176.244 66.5204C175.851 66.5204 175.523 66.8261 175.499 67.2187L174.959 75.4381C174.931 75.8515 175.244 76.2059 175.659 76.2337C175.676 76.2337 175.694 76.2337 175.708 76.2337C176.098 76.2337 176.429 75.9314 176.453 75.5354L176.993 67.3159C177.021 66.9025 176.707 66.5482 176.293 66.5204C176.276 66.5204 176.258 66.5204 176.241 66.5204H176.244Z" fill="black" stroke="black"/>
<path d="M176.663 65.8877C175.155 65.8877 173.761 65.4014 173.026 64.6197C172.601 64.1681 172.413 63.6366 172.455 62.9939C172.542 61.6773 174.549 60.9651 176.395 60.9651C177.959 60.9651 179.363 61.4271 180.063 62.174C180.422 62.5562 180.572 62.9835 180.537 63.5185C180.415 65.3875 178.043 65.8843 176.66 65.8843L176.663 65.8877Z" fill="black"/>
<path d="M176.397 62.3582C177.724 62.3582 178.703 62.7577 179.048 63.1259C179.128 63.2128 179.16 63.2614 179.149 63.4316C179.107 64.0917 177.825 64.4982 176.662 64.4982C175.39 64.4982 174.429 64.0813 174.042 63.6713C173.903 63.5254 173.826 63.383 173.844 63.0877C173.986 62.8619 174.889 62.3582 176.394 62.3582M176.397 59.579C173.788 59.579 171.21 60.7011 171.067 62.9036C170.879 65.794 173.802 67.2774 176.665 67.2774C179.243 67.2774 181.772 66.0753 181.932 63.6123C182.11 60.906 179.236 59.579 176.397 59.579Z" fill="black"/>
<path d="M69.0061 288.71L24.4375 137.73L79.8644 148.221H305.822L263.312 298.479L111.324 302.891L69.0061 288.71Z" fill="#DDDDDD"/>
<ellipse cx="190.686" cy="222.928" rx="23.6857" ry="23.6385" fill="#F7931B"/>
<path fill-rule="evenodd" clip-rule="evenodd" d="M185.394 209.076C184.473 209.076 183.728 209.82 183.728 210.739V213.139H182.952C182.03 213.139 181.285 213.882 181.285 214.802C181.285 215.722 182.03 216.466 182.952 216.466H183.728V229.39H182.952C182.03 229.39 181.285 230.133 181.285 231.053C181.285 231.973 182.03 232.717 182.952 232.717H183.728V235.116C183.728 236.036 184.473 236.779 185.394 236.779C186.316 236.779 187.061 236.036 187.061 235.116V232.717H189.427V235.116C189.427 236.036 190.172 236.779 191.094 236.779C192.015 236.779 192.76 236.036 192.76 235.116V232.717H194.35C197.515 232.717 200.088 230.149 200.088 226.991C200.088 224.709 198.744 222.746 196.811 221.825C197.338 220.963 197.645 219.95 197.645 218.865C197.645 215.996 195.52 213.618 192.76 213.207V210.739C192.76 209.82 192.015 209.076 191.094 209.076C190.172 209.076 189.427 209.82 189.427 210.739V213.139H187.061V210.739C187.061 209.82 186.316 209.076 185.394 209.076ZM187.061 221.265V216.466H191.908C193.233 216.466 194.312 217.542 194.312 218.865C194.312 220.188 193.233 221.265 191.908 221.265H187.061ZM187.061 229.39V224.591H194.35C195.676 224.591 196.755 225.668 196.755 226.991C196.755 228.313 195.676 229.39 194.35 229.39H187.061Z" fill="white"/>
<path fill-rule="evenodd" clip-rule="evenodd" d="M271.93 268.081H103.137V265.302L272.739 265.302L271.93 268.081Z" fill="black"/>
<path fill-rule="evenodd" clip-rule="evenodd" d="M268.516 284.478H106.926V281.699H268.516V284.478Z" fill="black"/>
<path d="M2.30469 168.082L23.0946 137.473L78.1801 147.902L66.956 182.232L2.30469 168.082Z" fill="white"/>
<path d="M23.7335 139.008L76.3631 148.972L66.0239 180.606L4.61223 167.165L23.7335 139.012M22.455 135.937L0 168.999L67.8911 183.858L79.9929 146.828L22.4515 135.937H22.455Z" fill="black"/>
<path d="M108.671 185.609L82.6562 148.221H306.907L331.424 185.609H108.671Z" fill="white"/>
<path d="M306.156 149.611L328.847 184.219H109.404L85.3225 149.611H306.156ZM307.664 146.832H79.9961L107.945 186.998H334L307.664 146.832Z" fill="black"/>
<path d="M246.814 162.107C246.706 162.107 246.598 162.107 246.49 162.097C244.434 161.985 242.428 158.543 240.491 155.211C238.446 151.702 236.349 148.096 233.43 146.773C235.161 145.216 237.725 144.261 240.362 144.261C240.547 144.261 240.731 144.265 240.912 144.275C244.73 144.473 251.37 145.477 252.948 149.941C254.132 153.297 253.798 156.774 252.046 159.237C250.753 161.058 248.848 162.104 246.817 162.104L246.814 162.107Z" fill="white"/>
<path d="M240.361 145.654C240.522 145.654 240.682 145.658 240.839 145.668C243.633 145.814 250.276 146.568 251.631 150.407C252.665 153.339 252.394 156.344 250.906 158.438C249.879 159.887 248.388 160.717 246.813 160.717C246.729 160.717 246.646 160.717 246.562 160.71C245.259 160.641 243.026 156.806 241.692 154.516C240.048 151.692 238.268 148.635 235.934 146.735C237.237 146.054 238.797 145.654 240.358 145.654M240.361 142.875C236.732 142.875 233.151 144.504 231.262 147.11C231.026 147.44 230.914 147.641 230.914 147.641C230.949 147.641 230.984 147.641 231.019 147.641C237.655 147.641 240.567 163.174 246.412 163.486C246.548 163.493 246.681 163.497 246.813 163.497C252.502 163.497 256.901 156.966 254.261 149.483C252.435 144.313 245.378 143.122 240.985 142.892C240.776 142.882 240.57 142.875 240.361 142.875Z" fill="black"/>
<path d="M139.942 161.888C139.834 161.888 139.726 161.888 139.618 161.878C137.563 161.767 135.557 158.324 133.62 154.992C131.575 151.48 129.478 147.878 126.559 146.554C128.29 144.998 130.854 144.042 133.491 144.042C133.676 144.042 133.86 144.046 134.041 144.056C137.859 144.254 144.499 145.258 146.077 149.722C147.261 153.078 146.927 156.556 145.175 159.019C143.882 160.839 141.977 161.885 139.946 161.885L139.942 161.888Z" fill="white"/>
<path d="M133.49 142.656V145.435C133.65 145.435 133.81 145.439 133.967 145.449C136.761 145.595 143.404 146.349 144.759 150.188C145.794 153.12 145.522 156.125 144.035 158.223C143.007 159.672 141.516 160.502 139.941 160.502C139.858 160.502 139.774 160.502 139.691 160.495C138.388 160.426 136.155 156.59 134.821 154.301C133.176 151.477 131.396 148.419 129.062 146.519C130.365 145.838 131.926 145.439 133.486 145.439V142.66M133.486 142.656C129.86 142.656 126.276 144.285 124.387 146.891C124.151 147.221 124.039 147.422 124.039 147.422C124.074 147.422 124.109 147.422 124.144 147.422C130.78 147.422 133.692 162.955 139.537 163.267C139.673 163.274 139.806 163.278 139.938 163.278C145.627 163.278 150.026 156.747 147.386 149.264C145.56 144.094 138.503 142.903 134.11 142.673C133.901 142.663 133.695 142.656 133.486 142.656Z" fill="black"/>
<path fill-rule="evenodd" clip-rule="evenodd" d="M173.984 32.5228C171.585 32.4448 169.248 32.5158 166.973 32.6531L166.972 32.6531C151.383 33.5841 139.164 38.7741 130.968 46.5238C122.783 54.2629 118.533 64.6216 118.961 76.0914L118.964 76.175L118.957 76.2565C119.464 88.7204 123.911 97.1146 128.191 102.387C130.341 105.035 132.456 106.905 134.024 108.106C134.808 108.707 135.453 109.14 135.896 109.419C136.118 109.558 136.288 109.659 136.4 109.723C136.456 109.755 136.497 109.778 136.522 109.792C136.535 109.799 136.543 109.804 136.548 109.806L136.55 109.807L136.552 109.808L136.552 109.808L136.577 109.821L136.603 109.837C146.082 115.377 161.793 118.216 176.975 118.344C184.537 118.408 191.897 117.798 198.195 116.545C204.526 115.286 209.646 113.403 212.846 111.012C214.063 110.096 215.412 109.033 216.827 107.812C222.298 103.044 228.51 95.7769 230.77 84.2808V84.2529L230.797 84.1181C231.424 80.9907 231.73 77.5621 231.655 73.7733L231.655 73.7715C231.326 55.8619 216.561 39.3119 189.827 34.1414L189.824 34.1407C185.171 33.2297 180.154 32.6981 174.792 32.5333L174.771 32.5327L174.752 32.5316L174.752 32.5315L174.75 32.5315L174.75 32.5314L174.748 32.5314C174.743 32.5311 174.734 32.5307 174.721 32.5301C174.694 32.5289 174.651 32.5272 174.591 32.5257C174.472 32.5227 174.289 32.5202 174.048 32.5235L174.016 32.5239L173.984 32.5228ZM174.894 29.756C180.379 29.9253 185.542 30.4703 190.359 31.4133C217.94 36.7482 234.08 54.0963 234.441 73.7186C234.519 77.637 234.208 81.223 233.557 84.5266V84.5474L233.532 84.6779C231.137 97.0546 224.44 104.869 218.658 109.907L218.656 109.91L218.653 109.912C217.179 111.184 215.778 112.287 214.523 113.232L214.521 113.234L214.519 113.235C210.827 115.994 205.225 117.981 198.74 119.271C192.22 120.568 184.666 121.188 176.952 121.123C161.593 120.993 145.317 118.142 135.216 112.248C135.205 112.242 135.192 112.234 135.176 112.226C135.136 112.203 135.079 112.172 135.008 112.131C134.865 112.049 134.662 111.928 134.408 111.768C133.899 111.448 133.183 110.967 132.326 110.31C130.613 108.997 128.333 106.979 126.025 104.135C121.397 98.4346 116.685 89.4501 116.169 76.2807L116.166 76.1958L116.173 76.1104C115.74 63.8827 120.299 52.7815 129.05 44.507C137.81 36.2244 150.693 30.8414 166.804 29.8789C169.125 29.7389 171.543 29.664 174.044 29.7441C174.307 29.741 174.515 29.7437 174.662 29.7474C174.739 29.7494 174.799 29.7516 174.843 29.7535C174.864 29.7545 174.881 29.7553 174.894 29.756Z" fill="black"/>
<path fill-rule="evenodd" clip-rule="evenodd" d="M109.754 304.575L78.8242 147.027L81.5507 146.451L112.48 303.999L109.754 304.575Z" fill="black"/>
</svg>
