<svg width="18" height="18" viewBox="0 0 18 18" fill="none" xmlns="http://www.w3.org/2000/svg">
<path fill-rule="evenodd" clip-rule="evenodd" d="M3.01068 3.01068C4.37813 1.64323 6.2328 0.875 8.16667 0.875C10.1005 0.875 11.9552 1.64323 13.3227 3.01068C14.6901 4.37813 15.4583 6.2328 15.4583 8.16667C15.4583 9.8911 14.8475 11.5526 13.7456 12.8618L16.9419 16.0581C17.186 16.3021 17.186 16.6979 16.9419 16.9419C16.6979 17.186 16.3021 17.186 16.0581 16.9419L12.8618 13.7456C11.5526 14.8475 9.8911 15.4583 8.16667 15.4583C6.2328 15.4583 4.37813 14.6901 3.01068 13.3227C1.64323 11.9552 0.875 10.1005 0.875 8.16667C0.875 6.2328 1.64323 4.37813 3.01068 3.01068ZM8.16667 2.125C6.56432 2.125 5.0276 2.76153 3.89456 3.89456C2.76153 5.0276 2.125 6.56432 2.125 8.16667C2.125 9.76902 2.76153 11.3057 3.89456 12.4388C5.0276 13.5718 6.56432 14.2083 8.16667 14.2083C9.76902 14.2083 11.3057 13.5718 12.4388 12.4388C13.5718 11.3057 14.2083 9.76902 14.2083 8.16667C14.2083 6.56432 13.5718 5.0276 12.4388 3.89456C11.3057 2.76153 9.76902 2.125 8.16667 2.125Z" fill="#1C1C1C"/>
</svg>
