<svg width="18" height="18" viewBox="0 0 18 18" fill="none" xmlns="http://www.w3.org/2000/svg">
<path d="M13.558 1.79274L12.1553 3.19871C11.8038 3.55021 11.6053 4.02538 11.6053 4.52333C11.6053 5.55828 12.445 6.3947 13.4767 6.3947C13.9746 6.3947 14.4498 6.19618 14.8013 5.84468L16.2072 4.44196L13.558 1.79274ZM12.969 0.910749C13.1252 0.75453 13.3367 0.666656 13.558 0.666656C13.7793 0.666656 13.9909 0.75453 14.1471 0.910749L17.086 3.84963C17.2422 4.00585 17.3301 4.2174 17.3301 4.43871C17.3301 4.66002 17.2422 4.87156 17.086 5.02778L15.5368 6.57696C14.99 7.12373 14.248 7.42966 13.4767 7.42966C12.8615 7.42966 12.2887 7.23764 11.8168 6.91218L8.32793 10.4076L10.349 12.4287C10.7558 12.8355 10.7558 13.4962 10.349 13.903L8.4451 15.8069C7.46872 16.7833 6.14411 17.3333 4.76417 17.3333H1.71139C1.13533 17.3333 0.669922 16.8679 0.669922 16.2919V13.2391C0.669922 11.8591 1.21994 10.5345 2.19632 9.55815L4.10024 7.65422C4.50706 7.2474 5.16774 7.2474 5.57456 7.65422L7.59565 9.67531L11.0813 6.1799C10.7558 5.70799 10.5638 5.13844 10.5638 4.52007C10.5638 3.74874 10.8698 3.00669 11.4165 2.45993L12.969 0.910749ZM1.71139 16.2886H4.76092C5.86422 16.2886 6.92521 15.8492 7.70631 15.0681L9.61023 13.1642L4.83577 8.38976L2.93185 10.2937C2.15075 11.0748 1.71139 12.1358 1.71139 13.2391V16.2886Z" fill="black"/>
</svg>
