<svg width="32" height="32" viewBox="0 0 32 32" fill="none" xmlns="http://www.w3.org/2000/svg">
<path fill-rule="evenodd" clip-rule="evenodd" d="M7.54873 3.73921C8.02204 3.2659 8.66398 3 9.33333 3H26.4762C27.1455 3 27.7875 3.2659 28.2608 3.73921C28.7341 4.21251 29 4.85445 29 5.52381V26.4762C29 27.1455 28.7341 27.7875 28.2608 28.2608C27.7875 28.7341 27.1455 29 26.4762 29H5.52381C4.85445 29 4.21251 28.7341 3.73921 28.2608C3.2659 27.7875 3 27.1455 3 26.4762V16C3 15.8358 3.06522 15.6784 3.18131 15.5623C3.29741 15.4462 3.45487 15.381 3.61905 15.381H6.80952V5.52381C6.80952 4.85445 7.07542 4.21251 7.54873 3.73921ZM8.11435 7.80308L8.04762 5.52381C8.04762 5.18282 8.18308 4.85579 8.4242 4.61467C8.66531 4.37355 8.99234 4.2381 9.33333 4.2381H26.4762C26.8172 4.2381 27.1442 4.37355 27.3853 4.61467C27.6264 4.85579 27.7619 5.18282 27.7619 5.52381V26.4762C27.7619 26.8172 27.6264 27.1442 27.3853 27.3853C27.1442 27.6264 26.8172 27.7619 26.4762 27.7619H7.74666L7.94986 27.3853L7.94971 27.3878L7.95659 27.3684C7.95412 27.374 7.95187 27.3796 7.94986 27.3853L8.11435 24.649V7.80308ZM6.80952 16.619H4.2381V26.4762C4.2381 26.8172 4.37355 27.1442 4.61467 27.3853C4.85579 27.6264 5.18282 27.7619 5.52381 27.7619C5.8648 27.7619 6.19183 27.6264 6.43295 27.3853C6.67406 27.1442 6.80952 26.8172 6.80952 26.4762V16.619Z" fill="black"/>
<path fill-rule="evenodd" clip-rule="evenodd" d="M13.4763 7.76171V6.80933H14.7144V7.76319L15.0492 7.7617C15.537 7.75954 16.0149 7.89952 16.4245 8.16452C16.8341 8.42953 17.1577 8.8081 17.3557 9.25397C17.5536 9.69985 17.6174 10.1937 17.5393 10.6753C17.4612 11.1568 17.2445 11.6052 16.9157 11.9656L16.7108 12.1903L16.9157 12.4149C17.2445 12.7753 17.4612 13.2237 17.5393 13.7053C17.6174 14.1868 17.5536 14.6807 17.3557 15.1266C17.1577 15.5725 16.8341 15.951 16.4245 16.216C16.0149 16.481 15.537 16.621 15.0492 16.6189L14.7144 16.6174V17.5712H13.4763V16.6188H10.6191V15.3808H11.5715V8.9998H10.6191V7.76171H13.4763ZM15.0477 8.9998H12.8096V11.5712H15.0477C15.3887 11.5712 15.7157 11.4358 15.9568 11.1947C16.198 10.9535 16.3334 10.6265 16.3334 10.2855C16.3334 9.94452 16.198 9.6175 15.9568 9.37638C15.7157 9.13526 15.3887 8.9998 15.0477 8.9998ZM15.0477 12.8093H12.8096V15.3808H15.0477C15.3887 15.3808 15.7157 15.2453 15.9568 15.0042C16.198 14.7631 16.3334 14.436 16.3334 14.095C16.3334 13.754 16.198 13.427 15.9568 13.1859C15.7157 12.9448 15.3887 12.8093 15.0477 12.8093Z" fill="#F7931B"/>
<path fill-rule="evenodd" clip-rule="evenodd" d="M20.1426 8.99994V7.76184H25.1902V8.99994H20.1426Z" fill="black"/>
<path fill-rule="evenodd" clip-rule="evenodd" d="M20.1426 12.8095V11.5714H25.1902V12.8095H20.1426Z" fill="black"/>
<path fill-rule="evenodd" clip-rule="evenodd" d="M20.1426 16.6191V15.381H25.1902V16.6191H20.1426Z" fill="black"/>
<path fill-rule="evenodd" clip-rule="evenodd" d="M10.6191 25.1904V23.9523H25.1906V25.1904H10.6191Z" fill="black"/>
<path fill-rule="evenodd" clip-rule="evenodd" d="M10.6191 21.3808V20.1427H25.1906V21.3808H10.6191Z" fill="black"/>
</svg>
