<svg width="32" height="32" viewBox="0 0 32 32" fill="none" xmlns="http://www.w3.org/2000/svg">
<path fill-rule="evenodd" clip-rule="evenodd" d="M7.54873 3.73921C8.02204 3.2659 8.66398 3 9.33333 3H26.4762C27.1455 3 27.7875 3.2659 28.2608 3.73921C28.7341 4.21251 29 4.85445 29 5.52381V26.4762C29 27.1455 28.7341 27.7875 28.2608 28.2608C27.7875 28.7341 27.1455 29 26.4762 29H5.52381C4.85445 29 4.21251 28.7341 3.73921 28.2608C3.2659 27.7875 3 27.1455 3 26.4762V16C3 15.8358 3.06522 15.6784 3.18131 15.5623C3.29741 15.4462 3.45487 15.381 3.61905 15.381H6.80952V5.52381C6.80952 4.85445 7.07542 4.21251 7.54873 3.73921ZM8.11435 7.80308L8.04762 5.52381C8.04762 5.18282 8.18308 4.85579 8.4242 4.61467C8.66531 4.37355 8.99234 4.2381 9.33333 4.2381H26.4762C26.8172 4.2381 27.1442 4.37355 27.3853 4.61467C27.6264 4.85579 27.7619 5.18282 27.7619 5.52381V26.4762C27.7619 26.8172 27.6264 27.1442 27.3853 27.3853C27.1442 27.6264 26.8172 27.7619 26.4762 27.7619H7.74666L7.94986 27.3853L7.94971 27.3878L7.95659 27.3684C7.95412 27.374 7.95187 27.3796 7.94986 27.3853L8.11435 24.649V7.80308ZM6.80952 16.619H4.2381V26.4762C4.2381 26.8172 4.37355 27.1442 4.61467 27.3853C4.85579 27.6264 5.18282 27.7619 5.52381 27.7619C5.8648 27.7619 6.19183 27.6264 6.43295 27.3853C6.67406 27.1442 6.80952 26.8172 6.80952 26.4762V16.619Z" fill="white"/>
<path fill-rule="evenodd" clip-rule="evenodd" d="M13.4763 7.76195V6.80957H14.7144V7.76343L15.0492 7.76195C15.537 7.75979 16.0149 7.89976 16.4245 8.16477C16.8341 8.42978 17.1577 8.80834 17.3557 9.25422C17.5536 9.70009 17.6174 10.194 17.5393 10.6755C17.4612 11.1571 17.2445 11.6055 16.9157 11.9659L16.7108 12.1905L16.9157 12.4152C17.2445 12.7756 17.4612 13.224 17.5393 13.7055C17.6174 14.1871 17.5536 14.681 17.3557 15.1268C17.1577 15.5727 16.8341 15.9513 16.4245 16.2163C16.0149 16.4813 15.537 16.6213 15.0492 16.6191L14.7144 16.6176V17.5715H13.4763V16.6191H10.6191V15.381H11.5715V9.00005H10.6191V7.76195H13.4763ZM15.0477 9.00005H12.8096V11.5715H15.0477C15.3887 11.5715 15.7157 11.436 15.9568 11.1949C16.198 10.9538 16.3334 10.6268 16.3334 10.2858C16.3334 9.94477 16.198 9.61774 15.9568 9.37662C15.7157 9.13551 15.3887 9.00005 15.0477 9.00005ZM15.0477 12.8096H12.8096V15.381H15.0477C15.3887 15.381 15.7157 15.2455 15.9568 15.0044C16.198 14.7633 16.3334 14.4363 16.3334 14.0953C16.3334 13.7543 16.198 13.4273 15.9568 13.1861C15.7157 12.945 15.3887 12.8096 15.0477 12.8096Z" fill="#F7931B"/>
<path fill-rule="evenodd" clip-rule="evenodd" d="M20.1426 8.99981V7.76172H25.1902V8.99981H20.1426Z" fill="white"/>
<path fill-rule="evenodd" clip-rule="evenodd" d="M20.1426 12.8094V11.5713H25.1902V12.8094H20.1426Z" fill="white"/>
<path fill-rule="evenodd" clip-rule="evenodd" d="M20.1426 16.619V15.3809H25.1902V16.619H20.1426Z" fill="white"/>
<path fill-rule="evenodd" clip-rule="evenodd" d="M10.6191 25.1902V23.9521H25.1906V25.1902H10.6191Z" fill="white"/>
<path fill-rule="evenodd" clip-rule="evenodd" d="M10.6191 21.3807V20.1426H25.1906V21.3807H10.6191Z" fill="white"/>
</svg>
