<svg width="32" height="32" viewBox="0 0 32 32" fill="none" xmlns="http://www.w3.org/2000/svg">
<path fill-rule="evenodd" clip-rule="evenodd" d="M7.35471 5.99762C9.7432 3.93221 12.7741 2.80005 15.948 2.80005C23.1546 2.80005 29.2 8.6211 29.2 15.948C29.2 18.3304 28.5591 20.7123 27.3889 22.713L27.3516 22.7768L27.3859 22.8423C27.5463 23.1483 27.6375 23.4958 27.6375 23.8646C27.6375 25.0833 26.6458 26.075 25.4271 26.075C25.1987 26.075 24.9785 26.0403 24.7714 25.9758L24.7008 25.9538L24.6448 26.002C22.2763 28.0391 19.1365 29.2 15.948 29.2C8.62938 29.2 2.80005 23.1629 2.80005 15.948C2.80005 13.5926 3.42477 11.3008 4.61057 9.28655L4.64817 9.22269L4.61379 9.15704C4.45362 8.85124 4.36255 8.50396 4.36255 8.13547C4.36255 6.91676 5.35426 5.92505 6.57297 5.92505C6.80107 5.92505 7.02102 5.95979 7.22792 6.02409L7.29867 6.04608L7.35471 5.99762ZM15.948 4.08547C13.199 4.08547 10.5687 5.03803 8.45736 6.76294L8.36496 6.83843L8.42976 6.93861C8.65317 7.28396 8.78338 7.69458 8.78338 8.13547C8.78338 9.35417 7.79167 10.3459 6.57297 10.3459C6.27386 10.3459 5.98876 10.2859 5.72847 10.1778L5.61818 10.1321L5.56055 10.2367C4.60045 11.9795 4.08547 13.9483 4.08547 15.9584C4.08547 22.5502 9.41165 27.9146 15.948 27.9146C18.7147 27.9146 21.4377 26.9399 23.5413 25.236L23.6344 25.1606L23.5694 25.0601C23.3466 24.715 23.2167 24.3049 23.2167 23.8646C23.2167 22.6459 24.2084 21.6542 25.4271 21.6542C25.7256 21.6542 26.0101 21.714 26.27 21.8216L26.3807 21.8674L26.438 21.7622C27.3875 20.0209 27.9146 17.9864 27.9146 15.948C27.9146 9.4115 22.5397 4.08547 15.948 4.08547ZM6.57297 7.22088C6.06855 7.22088 5.65838 7.63105 5.65838 8.13547C5.65838 8.63988 6.06855 9.05005 6.57297 9.05005C7.07738 9.05005 7.48755 8.63988 7.48755 8.13547C7.48755 7.63105 7.07738 7.22088 6.57297 7.22088ZM25.4271 22.9501C24.9227 22.9501 24.5125 23.3602 24.5125 23.8646C24.5125 24.3691 24.9227 24.7792 25.4271 24.7792C25.9316 24.7792 26.3417 24.3691 26.3417 23.8646C26.3417 23.3602 25.9316 22.9501 25.4271 22.9501Z" fill="#1A1A1A"/>
<path fill-rule="evenodd" clip-rule="evenodd" d="M7.48755 15.948C7.48755 11.283 11.283 7.48755 15.948 7.48755C20.6075 7.48755 24.5126 11.2525 24.5126 15.948C24.5126 20.6341 20.6187 24.5126 15.948 24.5126C11.261 24.5126 7.48755 20.6156 7.48755 15.948ZM15.948 8.77297C11.997 8.77297 8.77297 12.008 8.77297 15.9584C8.77297 19.9649 11.9957 23.2271 15.948 23.2271C19.8894 23.2271 23.2271 19.8894 23.2271 15.948C23.2271 11.9955 19.9542 8.77297 15.948 8.77297Z" fill="#1A1A1A"/>
<path fill-rule="evenodd" clip-rule="evenodd" d="M15.5239 11.4191V10.4667H16.762V11.4205L17.0968 11.4191C17.5846 11.4169 18.0626 11.5569 18.4721 11.8219C18.8817 12.0869 19.2053 12.4654 19.4033 12.9113C19.6012 13.3572 19.665 13.8511 19.5869 14.3326C19.5088 14.8142 19.2921 15.2626 18.9633 15.623L18.7584 15.8476L18.9633 16.0723C19.2921 16.4327 19.5088 16.8811 19.5869 17.3626C19.665 17.8442 19.6012 18.3381 19.4033 18.7839C19.2053 19.2298 18.8817 19.6084 18.4721 19.8734C18.0626 20.1384 17.5846 20.2784 17.0968 20.2762L16.762 20.2747V21.2286H15.5239V20.2762H12.6667V19.0381H13.6191V12.6572H12.6667V11.4191H15.5239ZM17.0953 12.6572H14.8572V15.2286H17.0953C17.4363 15.2286 17.7633 15.0931 18.0045 14.852C18.2456 14.6109 18.381 14.2839 18.381 13.9429C18.381 13.6019 18.2456 13.2748 18.0045 13.0337C17.7633 12.7926 17.4363 12.6572 17.0953 12.6572ZM17.0953 16.4667H14.8572V19.0381H17.0953C17.4363 19.0381 17.7633 18.9026 18.0045 18.6615C18.2456 18.4204 18.381 18.0934 18.381 17.7524C18.381 17.4114 18.2456 17.0844 18.0045 16.8433C17.7633 16.6021 17.4363 16.4667 17.0953 16.4667Z" fill="#F7931B"/>
</svg>
