<svg width="32" height="32" viewBox="0 0 32 32" fill="none" xmlns="http://www.w3.org/2000/svg">
<path fill-rule="evenodd" clip-rule="evenodd" d="M7.35447 5.99738C9.74296 3.93197 12.7738 2.7998 15.9477 2.7998C23.1543 2.7998 29.1998 8.62086 29.1998 15.9477C29.1998 18.3301 28.5589 20.712 27.3886 22.7128L27.3513 22.7766L27.3856 22.842C27.5461 23.148 27.6373 23.4956 27.6373 23.8644C27.6373 25.0831 26.6456 26.0748 25.4269 26.0748C25.1985 26.0748 24.9783 26.04 24.7712 25.9755L24.7006 25.9536L24.6446 26.0017C22.276 28.0389 19.1363 29.1998 15.9477 29.1998C8.62914 29.1998 2.7998 23.1626 2.7998 15.9477C2.7998 13.5924 3.42453 11.3005 4.61033 9.2863L4.64793 9.22244L4.61354 9.1568C4.45337 8.85099 4.3623 8.50371 4.3623 8.13522C4.3623 6.91652 5.35402 5.9248 6.57272 5.9248C6.80083 5.9248 7.02078 5.95954 7.22768 6.02385L7.29843 6.04584L7.35447 5.99738ZM15.9477 4.08522C13.1987 4.08522 10.5684 5.03779 8.45711 6.7627L8.36471 6.83819L8.42952 6.93837C8.65292 7.28372 8.78314 7.69434 8.78314 8.13522C8.78314 9.35393 7.79143 10.3456 6.57272 10.3456C6.27362 10.3456 5.98852 10.2857 5.72822 10.1776L5.61793 10.1318L5.56031 10.2364C4.60021 11.9793 4.08522 13.9481 4.08522 15.9581C4.08522 22.55 9.41141 27.9144 15.9477 27.9144C18.7144 27.9144 21.4375 26.9396 23.5411 25.2358L23.6341 25.1604L23.5692 25.0598C23.3463 24.7148 23.2165 24.3047 23.2165 23.8644C23.2165 22.6457 24.2082 21.654 25.4269 21.654C25.7253 21.654 26.0099 21.7137 26.2697 21.8213L26.3804 21.8672L26.4378 21.762C27.3873 20.0206 27.9144 17.9861 27.9144 15.9477C27.9144 9.41126 22.5394 4.08522 15.9477 4.08522ZM6.57272 7.22064C6.0683 7.22064 5.65814 7.6308 5.65814 8.13522C5.65814 8.63964 6.0683 9.0498 6.57272 9.0498C7.07714 9.0498 7.4873 8.63964 7.4873 8.13522C7.4873 7.6308 7.07714 7.22064 6.57272 7.22064ZM25.4269 22.9498C24.9225 22.9498 24.5123 23.36 24.5123 23.8644C24.5123 24.3688 24.9225 24.779 25.4269 24.779C25.9313 24.779 26.3415 24.3688 26.3415 23.8644C26.3415 23.36 25.9313 22.9498 25.4269 22.9498Z" fill="white"/>
<path fill-rule="evenodd" clip-rule="evenodd" d="M7.4873 15.9477C7.4873 11.2828 11.2828 7.4873 15.9477 7.4873C20.6073 7.4873 24.5123 11.2523 24.5123 15.9477C24.5123 20.6338 20.6184 24.5123 15.9477 24.5123C11.2607 24.5123 7.4873 20.6153 7.4873 15.9477ZM15.9477 8.77272C11.9968 8.77272 8.77272 12.0077 8.77272 15.9581C8.77272 19.9647 11.9955 23.2269 15.9477 23.2269C19.8892 23.2269 23.2269 19.8892 23.2269 15.9477C23.2269 11.9952 19.954 8.77272 15.9477 8.77272Z" fill="white"/>
<path fill-rule="evenodd" clip-rule="evenodd" d="M15.5241 11.4192V10.4668H16.7622V11.4207L17.097 11.4192C17.5849 11.417 18.0628 11.557 18.4724 11.822C18.882 12.087 19.2055 12.4656 19.4035 12.9114C19.6015 13.3573 19.6653 13.8512 19.5872 14.3328C19.509 14.8143 19.2924 15.2627 18.9636 15.6231L18.7587 15.8477L18.9636 16.0724C19.2924 16.4328 19.509 16.8812 19.5872 17.3627C19.6653 17.8443 19.6015 18.3382 19.4035 18.7841C19.2055 19.2299 18.882 19.6085 18.4724 19.8735C18.0628 20.1385 17.5849 20.2785 17.097 20.2763L16.7622 20.2748V21.2287H15.5241V20.2763H12.667V19.0382H13.6194V12.6573H12.667V11.4192H15.5241ZM17.0956 12.6573H14.8575V15.2287H17.0956C17.4366 15.2287 17.7636 15.0932 18.0047 14.8521C18.2458 14.611 18.3813 14.284 18.3813 13.943C18.3813 13.602 18.2458 13.275 18.0047 13.0339C17.7636 12.7927 17.4366 12.6573 17.0956 12.6573ZM17.0956 16.4668H14.8575V19.0382H17.0956C17.4366 19.0382 17.7636 18.9028 18.0047 18.6616C18.2458 18.4205 18.3813 18.0935 18.3813 17.7525C18.3813 17.4115 18.2458 17.0845 18.0047 16.8434C17.7636 16.6023 17.4366 16.4668 17.0956 16.4668Z" fill="#F7931B"/>
</svg>
