<svg width="32" height="32" viewBox="0 0 32 32" fill="none" xmlns="http://www.w3.org/2000/svg">
<path d="M29.8175 8.49625C29.8175 7.16937 28.7382 6.09 27.4113 6.09C26.73 6.09 26.1144 6.37512 25.6762 6.83166L16.2859 1.4102C16.1087 1.30793 15.8905 1.30793 15.7132 1.4102L6.32276 6.83166C5.88457 6.37512 5.26913 6.09 4.5879 6.09C3.26101 6.09 2.18164 7.16937 2.18164 8.49625C2.18164 9.62553 2.96381 10.5751 4.01498 10.8329V21.672C4.01498 21.8766 4.12419 22.0657 4.30144 22.1682L13.6888 27.5881C13.6266 27.8016 13.5926 28.0272 13.5926 28.2606C13.5926 29.5872 14.6719 30.6668 15.9988 30.6668C17.3255 30.6668 18.4048 29.5872 18.4048 28.2606C18.4048 28.0274 18.371 27.8022 18.3088 27.5887L27.6977 22.1682C27.875 22.0659 27.9842 21.8766 27.9842 21.672V10.8329C29.0354 10.5751 29.8175 9.62553 29.8175 8.49625ZM3.32748 8.49625C3.32748 7.80114 3.89278 7.23584 4.5879 7.23584C5.28278 7.23584 5.84809 7.80114 5.84809 8.49625C5.84809 9.19114 5.28278 9.75667 4.5879 9.75667C3.89278 9.75667 3.32748 9.19114 3.32748 8.49625ZM15.9988 29.521C15.3037 29.521 14.7384 28.9557 14.7384 28.2606C14.7384 27.5657 15.3037 27.0002 15.9988 27.0002C16.6937 27.0002 17.2592 27.5657 17.2592 28.2606C17.2592 28.9557 16.6937 29.521 15.9988 29.521ZM17.735 26.5971C17.2966 26.1399 16.6807 25.8543 15.9988 25.8543C15.3173 25.8543 14.7015 26.1397 14.2633 26.5964L5.16081 21.3412V10.8329C6.21176 10.5751 6.99393 9.62553 6.99393 8.49625C6.99393 8.26261 6.95991 8.0368 6.89747 7.82285L15.9995 2.5679L25.1017 7.82285C25.0393 8.0368 25.0053 8.26239 25.0053 8.49625C25.0053 9.62553 25.7874 10.5751 26.8384 10.8329V21.3412L17.735 26.5971ZM27.4113 9.75667C26.7164 9.75667 26.1509 9.19114 26.1509 8.49625C26.1509 7.80114 26.7164 7.23584 27.4113 7.23584C28.1064 7.23584 28.6717 7.80114 28.6717 8.49625C28.6717 9.19114 28.1064 9.75667 27.4113 9.75667Z" fill="white"/>
<path d="M20.2447 12.5842L16.1545 10.1756C16.0586 10.1192 15.9406 10.1192 15.8447 10.1756L11.7545 12.5842C11.6587 12.6407 11.5996 12.7451 11.5996 12.8579V17.6752C11.5996 17.788 11.6587 17.8925 11.7545 17.9489L15.8447 20.3576C15.8927 20.3858 15.946 20.4 15.9995 20.4C16.0532 20.4 16.1065 20.3858 16.1545 20.3576L20.2447 17.9489C20.3405 17.8925 20.3996 17.788 20.3996 17.6752V12.8579C20.3996 12.7451 20.3405 12.6407 20.2447 12.5842Z" fill="#F7931B"/>
<path d="M23.8484 10.2211L16.2859 5.85503C16.1087 5.75275 15.8905 5.75275 15.7132 5.85503L8.15072 10.2211C7.97347 10.3236 7.86426 10.5127 7.86426 10.7172V19.4495C7.86426 19.6541 7.97347 19.8434 8.15072 19.9457L15.7132 24.3119C15.8019 24.363 15.9005 24.3887 15.9995 24.3887C16.0986 24.3887 16.1973 24.363 16.2859 24.3119L23.8484 19.9457C24.0257 19.8434 24.1349 19.6541 24.1349 19.4495V10.7172C24.1349 10.5127 24.0257 10.3236 23.8484 10.2211ZM15.9995 7.01272L22.4161 10.7172L15.9995 14.4219L9.58301 10.7172L15.9995 7.01272ZM16.5724 22.8235V20.2397C16.5724 19.9233 16.3159 19.6668 15.9995 19.6668C15.6832 19.6668 15.4268 19.9233 15.4268 20.2397V22.8235L9.01009 19.1187V11.7095L15.7132 15.5796C15.8019 15.6307 15.9005 15.6564 15.9995 15.6564C16.0986 15.6564 16.1973 15.6307 16.2859 15.5796L22.9891 11.7095V19.1187L16.5724 22.8235Z" fill="white"/>
<path d="M15.9994 17.0889C15.8481 17.0889 15.7008 17.15 15.5936 17.2567C15.4871 17.3632 15.4258 17.5109 15.4258 17.6618C15.4258 17.8124 15.4871 17.9601 15.5936 18.0666C15.7008 18.1734 15.8481 18.2347 15.9994 18.2347C16.15 18.2347 16.2979 18.1734 16.4044 18.0666C16.511 17.9601 16.5723 17.8124 16.5723 17.6618C16.5723 17.5109 16.511 17.3632 16.4044 17.2567C16.2979 17.15 16.15 17.0889 15.9994 17.0889Z" fill="white"/>
</svg>
