<svg width="32" height="32" viewBox="0 0 32 32" fill="none" xmlns="http://www.w3.org/2000/svg">
<path d="M29.818 8.49613C29.818 7.16925 28.7387 6.08988 27.4118 6.08988C26.7305 6.08988 26.1149 6.37499 25.6767 6.83154L16.2864 1.41008C16.1092 1.30781 15.891 1.30781 15.7137 1.41008L6.32325 6.83154C5.88506 6.37499 5.26962 6.08988 4.58838 6.08988C3.2615 6.08988 2.18213 7.16925 2.18213 8.49613C2.18213 9.62541 2.9643 10.575 4.01547 10.8328V21.6719C4.01547 21.8764 4.12468 22.0656 4.30192 22.1681L13.6893 27.5879C13.6271 27.8014 13.593 28.027 13.593 28.2605C13.593 29.5871 14.6724 30.6667 15.9993 30.6667C17.326 30.6667 18.4053 29.5871 18.4053 28.2605C18.4053 28.0273 18.3715 27.8021 18.3093 27.5886L27.6982 22.1681C27.8755 22.0658 27.9847 21.8764 27.9847 21.6719V10.8328C29.0359 10.575 29.818 9.62541 29.818 8.49613ZM3.32796 8.49613C3.32796 7.80102 3.89327 7.23571 4.58838 7.23571C5.28327 7.23571 5.84858 7.80102 5.84858 8.49613C5.84858 9.19102 5.28327 9.75655 4.58838 9.75655C3.89327 9.75655 3.32796 9.19102 3.32796 8.49613ZM15.9993 29.5209C15.3042 29.5209 14.7389 28.9556 14.7389 28.2605C14.7389 27.5656 15.3042 27 15.9993 27C16.6942 27 17.2597 27.5656 17.2597 28.2605C17.2597 28.9556 16.6942 29.5209 15.9993 29.5209ZM17.7355 26.597C17.2971 26.1398 16.6812 25.8542 15.9993 25.8542C15.3178 25.8542 14.7019 26.1395 14.2638 26.5963L5.1613 21.3411V10.8328C6.21225 10.575 6.99441 9.62541 6.99441 8.49613C6.99441 8.26249 6.9604 8.03668 6.89796 7.82273L16 2.56778L25.1022 7.82273C25.0398 8.03668 25.0057 8.26227 25.0057 8.49613C25.0057 9.62541 25.7879 10.575 26.8389 10.8328V21.3411L17.7355 26.597ZM27.4118 9.75655C26.7169 9.75655 26.1514 9.19102 26.1514 8.49613C26.1514 7.80102 26.7169 7.23571 27.4118 7.23571C28.1069 7.23571 28.6722 7.80102 28.6722 8.49613C28.6722 9.19102 28.1069 9.75655 27.4118 9.75655Z" fill="black"/>
<path d="M20.2452 12.5843L16.155 10.1757C16.0591 10.1193 15.9411 10.1193 15.8452 10.1757L11.755 12.5843C11.6592 12.6409 11.6001 12.7452 11.6001 12.858V17.6753C11.6001 17.7882 11.6592 17.8926 11.755 17.949L15.8452 20.3577C15.8932 20.3859 15.9465 20.4001 16 20.4001C16.0537 20.4001 16.107 20.3859 16.155 20.3577L20.2452 17.949C20.341 17.8926 20.4001 17.7882 20.4001 17.6753V12.858C20.4001 12.7452 20.341 12.6409 20.2452 12.5843Z" fill="#F7931B"/>
<path d="M23.8489 10.2209L16.2864 5.8549C16.1092 5.75263 15.891 5.75263 15.7137 5.8549L8.15121 10.2209C7.97396 10.3234 7.86475 10.5125 7.86475 10.7171V19.4494C7.86475 19.6539 7.97396 19.8433 8.15121 19.9455L15.7137 24.3118C15.8023 24.3628 15.901 24.3886 16 24.3886C16.0991 24.3886 16.1978 24.3628 16.2864 24.3118L23.8489 19.9455C24.0262 19.8433 24.1354 19.6539 24.1354 19.4494V10.7171C24.1354 10.5125 24.0262 10.3234 23.8489 10.2209ZM16 7.0126L22.4166 10.7171L16 14.4218L9.5835 10.7171L16 7.0126ZM16.5729 22.8233V20.2396C16.5729 19.9232 16.3164 19.6667 16 19.6667C15.6837 19.6667 15.4273 19.9232 15.4273 20.2396V22.8233L9.01058 19.1186V11.7094L15.7137 15.5795C15.8023 15.6305 15.901 15.6563 16 15.6563C16.0991 15.6563 16.1978 15.6305 16.2864 15.5795L22.9896 11.7094V19.1186L16.5729 22.8233Z" fill="black"/>
<path d="M15.9994 17.0885C15.8481 17.0885 15.7008 17.1496 15.5936 17.2563C15.4871 17.3629 15.4258 17.5106 15.4258 17.6614C15.4258 17.812 15.4871 17.9597 15.5936 18.0663C15.7008 18.173 15.8481 18.2343 15.9994 18.2343C16.15 18.2343 16.2979 18.173 16.4044 18.0663C16.511 17.9597 16.5723 17.812 16.5723 17.6614C16.5723 17.5106 16.511 17.3629 16.4044 17.2563C16.2979 17.1496 16.15 17.0885 15.9994 17.0885Z" fill="black"/>
</svg>
