<svg width="32" height="32" viewBox="0 0 32 32" fill="none" xmlns="http://www.w3.org/2000/svg">
<path d="M11.7454 29.3334C9.94969 29.3333 8.19434 28.8007 6.70131 27.8031C5.20829 26.8054 4.04463 25.3873 3.35751 23.7283C2.67038 22.0693 2.49064 20.2437 2.84101 18.4826C3.19139 16.7214 4.05614 15.1036 5.32592 13.8339C6.5957 12.5642 8.21347 11.6995 9.97467 11.3492C11.7359 10.9989 13.5614 11.1788 15.2204 11.866C16.8794 12.5532 18.2974 13.7169 19.295 15.21C20.2926 16.703 20.8251 18.4584 20.8251 20.2541C20.8223 22.6613 19.8648 24.9691 18.1626 26.6712C16.4604 28.3733 14.1526 29.3307 11.7454 29.3334ZM11.7454 12.3182C10.1757 12.3182 8.64127 12.7836 7.33614 13.6557C6.031 14.5278 5.01378 15.7673 4.4131 17.2175C3.81243 18.6677 3.65529 20.2635 3.96155 21.803C4.26781 23.3425 5.02372 24.7566 6.13368 25.8665C7.24364 26.9764 8.6578 27.7323 10.1973 28.0384C11.7369 28.3446 13.3326 28.1874 14.7828 27.5866C16.233 26.9859 17.4724 25.9686 18.3444 24.6634C19.2164 23.3582 19.6818 21.8238 19.6817 20.2541C19.6793 18.15 18.8424 16.1328 17.3545 14.6451C15.8667 13.1573 13.8495 12.3205 11.7454 12.3182Z" fill="black"/>
<path fill-rule="evenodd" clip-rule="evenodd" d="M11.5236 15.6191V14.6667H12.7617V15.6206L13.0966 15.6191C13.5844 15.617 14.0623 15.7569 14.4719 16.0219C14.8815 16.287 15.205 16.6655 15.403 17.1114C15.601 17.5573 15.6648 18.0512 15.5867 18.5327C15.5086 19.0143 15.2919 19.4626 14.9631 19.8231L14.7582 20.0477L14.9631 20.2723C15.2919 20.6328 15.5086 21.0811 15.5867 21.5627C15.6648 22.0442 15.601 22.5381 15.403 22.984C15.205 23.4299 14.8815 23.8084 14.4719 24.0735C14.0623 24.3385 13.5844 24.4784 13.0966 24.4763L12.7617 24.4748V25.4287H11.5236V24.4763H8.6665V23.2382H9.61888V16.8572H8.6665V15.6191H11.5236ZM13.0951 16.8572H10.857V19.4287H13.0951C13.4361 19.4287 13.7631 19.2932 14.0042 19.0521C14.2453 18.811 14.3808 18.4839 14.3808 18.1429C14.3808 17.8019 14.2453 17.4749 14.0042 17.2338C13.7631 16.9927 13.4361 16.8572 13.0951 16.8572ZM13.0951 20.6667H10.857V23.2382H13.0951C13.4361 23.2382 13.7631 23.1027 14.0042 22.8616C14.2453 22.6205 14.3808 22.2935 14.3808 21.9525C14.3808 21.6115 14.2453 21.2844 14.0042 21.0433C13.7631 20.8022 13.4361 20.6667 13.0951 20.6667Z" fill="#F7931B"/>
<path d="M21.9552 17.4228C21.8035 17.4228 21.6581 17.3626 21.5509 17.2554C21.4437 17.1481 21.3835 17.0027 21.3835 16.8511C21.3835 16.6995 21.4437 16.5541 21.5509 16.4469C21.6581 16.3397 21.8035 16.2794 21.9552 16.2794C23.1883 16.2794 24.3937 15.9138 25.419 15.2287C26.4443 14.5436 27.2434 13.5698 27.7153 12.4306C28.1872 11.2913 28.3106 10.0377 28.07 8.82829C27.8294 7.61888 27.2356 6.50796 26.3636 5.63605C25.4916 4.76413 24.3807 4.17037 23.1712 3.92985C21.9618 3.68933 20.7082 3.81286 19.569 4.28481C18.4297 4.75676 17.4561 5.55594 16.771 6.58128C16.086 7.60662 15.7204 8.81207 15.7205 10.0452C15.7205 10.1968 15.6603 10.3422 15.5531 10.4494C15.4458 10.5566 15.3004 10.6169 15.1488 10.6169C14.9972 10.6169 14.8518 10.5566 14.7446 10.4494C14.6374 10.3422 14.5771 10.1968 14.5771 10.0452C14.5771 8.58594 15.0097 7.15943 15.8204 5.94607C16.631 4.7327 17.7833 3.78698 19.1314 3.22849C20.4796 2.67 21.9631 2.52383 23.3943 2.80847C24.8255 3.0931 26.1402 3.79576 27.1721 4.82758C28.2039 5.85939 28.9067 7.17403 29.1914 8.60524C29.4761 10.0364 29.33 11.5199 28.7716 12.8681C28.2132 14.2163 27.2675 15.3686 26.0542 16.1793C24.8409 16.9901 23.4144 17.4228 21.9552 17.4228Z" fill="black"/>
<path d="M21.3835 14.299C21.3739 14.2574 21.4306 13.9861 21.1873 13.9103C20.8565 13.8103 20.5526 13.6368 20.2983 13.4028C20.044 13.1688 19.8459 12.8804 19.7189 12.559C19.6654 12.4172 19.6704 12.26 19.7329 12.1219C19.7953 11.9838 19.91 11.8762 20.0518 11.8227C20.1936 11.7692 20.3508 11.7743 20.4889 11.8367C20.627 11.8991 20.7346 12.0139 20.7881 12.1557C20.8874 12.3736 21.0499 12.5567 21.2545 12.6812C21.4591 12.8058 21.6964 12.866 21.9356 12.854C23.006 12.854 23.9598 11.4477 21.7456 10.5769C18.8872 9.45187 19.2872 6.891 21.1977 6.21557C21.4448 6.12766 21.3718 5.85265 21.3835 5.7914C21.3835 5.63978 21.4437 5.49438 21.5509 5.38717C21.6582 5.27996 21.8036 5.21973 21.9552 5.21973C22.1068 5.21973 22.2522 5.27996 22.3594 5.38717C22.4666 5.49438 22.5269 5.63978 22.5269 5.7914C22.5364 5.83307 22.4798 6.10432 22.7231 6.18016C23.0539 6.28007 23.3577 6.45347 23.612 6.6874C23.8663 6.92133 24.0644 7.20972 24.1915 7.53101C24.2451 7.67285 24.2401 7.83017 24.1777 7.96836C24.1153 8.10655 24.0006 8.2143 23.8588 8.26789C23.7169 8.32149 23.5596 8.31655 23.4214 8.25415C23.2832 8.19176 23.1755 8.07702 23.1219 7.93518C22.7294 6.8935 20.8252 7.0285 20.8252 8.2756C20.8252 9.60895 24.2281 9.55062 24.2281 11.8148C24.2243 12.274 24.0758 12.7202 23.8037 13.09C23.5317 13.4599 23.1499 13.7345 22.7127 13.8748C22.4652 13.9623 22.5385 14.2378 22.5269 14.299C22.5269 14.4506 22.4666 14.596 22.3594 14.7033C22.2522 14.8105 22.1068 14.8707 21.9552 14.8707C21.8036 14.8707 21.6582 14.8105 21.5509 14.7033C21.4437 14.596 21.3835 14.4506 21.3835 14.299Z" fill="#F7931B"/>
<path d="M20.2124 27.7663C24.8191 27.4329 28.465 23.0325 28.1733 18.1616C28.1685 18.0127 28.2218 17.8679 28.3221 17.7578C28.4224 17.6478 28.5617 17.5812 28.7103 17.5722C28.8589 17.5632 29.0052 17.6126 29.118 17.7099C29.2308 17.8071 29.3012 17.9445 29.3142 18.0928C29.6475 23.6691 25.6029 28.52 20.2953 28.9067C20.1441 28.9177 19.9947 28.8682 19.88 28.769C19.7653 28.6699 19.6946 28.5292 19.6836 28.378C19.6726 28.2267 19.7222 28.0773 19.8213 27.9626C19.9205 27.8479 20.0612 27.7773 20.2124 27.7663Z" fill="black"/>
<path d="M3.09422 11.6882C3.3481 9.2114 4.50931 6.91613 6.35426 5.24432C7.36897 4.31555 8.56747 3.6103 9.87212 3.17424C11.1768 2.73819 12.5585 2.58106 13.9277 2.71303C14.0763 2.73026 14.2123 2.80508 14.3064 2.92141C14.4005 3.03775 14.4452 3.18634 14.4309 3.33529C14.4167 3.48423 14.3447 3.62166 14.2302 3.71807C14.1158 3.81448 13.9682 3.86219 13.8189 3.85096C11.4932 3.63651 9.17737 4.35364 7.37983 5.84495C5.5823 7.33626 4.44993 9.47987 4.23132 11.8052C4.21296 11.9537 4.13714 12.0891 4.02012 12.1823C3.90311 12.2755 3.75422 12.3191 3.60541 12.3038C3.4566 12.2884 3.31972 12.2154 3.22415 12.1003C3.12858 11.9852 3.08193 11.8372 3.09422 11.6882Z" fill="black"/>
</svg>
