<svg width="32" height="32" viewBox="0 0 32 32" fill="none" xmlns="http://www.w3.org/2000/svg">
<path d="M11.7459 29.3329C9.95018 29.3328 8.19483 28.8003 6.7018 27.8026C5.20877 26.8049 4.04512 25.3868 3.358 23.7278C2.67087 22.0688 2.49113 20.2433 2.8415 18.4821C3.19188 16.7209 4.05663 15.1032 5.32641 13.8334C6.59619 12.5637 8.21396 11.699 9.97516 11.3487C11.7364 10.9985 13.5619 11.1783 15.2209 11.8655C16.8799 12.5527 18.2978 13.7164 19.2955 15.2095C20.2931 16.7025 20.8256 18.4579 20.8256 20.2536C20.8228 22.6608 19.8653 24.9686 18.1631 26.6707C16.4609 28.3729 14.1531 29.3303 11.7459 29.3329ZM11.7459 12.3177C10.1762 12.3177 8.64176 12.7831 7.33662 13.6552C6.03149 14.5273 5.01426 15.7668 4.41359 17.217C3.81292 18.6672 3.65578 20.263 3.96204 21.8025C4.2683 23.342 5.0242 24.7561 6.13417 25.866C7.24413 26.9759 8.65829 27.7318 10.1978 28.0379C11.7374 28.3441 13.3331 28.1869 14.7833 27.5862C16.2334 26.9854 17.4729 25.9681 18.3449 24.6629C19.2169 23.3577 19.6823 21.8233 19.6822 20.2536C19.6798 18.1495 18.8429 16.1324 17.355 14.6446C15.8672 13.1568 13.8499 12.32 11.7459 12.3177Z" fill="white"/>
<path fill-rule="evenodd" clip-rule="evenodd" d="M11.5241 15.6189V14.6665H12.7622V15.6204L13.097 15.6189C13.5849 15.6167 14.0628 15.7567 14.4724 16.0217C14.882 16.2867 15.2055 16.6653 15.4035 17.1111C15.6015 17.557 15.6653 18.0509 15.5872 18.5325C15.509 19.014 15.2924 19.4624 14.9636 19.8228L14.7587 20.0475L14.9636 20.2721C15.2924 20.6325 15.509 21.0809 15.5872 21.5624C15.6653 22.044 15.6015 22.5379 15.4035 22.9838C15.2055 23.4296 14.882 23.8082 14.4724 24.0732C14.0628 24.3382 13.5849 24.4782 13.097 24.476L12.7622 24.4745V25.4284H11.5241V24.476H8.66699V23.2379H9.61937V16.857H8.66699V15.6189H11.5241ZM13.0956 16.857H10.8575V19.4284H13.0956C13.4366 19.4284 13.7636 19.2929 14.0047 19.0518C14.2458 18.8107 14.3813 18.4837 14.3813 18.1427C14.3813 17.8017 14.2458 17.4747 14.0047 17.2336C13.7636 16.9924 13.4366 16.857 13.0956 16.857ZM13.0956 20.6665H10.8575V23.2379H13.0956C13.4366 23.2379 13.7636 23.1025 14.0047 22.8614C14.2458 22.6202 14.3813 22.2932 14.3813 21.9522C14.3813 21.6112 14.2458 21.2842 14.0047 21.0431C13.7636 20.802 13.4366 20.6665 13.0956 20.6665Z" fill="white"/>
<path d="M21.9552 17.4225C21.8035 17.4225 21.6581 17.3623 21.5509 17.2551C21.4437 17.1479 21.3835 17.0025 21.3835 16.8509C21.3835 16.6993 21.4437 16.5538 21.5509 16.4466C21.6581 16.3394 21.8035 16.2792 21.9552 16.2792C23.1883 16.2792 24.3937 15.9135 25.419 15.2284C26.4443 14.5433 27.2434 13.5696 27.7153 12.4303C28.1872 11.2911 28.3106 10.0375 28.07 8.82805C27.8294 7.61863 27.2356 6.50772 26.3636 5.6358C25.4916 4.76388 24.3807 4.17012 23.1712 3.9296C21.9618 3.68908 20.7082 3.81261 19.569 4.28456C18.4297 4.75651 17.4561 5.55569 16.771 6.58103C16.086 7.60637 15.7204 8.81182 15.7205 10.0449C15.7205 10.1966 15.6603 10.342 15.5531 10.4492C15.4458 10.5564 15.3004 10.6166 15.1488 10.6166C14.9972 10.6166 14.8518 10.5564 14.7446 10.4492C14.6374 10.342 14.5771 10.1966 14.5771 10.0449C14.5771 8.58569 15.0097 7.15919 15.8204 5.94582C16.631 4.73246 17.7833 3.78673 19.1314 3.22825C20.4796 2.66976 21.9631 2.52359 23.3943 2.80822C24.8255 3.09286 26.1402 3.79551 27.1721 4.82733C28.2039 5.85915 28.9067 7.17379 29.1914 8.60499C29.4761 10.0362 29.33 11.5197 28.7716 12.8679C28.2132 14.2161 27.2675 15.3684 26.0542 16.1791C24.8409 16.9898 23.4144 17.4225 21.9552 17.4225Z" fill="white"/>
<path d="M21.384 14.2985C21.3744 14.2569 21.4311 13.9856 21.1877 13.9098C20.857 13.8098 20.553 13.6364 20.2988 13.4024C20.0445 13.1683 19.8464 12.8799 19.7194 12.5585C19.6659 12.4167 19.6709 12.2595 19.7334 12.1214C19.7958 11.9834 19.9105 11.8757 20.0523 11.8222C20.1941 11.7688 20.3513 11.7738 20.4894 11.8362C20.6275 11.8987 20.7351 12.0134 20.7886 12.1552C20.8879 12.3731 21.0504 12.5562 21.255 12.6808C21.4596 12.8053 21.6969 12.8655 21.9361 12.8535C23.0065 12.8535 23.9603 11.4472 21.7461 10.5764C18.8877 9.45138 19.2877 6.89051 21.1982 6.21509C21.4452 6.12717 21.3723 5.85216 21.384 5.79091C21.384 5.6393 21.4442 5.49389 21.5514 5.38668C21.6586 5.27947 21.8041 5.21924 21.9557 5.21924C22.1073 5.21924 22.2527 5.27947 22.3599 5.38668C22.4671 5.49389 22.5273 5.6393 22.5273 5.79091C22.5369 5.83258 22.4803 6.10383 22.7236 6.17967C23.0544 6.27958 23.3582 6.45298 23.6125 6.68691C23.8668 6.92084 24.0649 7.20923 24.192 7.53052C24.2456 7.67236 24.2406 7.82968 24.1782 7.96787C24.1158 8.10606 24.0011 8.21381 23.8592 8.26741C23.7174 8.321 23.5601 8.31606 23.4219 8.25366C23.2837 8.19127 23.176 8.07653 23.1224 7.93469C22.7299 6.89301 20.8257 7.02801 20.8257 8.27511C20.8257 9.60847 24.2286 9.55013 24.2286 11.8143C24.2248 12.2735 24.0763 12.7197 23.8042 13.0896C23.5322 13.4594 23.1504 13.734 22.7132 13.8744C22.4657 13.9619 22.539 14.2373 22.5273 14.2985C22.5273 14.4501 22.4671 14.5956 22.3599 14.7028C22.2527 14.81 22.1073 14.8702 21.9557 14.8702C21.8041 14.8702 21.6586 14.81 21.5514 14.7028C21.4442 14.5956 21.384 14.4501 21.384 14.2985Z" fill="#F7931B"/>
<path d="M20.2129 27.7659C24.8196 27.4326 28.4655 23.0321 28.1738 18.1612C28.1689 18.0124 28.2223 17.8675 28.3226 17.7575C28.4229 17.6474 28.5622 17.5808 28.7108 17.5718C28.8594 17.5629 29.0057 17.6123 29.1185 17.7095C29.2313 17.8067 29.3016 17.9441 29.3147 18.0924C29.648 23.6688 25.6034 28.5197 20.2958 28.9063C20.1446 28.9173 19.9952 28.8678 19.8805 28.7686C19.7657 28.6695 19.6951 28.5288 19.6841 28.3776C19.6731 28.2264 19.7227 28.077 19.8218 27.9622C19.921 27.8475 20.0617 27.7769 20.2129 27.7659Z" fill="white"/>
<path d="M3.09471 11.6879C3.34859 9.21115 4.5098 6.91588 6.35475 5.24407C7.36946 4.3153 8.56796 3.61005 9.8726 3.174C11.1772 2.73794 12.5589 2.58081 13.9282 2.71279C14.0768 2.73002 14.2128 2.80483 14.3069 2.92117C14.4009 3.03751 14.4457 3.1861 14.4314 3.33504C14.4172 3.48399 14.3451 3.62142 14.2307 3.71783C14.1163 3.81424 13.9686 3.86195 13.8194 3.85072C11.4937 3.63626 9.17786 4.3534 7.38032 5.84471C5.58278 7.33601 4.45042 9.47963 4.2318 11.805C4.21345 11.9535 4.13763 12.0888 4.02061 12.182C3.90359 12.2752 3.75471 12.3188 3.60589 12.3035C3.45708 12.2882 3.32021 12.2152 3.22464 12.1001C3.12907 11.985 3.08242 11.837 3.09471 11.6879Z" fill="white"/>
</svg>
