<svg width="32" height="32" viewBox="0 0 32 32" fill="none" xmlns="http://www.w3.org/2000/svg">
<path d="M22.0158 16H5.52881V19.8077H22.0158V16Z" fill="#ED8F23"/>
<path d="M13.7789 29.3333C8.87034 29.3333 4.88135 25.3443 4.88135 20.4358V11.5642C4.88135 10.8519 5.46415 10.269 6.17647 10.269H21.3813C22.0936 10.269 22.6764 10.8519 22.6764 11.5642V20.4358C22.6764 25.3443 18.6874 29.3333 13.7789 29.3333ZM6.17647 11.5771V20.4487C6.17647 24.645 9.58266 28.0511 13.7789 28.0511C17.9751 28.0511 21.3813 24.645 21.3813 20.4487V11.5771H6.17647Z" fill="#1A1A1A"/>
<path d="M13.7789 7.76943C13.4163 7.76943 13.1313 7.4845 13.1313 7.12186V3.31419C13.1313 2.95155 13.4163 2.66663 13.7789 2.66663C14.1415 2.66663 14.4265 2.95155 14.4265 3.31419V7.12186C14.4265 7.4845 14.1415 7.76943 13.7789 7.76943Z" fill="#1A1A1A"/>
<path d="M8.70176 6.50027C8.33913 6.50027 8.0542 6.21534 8.0542 5.8527V4.58348C8.0542 4.22084 8.33913 3.93591 8.70176 3.93591C9.0644 3.93591 9.34933 4.22084 9.34933 4.58348V5.8527C9.34933 6.21534 9.0644 6.50027 8.70176 6.50027Z" fill="#1A1A1A"/>
<path d="M18.8561 6.50027C18.4934 6.50027 18.2085 6.21534 18.2085 5.8527V4.58348C18.2085 4.22084 18.4934 3.93591 18.8561 3.93591C19.2187 3.93591 19.5036 4.22084 19.5036 4.58348V5.8527C19.5036 6.21534 19.2187 6.50027 18.8561 6.50027Z" fill="#1A1A1A"/>
<path d="M22.0289 22.9872C21.6663 22.9872 21.3813 22.7023 21.3813 22.3396C21.3813 21.977 21.6663 21.6921 22.0289 21.6921C24.127 21.6921 25.8236 19.9955 25.8236 17.8973C25.8236 15.7992 24.127 14.1026 22.0289 14.1026C21.6663 14.1026 21.3813 13.8177 21.3813 13.4551C21.3813 13.0924 21.6663 12.8075 22.0289 12.8075C24.8393 12.8075 27.1188 15.0869 27.1188 17.8973C27.1188 20.7078 24.8393 22.9872 22.0289 22.9872Z" fill="#1A1A1A"/>
</svg>
