<svg width="32" height="32" viewBox="0 0 32 32" fill="none" xmlns="http://www.w3.org/2000/svg">
<path d="M22.0153 16H5.52832V19.8077H22.0153V16Z" fill="#ED8F23"/>
<path d="M13.7784 29.3333C8.86985 29.3333 4.88086 25.3443 4.88086 20.4358V11.5642C4.88086 10.8519 5.46367 10.269 6.17599 10.269H21.3808C22.0931 10.269 22.6759 10.8519 22.6759 11.5642V20.4358C22.6759 25.3443 18.6869 29.3333 13.7784 29.3333ZM6.17599 11.5771V20.4487C6.17599 24.645 9.58217 28.0511 13.7784 28.0511C17.9746 28.0511 21.3808 24.645 21.3808 20.4487V11.5771H6.17599Z" fill="white"/>
<path d="M13.7784 7.76931C13.4158 7.76931 13.1309 7.48438 13.1309 7.12174V3.31407C13.1309 2.95143 13.4158 2.6665 13.7784 2.6665C14.1411 2.6665 14.426 2.95143 14.426 3.31407V7.12174C14.426 7.48438 14.1411 7.76931 13.7784 7.76931Z" fill="white"/>
<path d="M8.70127 6.4999C8.33864 6.4999 8.05371 6.21497 8.05371 5.85234V4.58311C8.05371 4.22047 8.33864 3.93555 8.70127 3.93555C9.06391 3.93555 9.34884 4.22047 9.34884 4.58311V5.85234C9.34884 6.21497 9.06391 6.4999 8.70127 6.4999Z" fill="white"/>
<path d="M18.8556 6.4999C18.4929 6.4999 18.208 6.21497 18.208 5.85234V4.58311C18.208 4.22047 18.4929 3.93555 18.8556 3.93555C19.2182 3.93555 19.5031 4.22047 19.5031 4.58311V5.85234C19.5031 6.21497 19.2182 6.4999 18.8556 6.4999Z" fill="white"/>
<path d="M22.0284 22.9868C21.6658 22.9868 21.3809 22.7019 21.3809 22.3393C21.3809 21.9766 21.6658 21.6917 22.0284 21.6917C24.1265 21.6917 25.8231 19.9951 25.8231 17.897C25.8231 15.7989 24.1265 14.1023 22.0284 14.1023C21.6658 14.1023 21.3809 13.8173 21.3809 13.4547C21.3809 13.0921 21.6658 12.8071 22.0284 12.8071C24.8389 12.8071 27.1183 15.0866 27.1183 17.897C27.1183 20.7074 24.8389 22.9868 22.0284 22.9868Z" fill="white"/>
</svg>
