<svg width="32" height="32" viewBox="0 0 32 32" fill="none" xmlns="http://www.w3.org/2000/svg">
<path fill-rule="evenodd" clip-rule="evenodd" d="M2.83301 8.88911C2.83301 6.53063 4.75231 4.61133 7.11079 4.61133H23.1108C24.4892 4.61133 25.6108 5.73289 25.6108 7.11133V8.16688H26.6663C28.0448 8.16688 29.1663 9.28844 29.1663 10.6669V24.8891C29.1663 26.2675 28.0448 27.3891 26.6663 27.3891H5.33301C3.95457 27.3891 2.83301 26.2675 2.83301 24.8891V8.88911ZM7.11079 6.05577C5.54825 6.05577 4.27745 7.32657 4.27745 8.88911V24.8891C4.27745 25.4717 4.751 25.9447 5.33301 25.9447H26.6663C27.2484 25.9447 27.7219 25.4717 27.7219 24.8891V10.6669C27.7219 10.0843 27.2484 9.61133 26.6663 9.61133H7.27745V8.16688H24.1663V7.11133C24.1663 6.52878 23.6928 6.05577 23.1108 6.05577H7.11079ZM22.3886 17.778C22.3886 16.89 23.1113 16.1669 23.9997 16.1669C24.8881 16.1669 25.6108 16.89 25.6108 17.778C25.6108 18.666 24.8881 19.3891 23.9997 19.3891C23.1113 19.3891 22.3886 18.666 22.3886 17.778Z" fill="white"/>
<path fill-rule="evenodd" clip-rule="evenodd" d="M14.8571 12.9524V12H16.0952V12.9539L16.43 12.9524C16.9179 12.9502 17.3958 13.0902 17.8054 13.3552C18.215 13.6202 18.5385 13.9988 18.7365 14.4446C18.9345 14.8905 18.9983 15.3844 18.9202 15.866C18.8421 16.3475 18.6254 16.7959 18.2966 17.1563L18.0917 17.381L18.2966 17.6056C18.6254 17.966 18.8421 18.4144 18.9202 18.8959C18.9983 19.3775 18.9345 19.8714 18.7365 20.3173C18.5385 20.7631 18.215 21.1417 17.8054 21.4067C17.3958 21.6717 16.9179 21.8117 16.43 21.8095L16.0952 21.808V22.7619H14.8571V21.8095H12V20.5714H12.9524V14.1905H12V12.9524H14.8571ZM16.4286 14.1905H14.1905V16.7619H16.4286C16.7696 16.7619 17.0966 16.6264 17.3377 16.3853C17.5788 16.1442 17.7143 15.8172 17.7143 15.4762C17.7143 15.1352 17.5788 14.8082 17.3377 14.5671C17.0966 14.3259 16.7696 14.1905 16.4286 14.1905ZM16.4286 18H14.1905V20.5714H16.4286C16.7696 20.5714 17.0966 20.436 17.3377 20.1948C17.5788 19.9537 17.7143 19.6267 17.7143 19.2857C17.7143 18.9447 17.5788 18.6177 17.3377 18.3766C17.0966 18.1355 16.7696 18 16.4286 18Z" fill="#F7931B"/>
</svg>
