<svg width="20" height="15" viewBox="0 0 20 15" fill="none" xmlns="http://www.w3.org/2000/svg">
<path d="M8.12487 7.93728C8.12487 8.1227 8.06989 8.30396 7.96687 8.45813C7.86386 8.6123 7.71744 8.73246 7.54614 8.80342C7.37483 8.87437 7.18633 8.89294 7.00447 8.85677C6.82262 8.82059 6.65557 8.7313 6.52446 8.60019C6.39335 8.46908 6.30406 8.30203 6.26789 8.12018C6.23171 7.93832 6.25028 7.74982 6.32123 7.57852C6.39219 7.40721 6.51235 7.26079 6.66652 7.15778C6.8207 7.05476 7.00195 6.99978 7.18737 6.99978C7.43601 6.99978 7.67447 7.09855 7.85028 7.27437C8.0261 7.45018 8.12487 7.68864 8.12487 7.93728ZM12.8124 6.99978C12.627 6.99978 12.4457 7.05476 12.2915 7.15778C12.1374 7.26079 12.0172 7.40721 11.9462 7.57852C11.8753 7.74982 11.8567 7.93832 11.8929 8.12018C11.9291 8.30203 12.0183 8.46908 12.1495 8.60019C12.2806 8.7313 12.4476 8.82059 12.6295 8.85677C12.8113 8.89294 12.9998 8.87437 13.1711 8.80342C13.3424 8.73246 13.4889 8.6123 13.5919 8.45813C13.6949 8.30396 13.7499 8.1227 13.7499 7.93728C13.7499 7.68864 13.6511 7.45018 13.4753 7.27437C13.2995 7.09855 13.061 6.99978 12.8124 6.99978ZM18.6288 12.0701L13.3944 14.3912C13.237 14.4612 13.067 14.4982 12.8947 14.5C12.7225 14.5019 12.5517 14.4685 12.3929 14.4019C12.234 14.3353 12.0905 14.237 11.971 14.1129C11.8516 13.9888 11.7588 13.8415 11.6983 13.6802L11.0647 11.9615C10.7147 11.9849 10.3598 11.9969 9.99987 11.9974C9.63998 11.998 9.28503 11.986 8.93503 11.9615L8.30143 13.6802C8.24088 13.8415 8.14803 13.9886 8.02857 14.1126C7.90911 14.2367 7.76557 14.335 7.60674 14.4016C7.44792 14.4682 7.27717 14.5016 7.10497 14.4998C6.93277 14.498 6.76275 14.461 6.60534 14.3912L1.37097 12.0701C1.1008 11.952 0.881349 11.7418 0.751719 11.4769C0.62209 11.2121 0.590704 10.9098 0.663154 10.624L2.96862 1.53103C3.02947 1.29455 3.15795 1.08095 3.33834 0.916379C3.51873 0.751808 3.74319 0.643413 3.98425 0.604467L6.80143 0.141186C7.112 0.0912343 7.43005 0.158579 7.69371 0.330121C7.95738 0.501664 8.14782 0.765141 8.228 1.06931L8.48268 2.07244C8.97904 2.024 9.48477 1.99978 9.99987 1.99978C10.515 1.99978 11.0202 2.024 11.5155 2.07244L11.7702 1.06931C11.8502 0.765048 12.0406 0.501462 12.3043 0.329892C12.568 0.158322 12.8862 0.0910526 13.1967 0.141186L16.0155 0.604467C16.2565 0.643413 16.481 0.751808 16.6614 0.916379C16.8418 1.08095 16.9703 1.29455 17.0311 1.53103L19.3382 10.6232C19.4107 10.9093 19.3792 11.2119 19.2492 11.477C19.1193 11.742 18.8994 11.9522 18.6288 12.0701ZM18.1249 10.9279L15.8178 1.84353C15.8178 1.84353 15.8178 1.84353 15.8116 1.84353L12.9944 1.37478C12.9924 1.37361 12.9901 1.373 12.9878 1.373C12.9854 1.373 12.9831 1.37361 12.9811 1.37478L12.76 2.24509C13.1507 2.31853 13.5413 2.40603 13.9186 2.51228C14.0674 2.5502 14.197 2.64155 14.2827 2.76891C14.3685 2.89627 14.4043 3.05073 14.3834 3.20283C14.3626 3.35494 14.2865 3.49404 14.1696 3.59362C14.0528 3.69319 13.9034 3.74628 13.7499 3.74275C13.6928 3.74259 13.6361 3.7347 13.5811 3.71931C12.4139 3.40258 11.2093 3.24465 9.99987 3.24978C8.79048 3.24439 7.58589 3.40206 6.41862 3.71853C6.33888 3.74318 6.25502 3.75161 6.17197 3.74333C6.08892 3.73504 6.00837 3.7102 5.93507 3.67028C5.86178 3.63036 5.79722 3.57616 5.74521 3.51089C5.6932 3.44561 5.65479 3.37058 5.63225 3.29022C5.60971 3.20986 5.60349 3.1258 5.61396 3.043C5.62443 2.9602 5.65138 2.88033 5.69322 2.80811C5.73506 2.73589 5.79094 2.67279 5.85756 2.62251C5.92418 2.57224 6.0002 2.53582 6.08112 2.5154C6.45768 2.40915 6.84518 2.32165 7.23893 2.24822L7.01784 1.37478C7.01784 1.37478 7.01784 1.37478 7.00847 1.37478L4.18815 1.83806C4.18585 1.83743 4.18342 1.83743 4.18112 1.83806L1.87487 10.9318L7.10925 13.2498C7.11188 13.2512 7.11484 13.252 7.11784 13.252C7.12084 13.252 7.1238 13.2512 7.12643 13.2498L7.65612 11.8217C7.12541 11.7405 6.6 11.6278 6.08268 11.4842C5.9286 11.4349 5.7996 11.3279 5.72282 11.1855C5.64603 11.0431 5.62743 10.8765 5.67094 10.7207C5.71444 10.5649 5.81665 10.4321 5.95609 10.3501C6.09552 10.2681 6.26132 10.2433 6.41862 10.281C7.58581 10.5979 8.79046 10.7555 9.99987 10.7498C11.2093 10.7555 12.4139 10.5979 13.5811 10.281C13.7408 10.2363 13.9117 10.2568 14.0562 10.338C14.2007 10.4193 14.3071 10.5546 14.3518 10.7142C14.3966 10.8739 14.3761 11.0448 14.2948 11.1893C14.2136 11.3338 14.0783 11.4402 13.9186 11.4849C13.4008 11.6283 12.8748 11.7408 12.3436 11.8217L12.871 13.2498C12.8735 13.2511 12.8763 13.2519 12.8792 13.2519C12.882 13.2519 12.8849 13.2511 12.8874 13.2498L18.1249 10.9279Z" fill="white"/>
</svg>
