<svg width="18" height="18" viewBox="0 0 18 18" fill="none" xmlns="http://www.w3.org/2000/svg">
<path fill-rule="evenodd" clip-rule="evenodd" d="M3.16233 3.16233C3.82652 2.49814 4.72736 2.125 5.66667 2.125H12.3333C13.2726 2.125 14.1735 2.49814 14.8377 3.16233C15.5019 3.82652 15.875 4.72736 15.875 5.66667V12.3333C15.875 13.2726 15.5019 14.1735 14.8377 14.8377C14.1735 15.5019 13.2726 15.875 12.3333 15.875H8.79167V10.4583H11.5C11.8452 10.4583 12.125 10.1785 12.125 9.83333C12.125 9.48816 11.8452 9.20833 11.5 9.20833H8.79167V9C8.79167 8.10304 8.90298 7.45945 9.23377 7.03221C9.53589 6.64201 10.1394 6.29167 11.5 6.29167C11.8452 6.29167 12.125 6.01184 12.125 5.66667C12.125 5.32149 11.8452 5.04167 11.5 5.04167C9.94389 5.04167 8.88078 5.44632 8.2454 6.26695C7.63869 7.05055 7.54167 8.07363 7.54167 9V9.20833H6.5C6.15482 9.20833 5.875 9.48816 5.875 9.83333C5.875 10.1785 6.15482 10.4583 6.5 10.4583H7.54167V15.875H5.66667C4.72736 15.875 3.82652 15.5019 3.16233 14.8377C2.49814 14.1735 2.125 13.2726 2.125 12.3333V5.66667C2.125 4.72736 2.49814 3.82652 3.16233 3.16233ZM8.16667 17.125H5.66667C4.39584 17.125 3.17706 16.6202 2.27845 15.7216C1.37983 14.8229 0.875 13.6042 0.875 12.3333V5.66667C0.875 4.39584 1.37983 3.17706 2.27845 2.27845C3.17706 1.37983 4.39584 0.875 5.66667 0.875H12.3333C13.6042 0.875 14.8229 1.37983 15.7216 2.27845C16.6202 3.17706 17.125 4.39584 17.125 5.66667V12.3333C17.125 13.6042 16.6202 14.8229 15.7216 15.7216C14.8229 16.6202 13.6042 17.125 12.3333 17.125H8.16667Z" fill="white"/>
</svg>
