<svg width="18" height="18" viewBox="0 0 18 18" fill="none" xmlns="http://www.w3.org/2000/svg">
<path d="M14.8005 2.657C13.2469 1.37356 11.1868 0.666504 8.99945 0.666504C6.81208 0.666504 4.75199 1.37356 3.19836 2.657C1.61995 3.9608 0.750977 5.70113 0.750977 7.5572C0.750977 9.30364 1.50861 10.9442 2.88404 12.1763C4.13081 13.2931 5.84161 14.0236 7.70956 14.2385V16.8919C7.70956 17.0609 7.80359 17.2127 7.95532 17.2873C8.01574 17.3172 8.08329 17.3332 8.15084 17.3332C8.24724 17.3332 8.34229 17.3009 8.419 17.2425L13.5086 13.3508C14.7225 12.4343 15.5605 11.6295 16.1464 10.8176C16.8878 9.79006 17.2483 8.72353 17.2483 7.55754C17.2483 5.70147 16.3793 3.96114 14.8009 2.65734L14.8005 2.657ZM8.18343 13.397C6.34534 13.2605 4.67223 12.5939 3.47297 11.5192C2.28696 10.4567 1.63353 9.04974 1.63353 7.5572C1.63353 4.24424 4.93801 1.54906 8.99945 1.54906C13.0609 1.54906 16.3654 4.24424 16.3654 7.5572C16.3654 9.78124 14.736 11.3179 12.975 12.6475L8.59212 15.9988V13.8369C8.59212 13.6071 8.41255 13.414 8.18343 13.397Z" fill="white"/>
<path d="M8.91157 8.75227C8.91599 8.43523 8.91497 8.1131 8.91429 7.80149C8.91429 7.67522 8.91361 7.54895 8.91361 7.42267V7.38398C9.30838 7.89212 9.72692 8.43252 10.192 9.03367C10.2575 9.11921 10.4309 9.34664 10.7276 9.24548C10.9381 9.1742 11.0446 9.01093 11.0446 8.76076C11.0443 8.42403 11.0446 8.0873 11.0446 7.75057C11.0446 7.20475 11.045 6.64026 11.0429 6.08493C11.0423 5.92505 10.9947 5.79436 10.9058 5.70713C10.8267 5.62939 10.7194 5.58968 10.5925 5.5907C10.323 5.59443 10.1546 5.7869 10.1529 6.09273C10.1505 6.3911 10.1509 6.69389 10.1509 6.98683C10.1509 7.15723 10.1509 7.32797 10.1509 7.49871C9.87593 7.14195 9.60166 6.78452 9.32705 6.42709C9.16955 6.22206 9.01205 6.0167 8.85421 5.81167C8.6665 5.56762 8.46385 5.56761 8.32671 5.61038C8.12135 5.67454 8.00322 5.84528 8.00255 6.07814C7.99915 6.97902 7.99915 7.89212 8.00255 8.79233C8.00289 8.99328 8.09657 9.14806 8.26595 9.22817C8.33215 9.2594 8.40071 9.27501 8.46724 9.27501C8.5443 9.27501 8.61864 9.25431 8.68449 9.2129C8.82671 9.12362 8.90954 8.9556 8.91124 8.75261L8.91157 8.75227Z" fill="white"/>
<path d="M11.9926 9.27983C12.1664 9.28051 12.3467 9.28118 12.5395 9.28118C12.7615 9.28118 12.9997 9.28051 13.2642 9.27949C13.346 9.27881 13.4251 9.26727 13.4994 9.24554C13.6942 9.18852 13.8049 9.04527 13.8113 8.84228C13.8185 8.62368 13.7112 8.46924 13.5092 8.40746C13.404 8.37521 13.2971 8.37046 13.216 8.36978C12.9807 8.36672 12.7401 8.36706 12.5075 8.36774C12.4573 8.36774 12.4074 8.36774 12.3572 8.36774V7.89422C12.3779 7.89218 12.3969 7.89049 12.4152 7.89049C12.5187 7.88981 12.6223 7.89049 12.7261 7.89116C12.9217 7.89252 13.1236 7.89354 13.3232 7.88641C13.4848 7.8803 13.6158 7.82803 13.7014 7.73502C13.7791 7.65084 13.8168 7.53645 13.811 7.4044C13.7998 7.14778 13.6104 6.98485 13.3161 6.97942C13.2017 6.97738 13.086 6.97772 12.9743 6.9784C12.9207 6.9784 12.867 6.97874 12.8127 6.97874C12.568 6.97874 12.3915 6.97874 12.3511 6.93427C12.312 6.8915 12.3256 6.72721 12.347 6.49673C12.3928 6.49232 12.44 6.48791 12.4872 6.48791C12.5873 6.48689 12.6878 6.48723 12.7879 6.48757C12.9417 6.48791 13.1009 6.48825 13.2577 6.48451C13.3585 6.4818 13.475 6.47467 13.5765 6.42681C13.7723 6.3355 13.8572 6.14066 13.7985 5.91968C13.7452 5.71058 13.5846 5.59008 13.3582 5.5894C12.8738 5.58804 12.4366 5.58736 11.9923 5.58838C11.6063 5.5894 11.4339 5.76014 11.4332 6.14167C11.4298 6.99775 11.4298 7.86537 11.4332 8.72076C11.4339 9.09517 11.6172 9.27779 11.9933 9.27949L11.9926 9.27983Z" fill="white"/>
<path d="M6.08644 8.37208C6.02806 8.36529 5.97171 8.36631 5.91706 8.36699C5.89941 8.36699 5.88142 8.36767 5.86377 8.36767C5.66961 8.36767 5.47613 8.36767 5.2745 8.36767H5.05725V7.65823C5.05725 7.164 5.05793 6.6528 5.05623 6.15042C5.05522 5.8025 4.88549 5.59374 4.60308 5.59136C4.47409 5.58966 4.36988 5.62904 4.29113 5.70711C4.19507 5.8025 4.14619 5.94913 4.14619 6.14364V6.17588C4.14551 7.02245 4.14483 7.89788 4.14687 8.76006C4.14856 9.0934 4.32609 9.27296 4.66078 9.27975C4.78807 9.28213 5.10002 9.28417 5.40247 9.28417C5.68726 9.28417 5.96391 9.28213 6.07117 9.2767C6.33356 9.2621 6.5284 9.06488 6.52467 8.81777C6.52025 8.58559 6.34001 8.40229 6.08644 8.37242V8.37208Z" fill="white"/>
<path d="M7.61085 6.03864C7.60847 5.71956 7.48016 5.58921 7.16821 5.58887C7.05823 5.58854 6.91906 5.59974 6.82605 5.68969C6.73101 5.78168 6.71845 5.92119 6.71811 6.03219C6.71506 6.95819 6.71506 7.89709 6.71811 8.82309C6.71879 9.13843 6.85559 9.2793 7.16041 9.27998C7.16244 9.27998 7.16482 9.27998 7.16686 9.27998C7.26699 9.27998 7.40752 9.26708 7.5029 9.16661C7.57555 9.08989 7.60983 8.97686 7.61085 8.80985C7.61187 8.46837 7.61187 8.12689 7.61153 7.78507V7.44325V7.09227C7.61153 6.74095 7.61153 6.38996 7.61085 6.0383V6.03864Z" fill="white"/>
</svg>
