<svg width="18" height="12" viewBox="0 0 18 12" fill="none" xmlns="http://www.w3.org/2000/svg">
<path d="M15.8688 0.140625H2.13184C1.32249 0.140625 0.666992 0.800195 0.666992 1.60547V10.3945C0.666992 11.2046 1.32731 11.8594 2.13184 11.8594H15.8688C16.6714 11.8594 17.3337 11.2074 17.3337 10.3945V1.60547C17.3337 0.801628 16.6808 0.140625 15.8688 0.140625ZM15.6637 1.11719C15.3644 1.41488 10.214 6.53818 10.0361 6.71507C9.75944 6.99176 9.3916 7.14411 9.00033 7.14411C8.60905 7.14411 8.24121 6.99173 7.96361 6.71416C7.84401 6.59518 2.75042 1.52845 2.33698 1.11719H15.6637ZM1.64355 10.1958V1.80485L5.86354 6.0026L1.64355 10.1958ZM2.3376 10.8828L6.55592 6.69131L7.27399 7.4056C7.73512 7.86673 8.34821 8.12067 9.00033 8.12067C9.65244 8.12067 10.2655 7.86673 10.7257 7.40651L11.4447 6.69131L15.6631 10.8828H2.3376ZM16.3571 10.1958L12.1371 6.0026L16.3571 1.80485V10.1958Z" fill="white"/>
</svg>
