<svg width="32" height="32" viewBox="0 0 32 32" fill="none" xmlns="http://www.w3.org/2000/svg">
<g clip-path="url(#clip0_1523_1381)">
<path d="M31.3197 27.915L14.0766 10.6669C14.1028 10.4913 14.0876 10.3119 14.0323 10.1432C13.9769 9.97451 13.8828 9.82109 13.7576 9.6952L13.686 9.62364C16.5296 6.18458 19.984 3.30047 23.8755 1.11652C23.9914 1.04807 24.0796 0.94101 24.1246 0.81409C24.1695 0.687171 24.1684 0.548478 24.1214 0.422295C24.0744 0.296112 23.9846 0.190479 23.8675 0.123891C23.7505 0.0573019 23.6138 0.0340007 23.4813 0.0580664C18.7057 1.02391 14.3163 3.36403 10.8526 6.7908C10.7487 6.67431 10.6221 6.58019 10.4806 6.51419C10.3391 6.44819 10.1857 6.41169 10.0296 6.4069C9.87358 6.40211 9.71819 6.42914 9.57292 6.48634C9.42765 6.54354 9.29554 6.62971 9.18465 6.73961L6.69132 9.23293C6.58131 9.34374 6.49504 9.47579 6.43776 9.62105C6.38048 9.7663 6.35339 9.9217 6.35816 10.0778C6.36293 10.2338 6.39945 10.3873 6.46549 10.5288C6.53153 10.6703 6.6257 10.7968 6.74227 10.9007C3.31632 14.3646 0.976382 18.7535 0.00973994 23.5285C-0.0150391 23.6612 0.00781384 23.7984 0.074273 23.916C0.140732 24.0335 0.246534 24.1238 0.373039 24.171C0.499545 24.2181 0.638638 24.2191 0.765815 24.1738C0.892993 24.1285 1.0001 24.0397 1.06826 23.9232C3.25189 20.0314 6.13633 16.5769 9.57611 13.734L9.64746 13.8053C9.85355 14.0123 10.1315 14.132 10.4235 14.1394C10.7155 14.1468 10.9991 14.0415 11.2155 13.8452C11.6701 14.2723 12.1547 14.7279 12.6606 15.2122C12.7701 15.3171 12.9169 15.3741 13.0685 15.3707C13.2201 15.3674 13.3641 15.3039 13.469 15.1944C13.5738 15.0848 13.6308 14.9381 13.6275 14.7864C13.6241 14.6348 13.5607 14.4908 13.4511 14.3859C12.9536 13.91 12.4778 13.4624 12.0291 13.0407L13.4318 11.6383L30.513 28.7251C30.6817 28.8985 30.7954 29.118 30.8397 29.3559C30.884 29.5938 30.8569 29.8395 30.7619 30.062C30.6669 30.2845 30.5082 30.474 30.3057 30.6066C30.1033 30.7391 29.8661 30.8088 29.6242 30.8069C28.0861 30.8516 26.4397 27.7944 25.7804 26.162C24.8925 25.1273 23.8619 24.3441 22.8377 23.3035C22.7273 23.2023 22.5817 23.1485 22.4321 23.1535C22.2825 23.1586 22.1408 23.222 22.0375 23.3303C21.9342 23.4386 21.8774 23.5831 21.8794 23.7328C21.8814 23.8825 21.942 24.0254 22.0482 24.1309C23.018 25.0575 23.8658 25.8534 24.7676 26.7068C25.231 27.8223 27.1124 31.9514 29.5812 31.9509C30.0526 31.9599 30.516 31.8284 30.9123 31.573C31.3086 31.3176 31.6199 30.95 31.8064 30.517C31.9929 30.084 32.0462 29.6053 31.9595 29.1418C31.8729 28.6784 31.6501 28.2513 31.3197 27.915ZM5.39442 16.096C4.25521 17.3143 3.19827 18.607 2.23059 19.9655C3.41122 16.8737 5.22304 14.0617 7.55057 11.7088L8.76453 12.9226C7.57713 13.9103 6.45163 14.9701 5.39442 16.096ZM10.4559 12.9969L7.49972 10.0414L9.99305 7.54803L12.9497 10.5036L10.4559 12.9969ZM12.8745 8.81228L11.6609 7.5989C14.0123 5.26858 16.8252 3.45604 19.9189 2.27778C17.2982 4.14236 14.9304 6.33884 12.8745 8.81228Z" fill="black"/>
<path d="M13.0225 16.5165C10.9763 16.5187 9.01452 17.3326 7.56764 18.7794C6.12076 20.2263 5.30692 22.1881 5.30469 24.2343C5.72829 34.473 20.3182 34.47 20.7403 24.2342C20.738 22.188 19.9242 20.2263 18.4773 18.7794C17.0304 17.3325 15.0687 16.5187 13.0225 16.5165ZM13.0225 30.8087C11.2795 30.8067 9.6084 30.1134 8.3759 28.8809C7.1434 27.6483 6.45009 25.9773 6.44806 24.2343C6.80946 15.5124 19.2368 15.515 19.5969 24.2343C19.5949 25.9773 18.9016 27.6484 17.669 28.8809C16.4365 30.1134 14.7655 30.8067 13.0225 30.8087Z" fill="black"/>
<path fill-rule="evenodd" clip-rule="evenodd" d="M12.64 20.7603V20.0012H13.6583V20.7615L13.9336 20.7603C14.3349 20.7586 14.7279 20.8701 15.0648 21.0813C15.4017 21.2926 15.6678 21.5943 15.8306 21.9497C15.9934 22.305 16.0459 22.6987 15.9817 23.0825C15.9174 23.4663 15.7392 23.8236 15.4688 24.1109L15.3003 24.2899L15.4688 24.469C15.7392 24.7563 15.9174 25.1136 15.9817 25.4974C16.0459 25.8812 15.9934 26.2749 15.8306 26.6302C15.6678 26.9856 15.4017 27.2873 15.0648 27.4986C14.7279 27.7098 14.3349 27.8213 13.9336 27.8196L13.6583 27.8184V28.5787H12.64V27.8196H10.29V26.8328H11.0733V21.7471H10.29V20.7603H12.64ZM13.9324 21.7471H12.0916V23.7966H13.9324C14.2129 23.7966 14.4818 23.6886 14.6801 23.4964C14.8785 23.3042 14.9899 23.0436 14.9899 22.7718C14.9899 22.5 14.8785 22.2394 14.6802 22.0472C14.4818 21.855 14.2129 21.7471 13.9324 21.7471ZM13.9324 24.7833H12.0916V26.8328H13.9324C14.2129 26.8328 14.4818 26.7249 14.6801 26.5327C14.8785 26.3405 14.9899 26.0799 14.9899 25.8081C14.9899 25.5363 14.8785 25.2757 14.6802 25.0835C14.4818 24.8913 14.2129 24.7833 13.9324 24.7833Z" fill="#F7931B"/>
</g>
<defs>
<clipPath id="clip0_1523_1381">
<rect width="32" height="32" fill="white"/>
</clipPath>
</defs>
</svg>
