<svg width="18" height="18" viewBox="0 0 18 18" fill="none" xmlns="http://www.w3.org/2000/svg">
<path d="M16.7975 12.6632C16.7681 12.6387 13.4409 10.2576 12.5381 10.4137C12.1042 10.4904 11.8559 10.7859 11.3587 11.3787C11.2787 11.4743 11.0859 11.7026 10.937 11.8654C10.6227 11.763 10.3162 11.6382 10.0198 11.4921C8.4895 10.7471 7.2531 9.51066 6.5081 7.98039C6.36192 7.68396 6.23715 7.37743 6.13477 7.06317C6.2981 6.91373 6.52699 6.72095 6.62477 6.63873C7.21421 6.14428 7.50977 5.89595 7.58644 5.4615C7.74366 4.56206 5.36144 1.23206 5.33699 1.20206C5.22851 1.0482 5.08721 0.920351 4.92331 0.827735C4.75941 0.73512 4.57699 0.680051 4.38921 0.666504C3.42366 0.666504 0.666992 4.24206 0.666992 4.84484C0.666992 4.87984 0.717548 8.43762 5.10477 12.9004C9.56255 17.2826 13.1203 17.3332 13.1553 17.3332C13.7581 17.3332 17.3337 14.5765 17.3337 13.6109C17.3201 13.4231 17.265 13.2406 17.1723 13.0767C17.0796 12.9128 16.9516 12.7715 16.7975 12.6632ZM13.0942 16.2187C12.6087 16.1787 9.6231 15.7848 5.89033 12.1176C2.20421 8.36484 1.82033 5.37095 1.78199 4.90706C2.5102 3.76408 3.38965 2.72485 4.39644 1.81762C4.41866 1.83984 4.4481 1.87317 4.48588 1.9165C5.25801 2.97052 5.92315 4.09888 6.47144 5.28484C6.29314 5.46421 6.10468 5.63319 5.90699 5.79095C5.60043 6.02453 5.31893 6.28928 5.06699 6.58095L4.93199 6.76984L4.97199 6.99817C5.08956 7.50746 5.26963 8.00027 5.5081 8.46539C6.36249 10.2199 7.7802 11.6374 9.53477 12.4915C9.9998 12.7303 10.4926 12.9106 11.002 13.0282L11.2303 13.0682L11.4192 12.9332C11.712 12.6801 11.9778 12.3975 12.2125 12.0898C12.3864 11.8821 12.6192 11.6048 12.707 11.5265C13.8963 12.0743 15.0276 12.7402 16.0837 13.5143C16.1298 13.5532 16.162 13.5832 16.1837 13.6026C15.2766 14.6097 14.2373 15.4894 13.0942 16.2176V16.2187Z" fill="white"/>
</svg>
