<svg width="32" height="32" viewBox="0 0 32 32" fill="none" xmlns="http://www.w3.org/2000/svg">
<path fill-rule="evenodd" clip-rule="evenodd" d="M23.3333 14.9999C23.3333 14.6317 23.6318 14.3333 24 14.3333H29.3333C29.7015 14.3333 30 14.6317 30 14.9999V25.6666C30 26.0348 29.7015 26.3333 29.3333 26.3333H26.2761L24.4714 28.138C24.2111 28.3983 23.7889 28.3983 23.5286 28.138L21.7239 26.3333H14.6667C14.2985 26.3333 14 26.0348 14 25.6666V20.3333C14 19.9651 14.2985 19.6666 14.6667 19.6666H23.3333V14.9999ZM24.6667 15.6666V20.3333C24.6667 20.7014 24.3682 20.9999 24 20.9999H15.3333V24.9999H22C22.1768 24.9999 22.3464 25.0702 22.4714 25.1952L24 26.7238L25.5286 25.1952C25.6536 25.0702 25.8232 24.9999 26 24.9999H28.6667V15.6666H24.6667Z" fill="#1A1A1A"/>
<path fill-rule="evenodd" clip-rule="evenodd" d="M2 4.33329C2 3.9651 2.29848 3.66663 2.66667 3.66663H24C24.3682 3.66663 24.6667 3.9651 24.6667 4.33329V20.3333C24.6667 20.7015 24.3682 21 24 21H11.6095L9.13807 23.4714C8.87772 23.7317 8.45561 23.7317 8.19526 23.4714L5.72386 21H2.66667C2.29848 21 2 20.7015 2 20.3333V4.33329ZM3.33333 4.99996V19.6666H6C6.17681 19.6666 6.34638 19.7369 6.4714 19.8619L8.66667 22.0571L10.8619 19.8619C10.987 19.7369 11.1565 19.6666 11.3333 19.6666H23.3333V4.99996H3.33333Z" fill="#1A1A1A"/>
<path d="M8 15H12" stroke="#E38B28" stroke-width="1.5" stroke-miterlimit="2" stroke-linecap="round"/>
<path d="M8 9.66663H16" stroke="#E38B28" stroke-width="1.5" stroke-miterlimit="2" stroke-linecap="round"/>
</svg>
