<svg width="32" height="32" viewBox="0 0 32 32" fill="none" xmlns="http://www.w3.org/2000/svg">
<path fill-rule="evenodd" clip-rule="evenodd" d="M23.3333 14.9997C23.3333 14.6315 23.6318 14.333 24 14.333H29.3333C29.7015 14.333 30 14.6315 30 14.9997V25.6663C30 26.0345 29.7015 26.333 29.3333 26.333H26.2761L24.4714 28.1377C24.2111 28.3981 23.7889 28.3981 23.5286 28.1377L21.7239 26.333H14.6667C14.2985 26.333 14 26.0345 14 25.6663V20.333C14 19.9648 14.2985 19.6663 14.6667 19.6663H23.3333V14.9997ZM24.6667 15.6663V20.333C24.6667 20.7012 24.3682 20.9997 24 20.9997H15.3333V24.9997H22C22.1768 24.9997 22.3464 25.0699 22.4714 25.1949L24 26.7235L25.5286 25.1949C25.6536 25.0699 25.8232 24.9997 26 24.9997H28.6667V15.6663H24.6667Z" fill="white"/>
<path fill-rule="evenodd" clip-rule="evenodd" d="M2 4.33317C2 3.96498 2.29848 3.6665 2.66667 3.6665H24C24.3682 3.6665 24.6667 3.96498 24.6667 4.33317V20.3332C24.6667 20.7014 24.3682 20.9998 24 20.9998H11.6095L9.13807 23.4712C8.87772 23.7316 8.45561 23.7316 8.19526 23.4712L5.72386 20.9998H2.66667C2.29848 20.9998 2 20.7014 2 20.3332V4.33317ZM3.33333 4.99984V19.6665H6C6.17681 19.6665 6.34638 19.7367 6.4714 19.8618L8.66667 22.057L10.8619 19.8618C10.987 19.7367 11.1565 19.6665 11.3333 19.6665H23.3333V4.99984H3.33333Z" fill="white"/>
<path d="M8 15H12" stroke="#E38B28" stroke-width="1.5" stroke-miterlimit="2" stroke-linecap="round"/>
<path d="M8 9.6665H16" stroke="#E38B28" stroke-width="1.5" stroke-miterlimit="2" stroke-linecap="round"/>
</svg>
