<svg width="18" height="18" viewBox="0 0 18 18" fill="none" xmlns="http://www.w3.org/2000/svg">
<path d="M14.8929 3.10723C13.3189 1.5333 11.2262 0.666504 9.00033 0.666504C6.77445 0.666504 4.68177 1.5333 3.10781 3.10723C1.53382 4.68122 0.666992 6.77389 0.666992 8.99984C0.666992 11.2257 1.53382 13.3184 3.10781 14.8924C4.68177 16.4664 6.77445 17.3332 9.00033 17.3332C11.2262 17.3332 13.3189 16.4664 14.8929 14.8924C16.4668 13.3184 17.3337 11.2257 17.3337 8.99984C17.3337 6.77389 16.4668 4.68122 14.8929 3.10723ZM9.00033 16.3566C4.94378 16.3566 1.64355 13.0564 1.64355 8.99984C1.64355 4.94329 4.94378 1.64307 9.00033 1.64307C13.0569 1.64307 16.3571 4.94329 16.3571 8.99984C16.3571 13.0564 13.0569 16.3566 9.00033 16.3566Z" fill="white"/>
<path d="M14.634 7.18737C12.3714 6.17171 9.95661 5.65674 7.45687 5.65674C6.21383 5.65674 4.97272 5.78743 3.76807 6.04518C3.50436 6.10159 3.33633 6.3611 3.39274 6.6248C3.44915 6.88851 3.70866 7.05667 3.97236 7.00013C5.11003 6.75674 6.28236 6.6333 7.45684 6.6333C9.81784 6.6333 12.098 7.11947 14.234 8.07829C14.299 8.10745 14.3669 8.12122 14.4337 8.12122C14.6201 8.12122 14.7981 8.01387 14.8794 7.83278C14.9899 7.58678 14.88 7.29782 14.634 7.18737Z" fill="white"/>
<path d="M12.6074 11.7876C10.9847 11.0541 9.252 10.6821 7.45737 10.6821C6.50242 10.6821 5.55066 10.7901 4.62849 11.0032C4.36573 11.0639 4.20193 11.3261 4.26264 11.5888C4.32335 11.8516 4.58556 12.0153 4.84829 11.9547C5.69848 11.7582 6.57631 11.6587 7.45737 11.6587C9.11235 11.6587 10.7097 12.0014 12.2051 12.6774C12.2704 12.7069 12.3387 12.7209 12.406 12.7209C12.5919 12.7209 12.7696 12.6141 12.8512 12.4336C12.9623 12.188 12.8531 11.8987 12.6074 11.7876Z" fill="white"/>
<path d="M13.6371 9.45081C11.6893 8.57396 9.61014 8.12939 7.45747 8.12939C6.35629 8.12939 5.2575 8.24883 4.19161 8.48438C3.9283 8.54258 3.76202 8.80319 3.82019 9.0665C3.87837 9.32982 4.13907 9.49622 4.40232 9.43792C5.39913 9.21764 6.427 9.10596 7.45743 9.10596C9.47094 9.10596 11.4152 9.52161 13.2362 10.3413C13.3013 10.3706 13.3693 10.3845 13.4363 10.3845C13.6226 10.3845 13.8005 10.2774 13.8819 10.0965C13.9926 9.85059 13.883 9.56152 13.6371 9.45081Z" fill="white"/>
</svg>
