<svg width="18" height="16" viewBox="0 0 18 16" fill="none" xmlns="http://www.w3.org/2000/svg">
<path d="M0.954626 7.78969L5.03044 9.82099C5.18808 9.89877 5.3742 9.89322 5.5249 9.80502L9.15278 7.69593L6.95688 9.64182C6.84507 9.74113 6.78118 9.8828 6.78118 10.0321V14.7718C6.78118 15.2718 7.4194 15.4823 7.71871 15.085L9.48057 12.7426L13.8376 15.2239C14.1432 15.3996 14.5349 15.2232 14.6057 14.8739L17.3232 1.33186C17.4044 0.924905 16.9995 0.592951 16.6231 0.744344L0.997683 6.83827C0.578227 7.00216 0.551143 7.58898 0.954626 7.78969ZM16.1148 2.06105L13.7265 13.9621L9.59793 11.6106C9.37292 11.4822 9.08333 11.5391 8.92361 11.7502L7.82288 13.2135V10.2661L13.7612 5.00488C14.2314 4.5889 13.6911 3.84929 13.1543 4.16458L5.24433 8.76332L2.47203 7.38203L16.1148 2.06105Z" fill="white"/>
</svg>
