<svg width="18" height="16" viewBox="0 0 18 16" fill="none" xmlns="http://www.w3.org/2000/svg">
<path d="M17.3277 2.38576C17.2804 2.27155 17.2003 2.17393 17.0976 2.10523C16.9948 2.03653 16.874 1.99985 16.7504 1.99983H14.373C14.0406 1.43434 13.5676 0.964481 12.9999 0.635925C12.4322 0.307368 11.7891 0.131296 11.1332 0.124827C10.6445 0.118417 10.1595 0.209806 9.70669 0.393617C9.25388 0.577427 8.8424 0.849946 8.49646 1.19514C8.14042 1.54453 7.85783 1.96158 7.6653 2.42177C7.47278 2.88196 7.3742 3.37599 7.37537 3.87483V4.35061C4.23005 3.52092 1.6574 0.962327 1.63005 0.934983C1.5462 0.85039 1.43993 0.791519 1.32374 0.765301C1.20755 0.739084 1.08629 0.746612 0.974239 0.787C0.862187 0.827388 0.764009 0.898954 0.691266 0.993269C0.618523 1.08758 0.574246 1.20072 0.563647 1.31936C0.226928 5.05295 1.3113 7.55139 2.2824 8.98967C2.7559 9.70068 3.33192 10.3378 3.99177 10.8803C2.80193 12.2498 0.928491 12.9694 0.908178 12.9772C0.819986 13.0102 0.740399 13.0627 0.675363 13.1308C0.610327 13.199 0.561524 13.2809 0.532601 13.3705C0.503678 13.4601 0.495382 13.5551 0.508334 13.6484C0.521286 13.7417 0.55515 13.8308 0.607397 13.9092C0.665991 13.9967 0.900366 14.3037 1.47302 14.5905C2.18083 14.9451 3.11599 15.1248 4.25037 15.1248C9.77146 15.1248 14.3847 10.8733 14.8558 5.40295L17.1926 3.06701C17.2799 2.97956 17.3394 2.86815 17.3635 2.74689C17.3875 2.62563 17.3751 2.49995 17.3277 2.38576ZM13.8121 4.68342C13.7049 4.79084 13.6405 4.93357 13.6308 5.08498C13.3129 10.0139 9.19412 13.8748 4.25037 13.8748C3.42537 13.8748 2.84412 13.7655 2.4363 13.6342C3.33552 13.1459 4.58943 12.3061 5.39568 11.0967C5.443 11.0256 5.47524 10.9455 5.49041 10.8615C5.50558 10.7774 5.50337 10.6911 5.48389 10.608C5.46442 10.5248 5.4281 10.4465 5.37719 10.3779C5.32627 10.3093 5.26184 10.2519 5.18787 10.2092C5.15115 10.1881 1.7574 8.15139 1.75037 2.7092C3.00037 3.72483 5.28552 5.30061 7.89646 5.73967C7.98594 5.75476 8.07764 5.75018 8.16517 5.72625C8.25271 5.70232 8.33398 5.65962 8.40335 5.60111C8.47271 5.5426 8.5285 5.46968 8.56684 5.38743C8.60518 5.30518 8.62515 5.21557 8.62537 5.12483V3.87483C8.62466 3.54143 8.69066 3.21126 8.81946 2.90374C8.94826 2.59623 9.13727 2.31758 9.37537 2.0842C9.60361 1.85553 9.87539 1.67493 10.1746 1.55309C10.4739 1.43125 10.7945 1.37063 11.1176 1.37483C12.1066 1.38733 13.0308 1.99045 13.4176 2.87561C13.4663 2.98689 13.5464 3.08156 13.6481 3.14802C13.7498 3.21448 13.8687 3.24986 13.9902 3.24983H15.2402L13.8121 4.68342Z" fill="white"/>
</svg>
