<svg width="32" height="32" viewBox="0 0 32 32" fill="none" xmlns="http://www.w3.org/2000/svg">
<path fill-rule="evenodd" clip-rule="evenodd" d="M12.8587 16.708V16H13.8085V16.7091L14.0653 16.708C14.4395 16.7064 14.8061 16.8104 15.1203 17.0074C15.4345 17.2044 15.6827 17.4858 15.8346 17.8173C15.9864 18.1487 16.0354 18.5158 15.9755 18.8738C15.9155 19.2318 15.7493 19.5651 15.4971 19.833L15.3399 20L15.4971 20.167C15.7493 20.4349 15.9155 20.7682 15.9755 21.1262C16.0354 21.4842 15.9864 21.8513 15.8346 22.1827C15.6827 22.5142 15.4345 22.7956 15.1203 22.9926C14.8061 23.1896 14.4395 23.2936 14.0653 23.292L13.8085 23.2909V24H12.8587V23.292H10.667V22.3717H11.3976V17.6283H10.667V16.708H12.8587ZM14.0642 17.6283H12.3473V19.5398H14.0642C14.3257 19.5398 14.5766 19.4391 14.7615 19.2599C14.9465 19.0807 15.0504 18.8376 15.0504 18.5841C15.0504 18.3306 14.9465 18.0875 14.7615 17.9083C14.5766 17.729 14.3257 17.6283 14.0642 17.6283ZM14.0642 20.4602H12.3473V22.3717H14.0642C14.3257 22.3717 14.5766 22.271 14.7615 22.0917C14.9465 21.9125 15.0504 21.6694 15.0504 21.4159C15.0504 21.1624 14.9465 20.9193 14.7615 20.7401C14.5766 20.5609 14.3257 20.4602 14.0642 20.4602Z" fill="#F7931B"/>
<path fill-rule="evenodd" clip-rule="evenodd" d="M15.9147 2.71871C14.5365 2.90907 13.725 3.3172 13.2627 3.79367L13.1416 3.76753C11.8912 2.58577 9.04182 2.63714 8.13134 2.68678L7.89377 2.63554C7.75759 2.64624 7.63045 2.70789 7.53771 2.80819C7.44497 2.9085 7.39346 3.04008 7.39345 3.17669V4.31922C7.39283 5.04896 7.56209 5.76883 7.88783 6.42184C8.20284 7.05334 8.65583 7.60554 9.2129 8.03776C9.01966 8.26727 8.89687 8.54844 8.86032 8.84729C8.82332 9.14983 8.87644 9.45607 9.01231 9.72787C7.94979 10.4232 7.03073 11.3165 6.30535 12.3592C4.07344 14.8661 3.02765 19.0711 3.59311 22.6733C3.87616 24.4764 4.5637 26.134 5.7141 27.3536C6.86574 28.5746 8.47742 29.3523 10.5985 29.4L10.6 29.4L15.9237 29.4C19.0781 29.3642 21.1082 27.6192 22.1767 25.2454C23.2361 22.8916 23.3519 19.9186 22.6913 17.3699C22.8065 17.3139 22.9339 17.2473 23.0684 17.1771L23.0684 17.1771L23.1554 17.1317C23.3427 17.0341 23.5423 16.9319 23.7442 16.8402C24.151 16.6555 24.5559 16.5199 24.8826 16.5452L28.0216 16.5452C28.164 16.543 28.3 16.4848 28.3999 16.3833C28.4999 16.2817 28.556 16.145 28.556 16.0024C28.556 15.8599 28.4999 15.7231 28.4 15.6216C28.3 15.52 28.163 15.4619 28.0205 15.4597H24.8877C24.3591 15.4603 23.8374 15.5827 23.3636 15.8171L22.3879 16.3066L22.3805 16.283C22.3255 16.1075 22.2572 15.8898 22.1505 15.7251C22.0857 15.6252 22.0029 15.538 21.8937 15.4912C21.7829 15.4437 21.6535 15.4411 21.5047 15.4954L21.498 15.4987C21.3133 15.5906 21.2149 15.7186 21.1809 15.8709C21.1479 16.0183 21.1776 16.1793 21.2269 16.3356C21.2648 16.4559 21.3168 16.5803 21.3666 16.6996L21.3666 16.6996C21.3816 16.7354 21.3963 16.7707 21.4105 16.8053C21.4731 16.9587 21.5221 17.0979 21.5346 17.2174L21.5381 17.2293C22.2005 19.464 22.2096 22.2266 21.3443 24.4345C20.4806 26.6385 18.7486 28.2855 15.9222 28.3144L10.6007 28.3145C8.74113 28.268 7.35543 27.5607 6.38057 26.4616C5.40413 25.3607 4.83614 23.8623 4.62329 22.2301C4.19723 18.9629 5.1974 15.1851 7.14972 13.043L7.15507 13.0352C7.87135 11.9823 8.81281 11.102 9.91115 10.458C10.3472 10.5371 10.7915 10.5621 11.2337 10.5324C11.3752 10.5291 11.5098 10.4707 11.6089 10.3696C11.7084 10.2681 11.7641 10.1317 11.7641 9.98962C11.7641 9.84753 11.7084 9.7111 11.6089 9.60963C11.5094 9.50815 11.3728 9.44971 11.2307 9.44688H10.342C10.2334 9.44165 10.1309 9.39493 10.0558 9.31633C9.98027 9.23739 9.93815 9.13237 9.93815 9.02314C9.93815 8.91392 9.98029 8.8089 10.0558 8.72996C10.1309 8.65137 10.2334 8.60465 10.342 8.59943L10.9453 8.59944L10.9466 8.59942C11.0887 8.59657 11.224 8.53814 11.3234 8.43666C11.4229 8.33518 11.4786 8.19875 11.4786 8.05665C11.4786 7.91456 11.4229 7.77813 11.3234 7.67666C11.224 7.57518 11.0873 7.51674 10.9453 7.51391H10.3819C8.96452 6.77174 8.35885 5.2529 8.4741 3.69332C9.19524 3.67496 10.2226 3.71223 11.089 3.90723C11.5347 4.00753 11.9329 4.1485 12.2245 4.34152C12.5152 4.53391 12.6939 4.77457 12.7178 5.07341C12.731 5.20786 12.7937 5.33258 12.8939 5.42326C12.994 5.51393 13.1243 5.56408 13.2594 5.56391C13.3945 5.56374 13.5247 5.51327 13.6246 5.42234C13.7245 5.3314 13.7871 5.20535 13.8 5.07087C13.8232 4.77236 14.0013 4.53319 14.2918 4.34102C14.5833 4.14823 14.9815 4.00744 15.4276 3.90727C16.2949 3.71252 17.3242 3.67531 18.0485 3.69338C18.0944 4.34859 18.0096 5.00659 17.7989 5.62911C17.7476 5.763 17.7513 5.91179 17.8092 6.043C17.8674 6.17465 17.9752 6.27842 18.1093 6.33053L18.118 6.33263C18.2719 6.36976 18.4077 6.35729 18.5253 6.30075C18.6418 6.24468 18.734 6.14833 18.8072 6.02855C18.9522 5.79093 19.0309 5.44665 19.0745 5.08302C19.1182 4.71738 19.1273 4.32317 19.1279 3.98007C19.1281 3.85473 19.1271 3.73692 19.1263 3.62979V3.62957C19.1248 3.44091 19.1237 3.2854 19.1293 3.18027L19.1293 3.17669C19.1293 3.04008 19.0778 2.9085 18.985 2.80819C18.8923 2.70789 18.7642 2.64617 18.628 2.63547C17.7232 2.57673 16.8142 2.60467 15.9147 2.71871ZM19.415 7.18586H13.704C13.4166 7.18303 13.1349 7.2665 12.8955 7.42547C12.6559 7.5845 12.4694 7.81216 12.3605 8.07826C12.2104 8.45111 12.2138 8.79969 12.3255 9.11125C12.4368 9.42146 12.654 9.69087 12.9257 9.91089C13.4674 10.3497 14.2379 10.6023 14.8689 10.5914L17.5037 10.5914C17.7707 11.4378 18.6237 13.198 21.1962 13.9844C21.3339 14.0265 21.4826 14.0121 21.6096 13.9445C21.7367 13.8768 21.8317 13.7615 21.8737 13.6239C21.9158 13.4862 21.9014 13.3375 21.8338 13.2104C21.7661 13.0834 21.6508 12.9884 21.5132 12.9463C18.8167 12.122 18.4773 10.0548 18.4651 9.97401C18.447 9.84437 18.3828 9.7256 18.2841 9.63958C18.1853 9.55346 18.0587 9.50598 17.9276 9.50591L14.8684 9.50586L14.8658 9.50596C14.608 9.51584 14.1712 9.41068 13.8272 9.22063C13.6557 9.12586 13.5133 9.01322 13.4275 8.88917C13.3436 8.76795 13.3144 8.63754 13.3621 8.49617C13.3897 8.42924 13.4368 8.37207 13.4972 8.33202C13.5581 8.29161 13.6306 8.27049 13.7037 8.2714H19.4149C19.646 8.27164 19.8739 8.32544 20.0808 8.42853L23.287 10.0316C23.6447 10.2099 24.0389 10.3029 24.4386 10.3034L28.0238 10.3034C28.1663 10.3013 28.3023 10.2431 28.4024 10.1416C28.5025 10.04 28.5585 9.90318 28.5585 9.76061C28.5585 9.61804 28.5024 9.4812 28.4024 9.37965C28.3023 9.27809 28.1653 9.21998 28.0228 9.21787H24.4387C24.2074 9.21766 23.9793 9.1638 23.7724 9.06053L20.5661 7.4574C20.2085 7.27932 19.8145 7.18639 19.415 7.18586ZM13.3335 13.3333C11.566 13.3354 9.87146 14.0402 8.62166 15.2932C7.37186 16.5463 6.66884 18.2452 6.66683 20.0173C7.03307 28.8844 19.6353 28.8818 20.0002 20.0172C19.9981 18.2451 19.2951 16.5462 18.0453 15.2932C16.7955 14.0402 15.101 13.3353 13.3335 13.3333ZM13.3335 25.5388C11.8734 25.5371 10.4735 24.9549 9.44109 23.9198C8.40864 22.8846 7.82788 21.4812 7.82622 20.0173C8.12878 12.6922 18.5393 12.6944 18.8407 20.0173C18.8391 21.4812 18.2583 22.8846 17.2258 23.9198C16.1934 24.9549 14.7936 25.5371 13.3335 25.5388Z" fill="black"/>
</svg>
