<svg width="32" height="32" viewBox="0 0 32 32" fill="none" xmlns="http://www.w3.org/2000/svg">
<path fill-rule="evenodd" clip-rule="evenodd" d="M12.8577 16.708V16H13.8075V16.7091L14.0643 16.708C14.4385 16.7064 14.8051 16.8104 15.1193 17.0074C15.4335 17.2044 15.6817 17.4858 15.8336 17.8173C15.9855 18.1487 16.0344 18.5158 15.9745 18.8738C15.9146 19.2318 15.7483 19.5651 15.4961 19.833L15.3389 20L15.4961 20.167C15.7483 20.4349 15.9146 20.7682 15.9745 21.1262C16.0344 21.4842 15.9855 21.8513 15.8336 22.1827C15.6817 22.5142 15.4335 22.7956 15.1193 22.9926C14.8051 23.1896 14.4385 23.2936 14.0643 23.292L13.8075 23.2909V24H12.8577V23.292H10.666V22.3717H11.3966V17.6283H10.666V16.708H12.8577ZM14.0632 17.6283H12.3463V19.5398H14.0632C14.3247 19.5398 14.5756 19.4391 14.7606 19.2599C14.9455 19.0807 15.0494 18.8376 15.0494 18.5841C15.0494 18.3306 14.9455 18.0875 14.7606 17.9083C14.5756 17.729 14.3247 17.6283 14.0632 17.6283ZM14.0632 20.4602H12.3463V22.3717H14.0632C14.3247 22.3717 14.5756 22.271 14.7606 22.0917C14.9455 21.9125 15.0494 21.6694 15.0494 21.4159C15.0494 21.1624 14.9455 20.9193 14.7606 20.7401C14.5756 20.5609 14.3247 20.4602 14.0632 20.4602Z" fill="#F7931B"/>
<path fill-rule="evenodd" clip-rule="evenodd" d="M15.9142 2.71859C14.536 2.90895 13.7245 3.31707 13.2623 3.79355L13.1411 3.76741C11.8908 2.58565 9.04133 2.63702 8.13085 2.68666L7.89329 2.63541C7.7571 2.64612 7.62996 2.70777 7.53722 2.80807C7.44448 2.90838 7.39297 3.03996 7.39296 3.17657V4.3191C7.39235 5.04884 7.56161 5.76871 7.88735 6.42172C8.20235 7.05322 8.65534 7.60542 9.21241 8.03764C9.01917 8.26715 8.89638 8.54832 8.85983 8.84717C8.82283 9.1497 8.87595 9.45595 9.01182 9.72775C7.9493 10.4231 7.03024 11.3164 6.30486 12.3591C4.07296 14.866 3.02716 19.071 3.59262 22.6732C3.87567 24.4763 4.56321 26.1339 5.71361 27.3535C6.86525 28.5744 8.47693 29.3522 10.598 29.3998L10.5995 29.3999L15.9232 29.3999C19.0776 29.364 21.1077 27.619 22.1762 25.2452C23.2356 22.8915 23.3514 19.9184 22.6908 17.3697C22.806 17.3138 22.9334 17.2472 23.0679 17.177L23.0679 17.177L23.1549 17.1316C23.3423 17.034 23.5418 16.9317 23.7437 16.8401C24.1505 16.6554 24.5554 16.5198 24.8821 16.5451L28.0211 16.5451C28.1636 16.5429 28.2995 16.4847 28.3995 16.3832C28.4994 16.2816 28.5555 16.1448 28.5555 16.0023C28.5555 15.8598 28.4995 15.723 28.3995 15.6215C28.2995 15.5199 28.1626 15.4618 28.0201 15.4595H24.8872C24.3586 15.4601 23.8369 15.5825 23.3631 15.817L22.3874 16.3064L22.38 16.2829C22.325 16.1074 22.2567 15.8897 22.15 15.725C22.0852 15.6251 22.0024 15.5379 21.8933 15.4911C21.7824 15.4435 21.653 15.441 21.5042 15.4953L21.4975 15.4986C21.3128 15.5905 21.2144 15.7185 21.1804 15.8708C21.1475 16.0182 21.1771 16.1792 21.2264 16.3355C21.2643 16.4558 21.3163 16.5802 21.3661 16.6995L21.3661 16.6995C21.3811 16.7353 21.3959 16.7706 21.41 16.8052C21.4726 16.9586 21.5216 17.0978 21.5341 17.2173L21.5376 17.2291C22.2 19.4638 22.2091 22.2265 21.3439 24.4344C20.4802 26.6384 18.7481 28.2854 15.9217 28.3143L10.6002 28.3143C8.74064 28.2678 7.35494 27.5606 6.38008 26.4615C5.40364 25.3606 4.83565 23.8622 4.6228 22.23C4.19674 18.9628 5.19691 15.185 7.14923 13.0429L7.15458 13.035C7.87086 11.9821 8.81232 11.1019 9.91066 10.4578C10.3468 10.537 10.791 10.562 11.2332 10.5322C11.3747 10.529 11.5094 10.4706 11.6084 10.3695C11.7079 10.268 11.7636 10.1316 11.7636 9.9895C11.7636 9.8474 11.7079 9.71098 11.6084 9.6095C11.5089 9.50803 11.3723 9.44959 11.2303 9.44676H10.3415C10.2329 9.44153 10.1304 9.39481 10.0553 9.31621C9.97979 9.23727 9.93766 9.13225 9.93766 9.02302C9.93767 8.91379 9.9798 8.80878 10.0553 8.72984C10.1304 8.65125 10.2329 8.60453 10.3415 8.59931L10.9448 8.59932L10.9461 8.5993C11.0882 8.59645 11.2235 8.53801 11.323 8.43654C11.4224 8.33506 11.4781 8.19863 11.4781 8.05653C11.4781 7.91444 11.4224 7.77801 11.3229 7.67654C11.2235 7.57506 11.0868 7.51662 10.9448 7.51378H10.3814C8.96403 6.77161 8.35836 5.25277 8.47362 3.6932C9.19476 3.67483 10.2221 3.7121 11.0885 3.90711C11.5342 4.00741 11.9324 4.14838 12.224 4.3414C12.5147 4.53379 12.6934 4.77445 12.7173 5.07328C12.7305 5.20773 12.7933 5.33245 12.8934 5.42313C12.9935 5.51381 13.1239 5.56395 13.259 5.56378C13.394 5.56361 13.5242 5.51314 13.6241 5.42221C13.7241 5.33128 13.7866 5.20523 13.7995 5.07075C13.8227 4.77224 14.0009 4.53307 14.2913 4.3409C14.5828 4.1481 14.9811 4.00731 15.4271 3.90715C16.2944 3.7124 17.3237 3.67519 18.048 3.69326C18.0939 4.34847 18.0091 5.00647 17.7984 5.62898C17.7471 5.76288 17.7508 5.91166 17.8088 6.04288C17.8669 6.17453 17.9747 6.2783 18.1088 6.33041L18.1175 6.33251C18.2714 6.36963 18.4072 6.35717 18.5248 6.30063C18.6414 6.24456 18.7335 6.14821 18.8067 6.02842C18.9517 5.79081 19.0304 5.44653 19.074 5.0829C19.1177 4.71726 19.1269 4.32305 19.1274 3.97994C19.1276 3.8546 19.1266 3.73679 19.1258 3.62966V3.62945C19.1243 3.44079 19.1232 3.28528 19.1288 3.18015L19.1288 3.17656C19.1288 3.03995 19.0773 2.90837 18.9845 2.80807C18.8918 2.70777 18.7637 2.64605 18.6275 2.63535C17.7228 2.5766 16.8137 2.60454 15.9142 2.71859ZM19.4145 7.18574H13.7035C13.4161 7.18291 13.1345 7.26638 12.895 7.42535C12.6554 7.58438 12.4689 7.81204 12.36 8.07814C12.2099 8.45099 12.2133 8.79957 12.325 9.11113C12.4363 9.42134 12.6536 9.69074 12.9252 9.91077C13.4669 10.3496 14.2374 10.6022 14.8684 10.5913L17.5032 10.5913C17.7702 11.4376 18.6232 13.1979 21.1957 13.9843C21.3334 14.0263 21.4821 14.012 21.6091 13.9443C21.7362 13.8767 21.8312 13.7614 21.8732 13.6237C21.9153 13.4861 21.9009 13.3374 21.8333 13.2103C21.7657 13.0832 21.6503 12.9882 21.5127 12.9462C18.8162 12.1219 18.4768 10.0547 18.4646 9.97389C18.4465 9.84425 18.3823 9.72547 18.2836 9.63945C18.1848 9.55333 18.0582 9.50586 17.9272 9.50579L14.8679 9.50574L14.8653 9.50584C14.6075 9.51572 14.1707 9.41056 13.8267 9.22051C13.6552 9.12574 13.5128 9.0131 13.427 8.88905C13.3431 8.76783 13.3139 8.63742 13.3616 8.49605C13.3893 8.42911 13.4363 8.37195 13.4967 8.3319C13.5576 8.29149 13.6301 8.27037 13.7032 8.27128H19.4144C19.6455 8.27152 19.8734 8.32531 20.0803 8.4284L23.2865 10.0315C23.6442 10.2098 24.0384 10.3028 24.4381 10.3033L28.0233 10.3033C28.1659 10.3011 28.3018 10.243 28.4019 10.1415C28.502 10.0399 28.5581 9.90306 28.558 9.76049C28.558 9.61792 28.5019 9.48108 28.4019 9.37952C28.3018 9.27797 28.1648 9.21986 28.0223 9.21774H24.4382C24.2069 9.21754 23.9788 9.16368 23.7719 9.06041L20.5656 7.45728C20.208 7.2792 19.814 7.18626 19.4145 7.18574ZM13.333 13.3332C11.5655 13.3352 9.87098 14.0401 8.62117 15.2931C7.37137 16.5462 6.66835 18.2451 6.66634 20.0172C7.03258 28.8843 19.6348 28.8817 19.9997 20.0171C19.9976 18.245 19.2946 16.5461 18.0448 15.2931C16.795 14.04 15.1005 13.3352 13.333 13.3332ZM13.333 25.5387C11.8729 25.537 10.4731 24.9548 9.4406 23.9196C8.40815 22.8845 7.82739 21.481 7.82573 20.0172C8.12829 12.6921 18.5388 12.6942 18.8402 20.0172C18.8386 21.4811 18.2578 22.8845 17.2254 23.9196C16.1929 24.9548 14.7931 25.537 13.333 25.5387Z" fill="white"/>
</svg>
