<svg width="18" height="14" viewBox="0 0 18 14" fill="none" xmlns="http://www.w3.org/2000/svg">
<path d="M11.8469 6.47969L8.09688 3.97969C8.00273 3.91688 7.89329 3.88081 7.78024 3.87533C7.6672 3.86985 7.55479 3.89517 7.45501 3.94859C7.35523 4.00201 7.27183 4.08152 7.21371 4.17864C7.15559 4.27575 7.12493 4.38682 7.125 4.5V9.5C7.12493 9.61318 7.15559 9.72426 7.21371 9.82137C7.27183 9.91848 7.35523 9.99799 7.45501 10.0514C7.55479 10.1048 7.6672 10.1302 7.78024 10.1247C7.89329 10.1192 8.00273 10.0831 8.09688 10.0203L11.8469 7.52032C11.9326 7.46326 12.0029 7.38591 12.0515 7.29514C12.1002 7.20436 12.1256 7.10298 12.1256 7C12.1256 6.89702 12.1002 6.79564 12.0515 6.70487C12.0029 6.61409 11.9326 6.53674 11.8469 6.47969ZM8.375 8.33203V5.67188L10.3734 7L8.375 8.33203ZM17.307 2.43125C17.2334 2.14324 17.0924 1.87686 16.8955 1.65409C16.6987 1.43132 16.4517 1.25854 16.175 1.15C13.4969 0.115628 9.23438 0.125003 9 0.125003C8.76562 0.125003 4.50312 0.115628 1.825 1.15C1.54825 1.25854 1.30128 1.43132 1.10445 1.65409C0.907621 1.87686 0.766582 2.14324 0.692969 2.43125C0.490625 3.21094 0.25 4.63594 0.25 7C0.25 9.36407 0.490625 10.7891 0.692969 11.5688C0.766472 11.8569 0.907461 12.1234 1.1043 12.3464C1.30113 12.5693 1.54816 12.7422 1.825 12.8508C4.39062 13.8406 8.40625 13.875 8.94844 13.875H9.05156C9.59375 13.875 13.6117 13.8406 16.175 12.8508C16.4518 12.7422 16.6989 12.5693 16.8957 12.3464C17.0925 12.1234 17.2335 11.8569 17.307 11.5688C17.5094 10.7875 17.75 9.36407 17.75 7C17.75 4.63594 17.5094 3.21094 17.307 2.43125ZM16.0969 11.2594C16.0731 11.3552 16.0269 11.4441 15.9621 11.5186C15.8973 11.5932 15.8158 11.6513 15.7242 11.6883C13.2516 12.643 9.04609 12.6258 9.00547 12.6258H9C8.95781 12.6258 4.75547 12.6414 2.28125 11.6883C2.18966 11.6513 2.10814 11.5932 2.04337 11.5186C1.97859 11.4441 1.9324 11.3552 1.90859 11.2594C1.71875 10.5461 1.5 9.23203 1.5 7C1.5 4.76797 1.71875 3.45391 1.90313 2.74453C1.92649 2.64811 1.97248 2.55864 2.03728 2.48351C2.10208 2.40839 2.18383 2.34977 2.27578 2.3125C4.66016 1.39141 8.65547 1.375 8.98281 1.375H9.00391C9.04609 1.375 13.2523 1.36094 15.7227 2.3125C15.8142 2.34947 15.8958 2.40761 15.9605 2.48216C16.0253 2.55671 16.0715 2.64556 16.0953 2.74141C16.2812 3.45391 16.5 4.76797 16.5 7C16.5 9.23203 16.2812 10.5461 16.0969 11.2555V11.2594Z" fill="white"/>
</svg>
