<svg width="320" height="200" viewBox="0 0 320 200" fill="none" xmlns="http://www.w3.org/2000/svg">
<path d="M180.441 53.1439H74.2676V159.372H180.441V53.1439Z" fill="#DEDEDE"/>
<path d="M180.441 160.115H74.2679C73.8506 160.115 73.5093 159.78 73.5093 159.371V53.1438C73.5093 52.7348 73.8506 52.4001 74.2679 52.4001H180.441C180.858 52.4001 181.2 52.7348 181.2 53.1438V159.371C181.2 159.78 180.858 160.115 180.441 160.115ZM75.0265 158.628H179.682V53.8875H75.0265V158.628Z" fill="#040000"/>
<path d="M180.441 70.5312H74.2676V161.35H180.441V70.5312Z" fill="white"/>
<path d="M180.441 162.086H74.2679C73.8506 162.086 73.5093 161.751 73.5093 161.342V70.5238C73.5093 70.1147 73.8506 69.7801 74.2679 69.7801H180.441C180.858 69.7801 181.2 70.1147 181.2 70.5238V161.342C181.2 161.751 180.858 162.086 180.441 162.086ZM75.0265 160.599H179.682V71.2675H75.0265V160.599Z" fill="#040000"/>
<path d="M169.76 63.6076C170.875 63.6374 171.801 62.7747 171.831 61.6815C171.862 60.5883 170.982 59.681 169.866 59.6512C169.829 59.6512 169.791 59.6512 169.753 59.6512C168.637 59.681 167.758 60.5883 167.788 61.6815C167.818 62.7301 168.675 63.5779 169.753 63.6076H169.76ZM158.92 63.6076C160.035 63.6374 160.961 62.7747 160.991 61.6815C161.021 60.5883 160.141 59.681 159.026 59.6512C158.988 59.6512 158.95 59.6512 158.912 59.6512C157.797 59.681 156.917 60.5883 156.948 61.6815C156.978 62.7301 157.835 63.5779 158.912 63.6076H158.92Z" fill="#040000"/>
<path d="M180.524 67.4822H159.336V156.404H180.524V67.4822Z" fill="#040000"/>
<path d="M180.524 157.148H159.337C158.919 157.148 158.578 156.813 158.578 156.404V67.4822C158.578 67.0732 158.919 66.7385 159.337 66.7385H180.524C180.942 66.7385 181.283 67.0732 181.283 67.4822V156.404C181.283 156.813 180.942 157.148 180.524 157.148ZM160.095 155.661H179.766V68.2259H160.095V155.661Z" fill="#040000"/>
<path d="M277.025 47.0457H160.937V64.3512H277.025V47.0457Z" fill="#DEDEDE"/>
<path d="M277.025 65.0948H160.937C160.52 65.0948 160.179 64.7601 160.179 64.3511V47.0456C160.179 46.6366 160.52 46.3019 160.937 46.3019H277.025C277.443 46.3019 277.784 46.6366 277.784 47.0456V64.3511C277.784 64.7601 277.443 65.0948 277.025 65.0948ZM161.696 63.6074H276.267V47.7893H161.696V63.6074Z" fill="#040000"/>
<path d="M277.026 64.4332H164.799V151.377H277.026V64.4332ZM266.353 57.5096C267.468 57.5393 268.393 56.6766 268.424 55.5834C268.454 54.4902 267.574 53.5829 266.459 53.5532C266.421 53.5532 266.383 53.5532 266.345 53.5532C265.23 53.5829 264.35 54.4902 264.38 55.5834C264.411 56.632 265.268 57.4798 266.345 57.5096H266.353ZM255.512 57.5096C256.627 57.5393 257.553 56.6766 257.583 55.5834C257.614 54.4902 256.734 53.5829 255.618 53.5532C255.581 53.5532 255.543 53.5532 255.505 53.5532C254.39 53.5829 253.51 54.4902 253.54 55.5834C253.57 56.632 254.427 57.4798 255.505 57.5096H255.512Z" fill="white"/>
<path d="M277.026 152.121H164.799C164.382 152.121 164.041 151.786 164.041 151.377V64.4333C164.041 64.0243 164.382 63.6896 164.799 63.6896H277.026C277.443 63.6896 277.784 64.0243 277.784 64.4333V151.377C277.784 151.786 277.443 152.121 277.026 152.121ZM165.558 150.634H276.267V65.177H165.558V150.634ZM266.405 58.2607C266.405 58.2607 266.352 58.2607 266.33 58.2607C264.858 58.2235 263.675 57.0559 263.629 55.6132C263.606 54.8844 263.879 54.1928 264.388 53.6648C264.896 53.1367 265.586 52.8318 266.33 52.817C266.383 52.817 266.436 52.817 266.481 52.817C268.006 52.8541 269.22 54.111 269.182 55.6132C269.136 57.0857 267.9 58.2607 266.405 58.2607ZM266.436 54.3043C266.034 54.3118 265.715 54.4531 265.488 54.691C265.26 54.929 265.131 55.2414 265.146 55.576C265.161 56.2305 265.7 56.7585 266.368 56.7733C267.058 56.7733 267.642 56.2528 267.665 55.576C267.672 55.2488 267.551 54.9364 267.323 54.691C267.096 54.4531 266.777 54.3118 266.443 54.3043H266.436ZM255.558 58.2607C255.558 58.2607 255.504 58.2607 255.482 58.2607C254.01 58.2235 252.827 57.0559 252.781 55.6132C252.758 54.8844 253.031 54.1928 253.54 53.6648C254.048 53.1367 254.738 52.8318 255.482 52.817C255.535 52.817 255.588 52.817 255.633 52.817C256.369 52.8393 257.06 53.1367 257.568 53.6648C258.076 54.1928 258.349 54.8844 258.326 55.6132C258.281 57.0857 257.044 58.2607 255.55 58.2607H255.558ZM255.588 54.3043C255.186 54.3118 254.867 54.4531 254.64 54.691C254.412 54.929 254.283 55.2414 254.298 55.576C254.313 56.2305 254.852 56.7585 255.52 56.7733C256.21 56.7733 256.794 56.2528 256.817 55.576C256.824 55.2488 256.703 54.9364 256.475 54.691C256.248 54.4531 255.929 54.3118 255.595 54.3043H255.588Z" fill="#040000"/>
<path d="M74.269 138.273L119.497 101.186L103.02 86.5205C99.4089 83.226 98.9007 77.7822 101.927 73.9077C105.288 69.624 111.592 68.9622 115.795 72.4277L124.625 79.7604L171.278 74.1531L173.971 96.4041C173.046 100.851 171.536 105.142 169.344 109.099C167.159 113.137 164.216 116.766 160.855 119.897L111.675 161.268H74.3525V138.273H74.269Z" fill="white"/>
<path d="M111.675 162.004H74.3526C73.9353 162.004 73.594 161.67 73.594 161.261V138.608C73.594 138.608 73.5636 138.549 73.556 138.519C73.4498 138.229 73.5409 137.894 73.7836 137.693L118.344 101.156L102.512 87.0634C98.5745 83.4714 98.0663 77.626 101.328 73.454C103.081 71.2229 105.614 69.8248 108.467 69.5199C111.311 69.2224 114.095 70.0479 116.288 71.855L124.867 78.9795L171.195 73.4168C171.392 73.3945 171.597 73.4465 171.756 73.573C171.916 73.6919 172.014 73.8704 172.045 74.0712L174.738 96.3222C174.745 96.404 174.738 96.4784 174.73 96.5602C173.759 101.231 172.181 105.574 170.027 109.456C167.903 113.39 164.99 117.086 161.394 120.44L112.191 161.833C112.055 161.952 111.88 162.012 111.698 162.012L111.675 162.004ZM75.1112 160.517H111.395L160.355 119.324C163.806 116.104 166.613 112.542 168.669 108.742C170.732 105.008 172.249 100.851 173.198 96.3668L170.611 74.9785L124.716 80.4892C124.511 80.5115 124.291 80.452 124.132 80.3182L115.302 72.9854C113.428 71.446 111.061 70.7321 108.618 70.9924C106.183 71.2527 104.014 72.4426 102.519 74.3538C99.7428 77.9161 100.175 82.9062 103.528 85.9627L119.997 100.628C120.157 100.769 120.248 100.978 120.248 101.193C120.248 101.409 120.141 101.61 119.975 101.751L75.1036 138.541V160.509L75.1112 160.517Z" fill="#040000"/>
<path d="M156.901 86.0222L151.689 44.6511C151.189 40.3675 154.208 36.4929 158.585 35.9128C162.955 35.4146 166.907 38.3819 167.499 42.6729L172.543 84.7877" fill="#040000"/>
<path d="M156.901 86.7659C156.522 86.7659 156.195 86.4908 156.15 86.1115L150.938 44.7404C150.385 40.0106 153.692 35.8088 158.486 35.1767C163.326 34.6338 167.605 37.8762 168.25 42.5763L173.294 84.6985C173.34 85.1075 173.044 85.4794 172.627 85.524C172.217 85.576 171.83 85.2786 171.785 84.8695L166.74 42.7548C166.209 38.8876 162.666 36.1955 158.668 36.6491C154.724 37.1697 151.978 40.6502 152.44 44.5619L157.652 85.9256C157.705 86.3346 157.409 86.7064 156.992 86.7585C156.962 86.7585 156.931 86.7585 156.901 86.7585V86.7659Z" fill="#040000"/>
<path d="M147.905 80.9132L142.36 36.7385C141.768 32.2094 145.136 28.0002 149.756 27.4275C154.384 26.8475 158.67 30.1494 159.254 34.6785L164.799 78.8532" fill="white"/>
<path d="M147.905 81.6569C147.525 81.6569 147.199 81.3817 147.154 81.0024L141.608 36.8277C141.297 34.4405 141.972 32.0681 143.505 30.142C145.037 28.2233 147.222 26.9962 149.657 26.6913C154.717 26.0666 159.359 29.6065 160.004 34.5892L165.55 78.7639C165.603 79.173 165.307 79.5448 164.89 79.5894C164.48 79.6415 164.093 79.3515 164.048 78.9424L158.502 34.7677C157.964 30.6031 154.08 27.6283 149.854 28.1638C147.814 28.4166 145.985 29.4429 144.703 31.0567C143.421 32.6705 142.852 34.6561 143.11 36.6418L148.656 80.8165C148.709 81.2255 148.413 81.5974 147.996 81.642C147.965 81.642 147.935 81.642 147.905 81.642V81.6569Z" fill="#040000"/>
<path d="M137.648 77.1204L132.103 32.9456C131.511 28.4166 134.88 24.2073 139.499 23.6347C144.119 23.0546 148.413 26.3566 148.997 30.8856L154.542 75.0604" fill="white"/>
<path d="M137.649 77.8638C137.269 77.8638 136.943 77.5887 136.898 77.2094L131.352 33.0346C131.041 30.6474 131.717 28.2751 133.249 26.3489C134.781 24.4302 136.966 23.2032 139.401 22.8983C144.461 22.2661 149.104 25.8135 149.748 30.7962L155.294 74.9709C155.347 75.3799 155.051 75.7518 154.634 75.7964C154.224 75.8485 153.837 75.5584 153.792 75.1494L148.246 30.9747C147.708 26.81 143.831 23.8427 139.598 24.3707C137.558 24.6236 135.73 25.6499 134.447 27.2637C133.165 28.8775 132.597 30.8631 132.854 32.8487L138.4 77.0235C138.453 77.4325 138.157 77.8043 137.74 77.849C137.709 77.849 137.679 77.849 137.649 77.849V77.8638Z" fill="#040000"/>
<path d="M124.791 80.0876L119.663 37.482C119.071 32.9456 122.44 28.7438 127.06 28.1711C131.687 27.5911 135.973 30.893 136.557 35.422L142.102 79.5968" fill="white"/>
<path d="M124.79 80.8314C124.411 80.8314 124.085 80.5562 124.039 80.177L118.911 37.5714C118.267 32.6185 121.885 28.0671 126.968 27.435C129.403 27.1301 131.83 27.792 133.795 29.2942C135.752 30.7964 137.004 32.9382 137.315 35.3329L142.86 79.5077C142.913 79.9167 142.617 80.2885 142.2 80.3331C141.791 80.3778 141.404 80.0952 141.358 79.6861L135.813 35.5114C135.555 33.5183 134.508 31.7186 132.862 30.4618C131.216 29.205 129.19 28.6472 127.165 28.9C122.909 29.4281 119.89 33.2357 120.421 37.378L125.549 79.991C125.595 80.4001 125.299 80.7719 124.881 80.8165C124.851 80.8165 124.821 80.8165 124.79 80.8165V80.8314Z" fill="#040000"/>
<path d="M132.862 70.9404C132.862 70.9404 136.731 89.4804 137.824 89.4804C138.916 89.4804 169.176 96.8132 169.176 96.8132L171.361 80.2513L162.872 72.3386L132.862 70.9404Z" fill="white"/>
<path d="M144.377 98.4639C144.377 98.4639 145.47 79.0984 124.791 80.0875L144.377 98.4639Z" fill="white"/>
<path d="M169.261 108.273L146.731 87.673C143.12 84.3785 142.611 78.9348 145.638 75.0676C148.999 70.784 155.303 70.1221 159.505 73.5877L168.335 80.9204L189.098 59.9039L169.261 108.28V108.273Z" fill="#040000"/>
<path d="M169.26 109.017C169.07 109.017 168.881 108.95 168.744 108.816L146.214 88.216C142.284 84.6315 141.776 78.7861 145.038 74.6141C146.79 72.383 149.324 70.9849 152.176 70.68C155.029 70.3751 157.805 71.208 159.997 73.0151L168.289 79.9016L188.559 59.3834C188.809 59.1306 189.211 59.086 189.514 59.2793C189.818 59.4727 189.939 59.852 189.803 60.1792L169.965 108.556C169.874 108.786 169.67 108.95 169.427 109.002C169.374 109.017 169.313 109.017 169.26 109.017ZM153.322 72.1004C152.996 72.1004 152.669 72.1153 152.336 72.1525C149.9 72.4128 147.738 73.6027 146.236 75.5139C143.452 79.0762 143.892 84.0663 147.245 87.1228L168.964 106.987L186.95 63.139L168.881 81.4262C168.6 81.7088 168.152 81.7311 167.849 81.4783L159.019 74.1455C157.403 72.8144 155.408 72.1004 153.322 72.1004Z" fill="#040000"/>
<path d="M277.028 129.29L218.942 79.0984L190.699 54.7056L171.621 78.9348L162.798 71.6021C158.595 68.144 152.292 68.7984 148.923 73.082C145.897 76.9566 146.405 82.3929 150.016 85.6949L221.976 151.541L276.952 151.377V129.29H277.035H277.028Z" fill="white"/>
<path d="M221.968 152.284C221.778 152.284 221.589 152.21 221.452 152.083L149.492 86.2378C145.562 82.6533 145.054 76.8079 148.316 72.6359C150.068 70.4048 152.602 69.0067 155.454 68.7018C158.306 68.3969 161.083 69.2298 163.275 71.037L171.498 77.8714L190.099 54.2595C190.228 54.0959 190.418 53.9917 190.63 53.9769C190.843 53.9546 191.047 54.0215 191.207 54.1628L277.535 128.747C277.77 128.948 277.854 129.275 277.74 129.565C277.732 129.595 277.717 129.617 277.702 129.647V151.392C277.702 151.801 277.361 152.136 276.943 152.136L221.968 152.299V152.284ZM156.6 70.1297C156.273 70.1297 155.947 70.1445 155.613 70.1817C153.178 70.442 151.016 71.6319 149.514 73.5432C146.738 77.1054 147.17 82.0955 150.523 85.152L222.264 150.797L276.185 150.633V129.55L190.805 55.7915L172.219 79.3885C172.09 79.5521 171.9 79.6488 171.696 79.6711C171.491 79.6934 171.286 79.6265 171.127 79.5001L162.297 72.1673C160.673 70.8362 158.686 70.1222 156.6 70.1222V70.1297Z" fill="#040000"/>
<path d="M203.896 85.1968L198.685 43.8257C198.184 39.5421 201.203 35.6675 205.58 35.0875C209.95 34.5892 213.902 37.5565 214.494 41.8475L218.863 79.0168" fill="white"/>
<path d="M203.889 85.9405C203.509 85.9405 203.183 85.6653 203.138 85.286L197.926 43.915C197.372 39.1852 200.68 34.9833 205.467 34.3512C210.306 33.8083 214.585 37.0508 215.23 41.7434L219.607 78.9276C219.652 79.3366 219.357 79.701 218.939 79.753C218.522 79.7977 218.15 79.5076 218.097 79.0986L213.728 41.9293C213.197 38.0622 209.654 35.3775 205.656 35.8237C201.712 36.3443 198.973 39.8173 199.428 43.7365L204.64 85.1001C204.693 85.5092 204.397 85.881 203.98 85.933C203.949 85.933 203.919 85.933 203.889 85.933V85.9405Z" fill="#040000"/>
<path d="M194.141 80.0876L188.596 35.9129C188.004 31.3764 191.372 27.1746 195.992 26.602C200.612 26.0219 204.906 29.3239 205.49 33.8529L211.035 78.0276" fill="white"/>
<path d="M194.14 80.8314C193.761 80.8314 193.435 80.5563 193.389 80.177L187.844 36.0022C187.533 33.615 188.208 31.2427 189.741 29.3165C191.273 27.3978 193.458 26.1707 195.9 25.8658C198.335 25.5609 200.755 26.2228 202.728 27.725C204.685 29.2273 205.937 31.3691 206.248 33.7563L211.793 77.9311C211.846 78.3401 211.55 78.7119 211.133 78.7565C210.716 78.8086 210.336 78.5186 210.291 78.1095L204.746 33.9348C204.488 31.9417 203.441 30.1495 201.795 28.8852C200.149 27.6284 198.131 27.0706 196.098 27.3235C194.057 27.5763 192.229 28.6026 190.947 30.2164C189.665 31.8302 189.096 33.8158 189.354 35.8014L194.899 79.9762C194.952 80.3852 194.656 80.7571 194.239 80.8017C194.209 80.8017 194.178 80.8017 194.148 80.8017L194.14 80.8314Z" fill="#040000"/>
<path d="M183.21 76.295L177.665 32.1277C177.073 27.5912 180.441 23.3894 185.061 22.8168C189.688 22.2367 193.974 25.5386 194.559 30.0677L200.104 74.2424" fill="white"/>
<path d="M183.209 77.0386C182.83 77.0386 182.504 76.7635 182.458 76.3842L176.913 32.2095C176.602 29.8222 177.277 27.4499 178.809 25.5237C180.342 23.605 182.527 22.378 184.962 22.0731C190.006 21.4409 194.664 24.9809 195.309 29.971L200.854 74.1457C200.907 74.5547 200.611 74.9266 200.194 74.9712C199.769 75.0158 199.398 74.7332 199.352 74.3242L193.807 30.1495C193.268 25.9848 189.384 23.0175 185.159 23.5456C183.118 23.7984 181.29 24.8247 180.008 26.4385C178.726 28.0523 178.157 30.0379 178.415 32.0235L183.96 76.1983C184.013 76.6073 183.718 76.9792 183.3 77.0238C183.27 77.0238 183.24 77.0238 183.209 77.0238V77.0386Z" fill="#040000"/>
<path d="M171.862 79.2622L166.734 36.6566C166.15 32.1201 169.51 27.9183 174.13 27.3457C178.758 26.7656 183.044 30.0676 183.628 34.5966L189.173 78.7714" fill="white"/>
<path d="M171.861 80.0059C171.482 80.0059 171.156 79.7307 171.11 79.3515L165.982 36.7459C165.337 31.793 168.956 27.2416 174.038 26.6095C179.098 25.9848 183.741 29.5247 184.386 34.5074L189.931 78.6822C189.984 79.0912 189.688 79.463 189.271 79.5076C188.854 79.5597 188.474 79.2697 188.429 78.8606L182.884 34.6859C182.345 30.5213 178.461 27.5465 174.236 28.082C169.98 28.61 166.961 32.4177 167.492 36.56L172.62 79.173C172.665 79.582 172.369 79.9539 171.952 79.9985C171.922 79.9985 171.892 79.9985 171.861 79.9985V80.0059Z" fill="#040000"/>
<path d="M179.932 70.1148C179.932 70.1148 183.801 88.6548 184.893 88.6548C185.986 88.6548 216.246 95.9875 216.246 95.9875L218.939 79.0093L212.719 71.5947L179.932 70.1148Z" fill="white"/>
<path d="M277.025 130.033C276.851 130.033 276.669 129.974 276.524 129.847L216.087 77.9309C215.768 77.6632 215.738 77.1873 216.019 76.8823C216.292 76.57 216.777 76.5403 217.088 76.8154L277.526 128.732C277.844 129 277.875 129.476 277.594 129.781C277.442 129.952 277.237 130.033 277.025 130.033Z" fill="#040000"/>
<path d="M119.496 100.613L121.263 102.755L101.001 116.022L119.496 100.613Z" fill="#040000"/>
<path d="M123.19 105.224C123.007 105.224 122.825 105.157 122.681 105.031L118.979 101.736C118.668 101.461 118.646 100.993 118.926 100.688C119.207 100.383 119.685 100.36 119.996 100.636L123.698 103.93C124.009 104.205 124.032 104.674 123.751 104.979C123.599 105.142 123.394 105.224 123.19 105.224Z" fill="#040000"/>
<path d="M47.2007 116.93C49.7192 113.717 53.6715 111.739 58.132 111.739H118.152C125.799 111.739 132.019 117.837 132.019 125.333C132.019 132.83 125.799 138.928 118.152 138.928H113.441V150.299L101.251 138.928H58.1245C50.4778 138.928 44.2573 132.83 44.2573 125.333C44.2573 122.121 45.3497 119.235 47.2007 116.93Z" fill="#FFC886"/>
<path d="M113.442 151.05C113.252 151.05 113.062 150.983 112.918 150.842L100.948 139.672H58.1248C50.0609 139.672 43.499 133.239 43.499 125.333C43.499 122.069 44.5686 119.005 46.6017 116.469C49.3326 112.988 53.5353 110.988 58.1323 110.988H118.152C126.216 110.988 132.778 117.421 132.778 125.326C132.778 133.231 126.216 139.664 118.152 139.664H114.2V150.291C114.2 150.589 114.018 150.857 113.737 150.976C113.639 151.013 113.54 151.035 113.442 151.035V151.05ZM58.1248 112.483C54.0056 112.483 50.2429 114.267 47.8003 117.383C45.9796 119.652 45.0238 122.403 45.0238 125.326C45.0238 132.413 50.9029 138.177 58.1323 138.177H101.259C101.456 138.177 101.638 138.251 101.782 138.385L112.691 148.566V138.928C112.691 138.519 113.032 138.184 113.449 138.184H118.16C125.389 138.184 131.269 132.421 131.269 125.333C131.269 118.246 125.389 112.483 118.16 112.483H58.1248Z" fill="#040000"/>
<path d="M118.562 129.037C118.327 129.007 112.759 128.338 106.44 125.943C103.921 125.021 102.692 125.475 100.826 126.159C98.3984 127.059 95.0682 128.286 87.3305 126.969C82.3086 126.107 80.7914 126.828 79.3349 127.527C78.2804 128.033 77.1881 128.546 75.1019 128.546C69.9283 128.546 66.3857 127.549 64.1706 126.189C62.6154 126.954 60.3927 127.765 57.2066 128.524L56.8501 127.081C58.9059 126.59 61.0679 125.898 62.8051 125.155C62.1148 124.5 61.6596 123.809 61.4168 123.132C60.992 121.942 61.25 120.789 62.0996 120.127C63.1009 119.347 64.6257 119.451 66.1808 120.41C67.387 121.154 67.918 122.016 67.7587 122.976C67.7132 123.258 67.4249 124.181 65.6877 125.333C67.6753 126.33 70.74 127.059 75.1019 127.059C76.8391 127.059 77.6887 126.657 78.6673 126.189C80.268 125.43 82.081 124.567 87.5884 125.504C94.9165 126.754 97.8902 125.653 100.287 124.768C102.229 124.047 103.913 123.429 106.971 124.552C113.115 126.88 118.676 127.549 118.736 127.557L118.554 129.037H118.562ZM63.7154 121.102C63.4195 121.102 63.192 121.176 63.0478 121.295C62.7216 121.548 62.6458 122.068 62.8506 122.649C63.063 123.244 63.5333 123.876 64.2843 124.463C65.4222 123.861 66.1808 123.258 66.2643 122.745C66.3326 122.336 65.7333 121.905 65.3767 121.682C64.7016 121.265 64.1402 121.109 63.723 121.109L63.7154 121.102Z" fill="#040000"/>
<path d="M294.098 130.724C291.58 133.937 287.627 135.915 283.167 135.915H223.147C215.5 135.915 209.272 129.817 209.272 122.32C209.272 114.824 215.492 108.726 223.147 108.726H227.85V97.3548L240.041 108.726H283.167C290.813 108.726 297.034 114.824 297.034 122.32C297.034 125.451 295.942 128.418 294.091 130.724H294.098Z" fill="#F7931B"/>
<path d="M283.176 136.658H223.156C215.092 136.658 208.522 130.226 208.522 122.32C208.522 114.415 215.084 107.982 223.156 107.982H227.108V97.3548C227.108 97.0573 227.29 96.7896 227.571 96.6706C227.851 96.5516 228.17 96.6111 228.39 96.8119L240.361 107.982H283.184C291.247 107.982 297.809 114.415 297.809 122.32C297.809 125.54 296.709 128.686 294.707 131.185C291.976 134.665 287.773 136.666 283.176 136.666V136.658ZM223.156 109.462C215.926 109.462 210.04 115.226 210.04 122.313C210.04 129.4 215.919 135.164 223.156 135.164H283.176C287.295 135.164 291.058 133.379 293.5 130.263C295.291 128.024 296.277 125.206 296.277 122.313C296.277 115.226 290.398 109.462 283.168 109.462H240.042C239.845 109.462 239.663 109.388 239.519 109.254L228.61 99.0802V108.718C228.61 109.127 228.269 109.462 227.851 109.462H223.141H223.156Z" fill="#040000"/>
<path d="M270.478 124.871C271.548 124.893 272.428 124.06 272.45 123.012C272.473 121.963 271.624 121.101 270.554 121.078C270.531 121.078 270.501 121.078 270.478 121.078C269.409 121.101 268.559 121.963 268.582 123.012C268.604 124.031 269.439 124.849 270.478 124.871ZM253.159 124.871C254.229 124.893 255.109 124.06 255.132 123.012C255.154 121.963 254.305 121.101 253.235 121.078C253.212 121.078 253.182 121.078 253.159 121.078C252.09 121.101 251.24 121.963 251.263 123.012C251.286 124.031 252.12 124.849 253.159 124.871ZM235.757 124.871C236.827 124.871 237.692 124.023 237.692 122.975C237.692 121.926 236.827 121.078 235.757 121.078C234.688 121.078 233.823 121.926 233.823 122.975C233.823 124.023 234.688 124.871 235.757 124.871Z" fill="white"/>
<path d="M270.516 125.615C270.516 125.615 270.478 125.615 270.463 125.615C269.014 125.585 267.854 124.447 267.823 123.027C267.793 121.569 268.976 120.364 270.463 120.335H270.554C272.056 120.364 273.24 121.569 273.209 123.027C273.179 124.462 271.98 125.615 270.516 125.615ZM270.494 124.127C271.146 124.105 271.677 123.629 271.692 122.997C271.707 122.365 271.191 121.837 270.539 121.822H270.478C269.849 121.837 269.333 122.365 269.341 122.997C269.356 123.614 269.856 124.112 270.494 124.127ZM253.198 125.615C253.198 125.615 253.16 125.615 253.144 125.615C251.696 125.585 250.535 124.447 250.505 123.027C250.474 121.569 251.658 120.364 253.144 120.335H253.236C254.738 120.364 255.921 121.569 255.891 123.027C255.86 124.462 254.662 125.615 253.198 125.615ZM253.175 124.127H253.198C253.835 124.127 254.358 123.629 254.373 122.997C254.389 122.365 253.873 121.837 253.22 121.822H253.16C252.864 121.822 252.568 121.956 252.348 122.179C252.128 122.402 252.014 122.692 252.022 122.997C252.037 123.614 252.538 124.112 253.175 124.127ZM235.757 125.615C234.271 125.615 233.064 124.432 233.064 122.975C233.064 121.517 234.271 120.335 235.757 120.335C237.244 120.335 238.45 121.517 238.45 122.975C238.45 124.432 237.244 125.615 235.757 125.615ZM235.757 121.822C235.113 121.822 234.582 122.335 234.582 122.975C234.582 123.614 235.105 124.127 235.757 124.127C236.41 124.127 236.933 123.614 236.933 122.975C236.933 122.335 236.41 121.822 235.757 121.822Z" fill="#040000"/>
<path fill-rule="evenodd" clip-rule="evenodd" d="M289.397 94.6191C289.812 94.6191 290.147 94.9549 290.147 95.3691V103.609C290.147 104.023 289.812 104.359 289.397 104.359C288.983 104.359 288.647 104.023 288.647 103.609V95.3691C288.647 94.9549 288.983 94.6191 289.397 94.6191ZM307.124 101.647C307.39 101.964 307.349 102.437 307.032 102.703L299.969 108.638C299.652 108.904 299.179 108.863 298.913 108.546C298.646 108.229 298.687 107.756 299.004 107.49L306.067 101.555C306.384 101.289 306.857 101.33 307.124 101.647ZM301.597 119.844C301.597 119.43 301.932 119.094 302.347 119.094H310.752C311.166 119.094 311.502 119.43 311.502 119.844C311.502 120.258 311.166 120.594 310.752 120.594H302.347C301.932 120.594 301.597 120.258 301.597 119.844Z" fill="#1A1A1A"/>
<path d="M35.9689 102.9C35.8113 102.99 35.6129 103.025 35.4199 102.98L19.0074 99.337C18.5941 99.2448 18.3422 98.8465 18.4403 98.4475C18.528 98.0457 18.9409 97.7946 19.3477 97.8905L35.7601 101.533C36.1735 101.625 36.4253 102.024 36.3272 102.423C36.2754 102.632 36.1397 102.804 35.9689 102.9ZM62.347 83.3875C62.209 83.4657 62.0379 83.5025 61.8666 83.4793C61.4487 83.4241 61.1613 83.0546 61.2179 82.6446L63.0367 69.2399C63.0933 68.83 63.4703 68.5477 63.8882 68.6029C64.3061 68.6581 64.5936 69.0277 64.537 69.4376L62.7182 82.8423C62.6853 83.0842 62.5441 83.2759 62.347 83.3875ZM46.4897 91.8991C46.1481 92.0927 45.7074 91.9988 45.4841 91.6788L32.324 72.7802C32.0893 72.4409 32.1768 71.9791 32.5229 71.7486C32.8757 71.5145 33.3398 71.6036 33.5745 71.9429L46.7346 90.8415C46.9693 91.1809 46.8818 91.6426 46.5357 91.8731C46.516 91.8842 46.5028 91.8917 46.4831 91.9029L46.4897 91.8991Z" fill="#040000"/>
</svg>
