<svg width="320" height="200" viewBox="0 0 320 200" fill="none" xmlns="http://www.w3.org/2000/svg">
<g clip-path="url(#clip0_864_27013)">
<path d="M201.128 52.1004L159.36 44.6178C159.36 44.6178 172.093 18.7571 193.369 22.7097C214.645 26.6622 216.83 42.8301 216.83 42.8301L219.268 48.941C224.582 50.4102 229.079 52.1719 229.079 52.1719C229.079 52.1719 229.81 52.328 231.006 52.731C231.026 52.731 248.037 57.8278 252.541 74.9967C257.044 92.1722 250.521 105.85 236.545 107.066C232.899 107.384 228.92 106.312 225.021 104.557L193.369 95.8908C193.369 95.8908 196.996 63.7956 201.121 52.0939L201.128 52.1004Z" fill="#E61E67"/>
<path d="M188.972 22.3002C170.354 22.3002 159.36 44.6179 159.36 44.6179L201.128 52.1005C196.997 63.8022 193.376 95.8973 193.376 95.8973L225.028 104.563C228.469 106.11 231.969 107.124 235.251 107.124C235.689 107.124 236.121 107.105 236.546 107.066C250.522 105.85 257.045 92.1723 252.541 74.9968C248.037 57.8278 231.026 52.7376 231.006 52.7311C229.81 52.328 229.08 52.172 229.08 52.172C229.08 52.172 224.583 50.4103 219.269 48.941L216.831 42.8302C216.831 42.8302 214.646 26.6623 193.37 22.7097C191.855 22.4302 190.394 22.3002 188.966 22.3002M188.966 21C190.5 21 192.068 21.143 193.616 21.4356C205.047 23.5614 211.105 29.1782 214.167 33.5143C217.183 37.7854 217.974 41.6405 218.12 42.4921L220.265 47.8684C224.941 49.1946 228.807 50.6703 229.478 50.9303C229.744 50.9953 230.435 51.1644 231.418 51.4959C232.428 51.8015 249.24 57.1712 253.83 74.6718C256.5 84.8457 255.424 94.2786 250.88 100.565C247.572 105.142 242.657 107.84 236.659 108.36C236.201 108.399 235.722 108.418 235.244 108.418C232.076 108.418 228.482 107.528 224.563 105.779L193.011 97.1455C192.387 96.9765 191.975 96.3849 192.048 95.7478C192.194 94.4801 195.469 65.72 199.394 53.1082L159.121 45.8921C158.716 45.8206 158.364 45.5671 158.178 45.203C157.992 44.839 157.985 44.4164 158.165 44.0523C158.277 43.8183 161.054 38.247 166.195 32.5912C173.097 25.0046 180.975 21 188.972 21H188.966Z" fill="black"/>
<path d="M229.598 207.538C229.598 207.538 229.657 207.538 229.691 207.525C229.883 207.473 230.003 207.284 229.95 207.089L223.433 182.21C223.387 182.022 223.188 181.905 222.988 181.957C222.796 182.002 222.676 182.197 222.729 182.392L229.246 207.271C229.286 207.434 229.438 207.538 229.598 207.538Z" fill="black"/>
<path d="M264.446 143.166L252.483 154.828L240.467 136.32L247.229 129.494L264.446 143.166Z" fill="white"/>
<path d="M252.31 156.382L265.934 143.094L247.149 128.174L239.211 136.19L252.316 156.376L252.31 156.382ZM262.958 143.244L252.662 153.288L241.728 136.45L247.301 130.82L262.951 143.244H262.958Z" fill="black"/>
<path d="M258.108 112.033C259.33 111.617 264.578 117.396 265.209 117.701C265.84 118.007 264.352 122.564 265.76 122.889C267.175 123.214 269.739 122.655 271.798 123.156C273.731 123.617 295.538 142.295 299.278 146.442C299.597 146.793 299.53 147.333 299.145 147.645C298.288 148.34 296.621 149.595 294.628 150.674C292.456 151.857 289.879 152.826 287.508 152.664C281.901 152.273 273.917 147.242 269.865 146.709C265.807 146.176 259.357 147.736 258.493 145.662C257.623 143.601 257.802 137.64 253.159 134.571C248.516 131.509 245.7 130.859 245.441 128.903C245.268 127.583 250.575 120.516 254.401 115.966C256.235 113.781 257.723 112.163 258.115 112.033H258.108Z" fill="#F7931B"/>
<path d="M288.039 153.112C290.038 153.112 292.323 152.417 294.841 151.051C296.9 149.933 298.594 148.646 299.424 147.976C299.703 147.755 299.882 147.43 299.915 147.079C299.942 146.741 299.836 146.423 299.61 146.169C295.804 141.95 273.996 123.247 271.904 122.753C270.708 122.467 269.373 122.512 268.191 122.558C267.294 122.59 266.444 122.623 265.866 122.486C265.401 122.376 265.607 120.542 265.707 119.658C265.853 118.371 265.939 117.591 265.408 117.337C265.248 117.246 264.531 116.551 263.9 115.94C260.638 112.78 258.918 111.324 257.975 111.649C257.802 111.708 257.264 111.896 254.069 115.719C251.644 118.599 244.783 127.212 245.015 128.981C245.215 130.482 246.596 131.256 248.894 132.537C249.997 133.154 251.365 133.915 252.92 134.942C256.241 137.133 256.978 140.851 257.516 143.562C257.696 144.485 257.855 145.278 258.094 145.838C258.759 147.417 261.562 147.281 264.81 147.125C266.55 147.04 268.35 146.949 269.812 147.144C271.519 147.365 274.05 148.464 276.72 149.621C280.247 151.149 284.246 152.878 287.481 153.106C287.667 153.119 287.853 153.125 288.045 153.125L288.039 153.112ZM269.539 123.364C270.277 123.364 271.027 123.409 271.698 123.572C273.365 123.968 295.02 142.366 298.959 146.728C299.025 146.806 299.059 146.904 299.052 147.008C299.039 147.125 298.979 147.242 298.879 147.32C298.069 147.97 296.421 149.225 294.422 150.31C291.851 151.708 289.473 152.378 287.54 152.247C284.458 152.033 280.533 150.336 277.072 148.834C274.335 147.651 271.758 146.533 269.925 146.293C268.384 146.091 266.544 146.182 264.763 146.267C262.086 146.397 259.323 146.533 258.891 145.5C258.686 145.018 258.539 144.258 258.367 143.387C257.829 140.689 257.025 136.613 253.405 134.227C251.824 133.18 250.436 132.407 249.32 131.789C247.187 130.599 246.012 129.943 245.872 128.857C245.753 127.914 249.977 121.901 254.74 116.239C257.045 113.489 258.028 112.559 258.26 112.436C259.018 112.364 262.113 115.387 263.295 116.531C264.265 117.467 264.69 117.877 264.943 118.033C264.996 118.274 264.916 119.015 264.856 119.561C264.677 121.186 264.471 123.026 265.68 123.305C266.371 123.461 267.274 123.429 268.237 123.396C268.663 123.383 269.108 123.364 269.559 123.364H269.539Z" fill="black" stroke="black" stroke-width="0.5"/>
<path d="M258.108 112.033C259.33 111.617 264.578 117.396 265.209 117.701C265.84 118.007 264.352 122.564 265.76 122.889C267.175 123.214 269.739 122.655 271.798 123.156C273.731 123.617 295.538 142.295 299.278 146.442C299.597 146.793 299.53 147.333 299.145 147.645C298.288 148.34 296.621 149.595 294.628 150.674L254.395 115.966C256.228 113.781 257.716 112.163 258.108 112.033Z" fill="white"/>
<path d="M294.575 151.188L294.841 151.045C296.9 149.927 298.594 148.639 299.424 147.97C299.703 147.749 299.882 147.424 299.915 147.073C299.942 146.735 299.836 146.416 299.61 146.163C295.804 141.944 273.996 123.24 271.904 122.746C270.708 122.46 269.373 122.506 268.191 122.551C267.294 122.584 266.444 122.616 265.866 122.48C265.401 122.369 265.607 120.536 265.707 119.652C265.853 118.365 265.939 117.584 265.408 117.331C265.248 117.24 264.531 116.544 263.9 115.933C260.638 112.774 258.918 111.324 257.975 111.643C257.802 111.701 257.271 111.883 254.069 115.712L253.803 116.024L294.575 151.194V151.188ZM269.539 123.357C270.277 123.357 271.027 123.403 271.698 123.565C273.365 123.962 295.02 142.36 298.959 146.722C299.025 146.8 299.059 146.897 299.052 147.001C299.039 147.118 298.979 147.235 298.879 147.313C298.109 147.937 296.568 149.108 294.688 150.161L254.999 115.92C257.111 113.411 258.035 112.553 258.26 112.429C259.018 112.358 262.113 115.381 263.295 116.525C264.265 117.461 264.69 117.871 264.943 118.027C264.996 118.267 264.916 119.008 264.856 119.554C264.677 121.18 264.471 123.019 265.68 123.299C266.371 123.455 267.274 123.422 268.237 123.39C268.663 123.377 269.108 123.357 269.559 123.357H269.539Z" fill="black" stroke="black" stroke-width="0.5"/>
<path d="M193.372 95.8975L203.694 96.6126L235.744 98.8164C235.744 98.8164 238.295 111.292 239.49 121.895C239.882 125.366 240.354 129.234 240.812 132.855L242.905 129.969L264.832 148.484C244.147 179.844 234.602 181.105 234.602 181.105V181.034C233.286 181.593 231.818 182.015 230.151 182.243C230.138 182.243 230.125 182.243 230.111 182.243L237.411 206.199L203.01 212.472C203.01 212.472 190.117 181.274 187.32 155.836C184.524 130.398 193.365 95.8975 193.365 95.8975H193.372Z" fill="#DCDEE9"/>
<path d="M203.016 212.895C203.016 212.895 203.069 212.895 203.095 212.888L237.497 206.615C237.616 206.595 237.723 206.524 237.783 206.42C237.849 206.316 237.862 206.192 237.829 206.082L230.668 182.594C232.043 182.373 233.306 182.022 234.534 181.521C234.574 181.528 234.614 181.528 234.661 181.521C235.059 181.469 244.638 179.877 265.196 148.711C265.316 148.536 265.276 148.302 265.116 148.165L243.19 129.65C243.097 129.572 242.977 129.54 242.857 129.553C242.738 129.566 242.625 129.631 242.559 129.728L241.11 131.724C240.639 127.98 240.24 124.658 239.921 121.849C238.732 111.35 236.195 98.8619 236.168 98.7318C236.129 98.5433 235.969 98.4068 235.777 98.3938L193.404 95.4749C193.185 95.4554 193.006 95.5919 192.952 95.7934C192.866 96.138 184.125 130.658 186.901 155.882C189.671 181.092 202.491 212.323 202.617 212.635C202.684 212.797 202.843 212.901 203.016 212.901V212.895ZM236.866 205.874L203.288 211.998C201.926 208.63 190.368 179.513 187.758 155.791C185.147 132.062 192.8 100.013 193.703 96.346L235.385 99.2194C235.783 101.228 237.982 112.41 239.065 121.947C239.417 125.028 239.862 128.721 240.386 132.914C240.406 133.089 240.539 133.226 240.712 133.271C240.885 133.317 241.064 133.252 241.17 133.109L242.99 130.599L264.279 148.575C245.807 176.496 236.255 180.215 234.76 180.644C234.661 180.611 234.548 180.611 234.448 180.657C233.066 181.242 231.645 181.625 230.104 181.833C229.978 181.853 229.845 181.924 229.778 182.022C229.712 182.119 229.672 182.256 229.705 182.373L236.873 205.874H236.866Z" fill="black" stroke="black" stroke-width="0.5"/>
<path d="M227.129 183.178C229.119 183.178 230.377 182.951 230.42 182.945C230.633 182.903 230.768 182.704 230.726 182.505C230.683 182.299 230.477 182.162 230.271 182.21C230.136 182.231 216.957 184.606 208.122 173.34C195.839 157.686 204.276 112.072 204.362 111.612C204.383 111.509 204.355 111.4 204.291 111.317C204.227 111.235 204.12 111.18 204.013 111.173L191.51 110.198C191.297 110.191 191.105 110.335 191.091 110.541C191.077 110.747 191.233 110.933 191.446 110.946L203.523 111.887C202.634 116.782 195.498 158.497 207.503 173.793C213.901 181.942 222.494 183.178 227.136 183.178H227.129Z" fill="black" stroke="black" stroke-width="0.7"/>
<path d="M229.08 52.1721C229.08 52.1721 245.088 55.5396 250.449 72.416C255.809 89.286 234.195 107.073 234.195 107.073L193.377 95.8974C193.377 95.8974 198.272 52.5751 203.161 48.2455C208.056 43.9159 229.087 52.1721 229.087 52.1721H229.08Z" fill="#F7931B"/>
<path d="M216.831 42.8237C216.831 42.8237 214.646 26.6558 193.37 22.7033C172.094 18.7507 159.36 44.6114 159.36 44.6114L222.025 55.8386L216.831 42.8172V42.8237Z" fill="#F7931B"/>
<path d="M65.7078 39.5016H189.384C192.95 39.5016 195.841 42.3307 195.841 45.8206V165.984C195.841 169.474 192.95 172.303 189.384 172.303H65.7078C62.142 172.303 59.2513 169.474 59.2513 165.984V45.8206C59.2513 42.3307 62.142 39.5016 65.7078 39.5016Z" fill="black"/>
<path d="M63.7868 39.5018H204.867V172.303H63.7868V39.5018Z" fill="white"/>
<path d="M63.1166 172.96H205.525V38.8517H63.1166V172.953V172.96ZM204.196 171.659H64.4451V40.1519H204.196V171.653V171.659Z" fill="black"/>
<path d="M205.14 58.543C205.572 57.8214 206.496 57.5613 207.193 57.9644C207.89 58.3674 208.11 59.2776 207.678 59.9992L192.174 85.8404C192.035 86.0744 191.836 86.237 191.616 86.367L188.242 89.5459L189.438 85.1123C189.444 84.8588 189.497 84.6117 189.637 84.3777L205.14 58.5365V58.543Z" fill="black"/>
<path d="M205.267 67.1371L207.918 62.7165C208.934 61.0262 207.679 59.31 206.881 58.6404C206.702 58.4909 206.436 58.5104 206.284 58.6859C206.131 58.8614 206.151 59.1215 206.33 59.271C206.403 59.3295 208.097 60.7857 207.187 62.2939L204.537 66.7146L205.267 67.1371Z" fill="#7563AA"/>
<path d="M210.62 85.3398C210.62 85.3398 212.294 74.6392 211.078 71.8048C210.401 70.2381 207.638 68.5153 205.293 67.2932C203.4 66.305 201.048 67.0396 200.059 68.8989C200.059 68.8989 191.848 69.835 191.065 71.1937C190.274 72.5524 192.519 73.5276 192.519 73.5276C192.519 73.5276 190.786 80.0805 191.383 81.3287C191.722 82.0373 195.07 83.695 197.886 84.9887C200.397 86.1394 203.207 86.5229 205.95 86.0874L210.62 85.3398Z" fill="white"/>
<path d="M203.719 86.9195C204.497 86.9195 205.28 86.8545 206.064 86.7309L211.212 85.9053L211.285 85.4373C211.458 84.3256 212.953 74.4702 211.697 71.5578C211.086 70.147 209.04 68.5218 205.619 66.7211C204.556 66.162 203.334 66.0515 202.172 66.4025C201.116 66.7211 200.239 67.3907 199.661 68.2943C196.938 68.6193 191.325 69.4514 190.501 70.8752C190.229 71.3432 190.175 71.8438 190.335 72.3249C190.581 73.053 191.271 73.573 191.763 73.8656C191.258 75.8549 190.202 80.373 190.793 81.6147C190.959 81.9658 191.305 82.6874 197.615 85.5868C199.548 86.4709 201.62 86.926 203.719 86.926V86.9195ZM210.036 84.7742L205.845 85.4503C203.228 85.8728 200.578 85.5088 198.173 84.4101C192.746 81.9203 192.062 81.1726 191.976 81.0491C191.69 80.4445 192.354 76.7585 193.165 73.7031L193.304 73.17L192.786 72.949C192.454 72.8059 191.723 72.3639 191.584 71.9283C191.55 71.8373 191.537 71.7138 191.643 71.5318C192.049 70.9402 195.941 70.043 200.139 69.562L200.491 69.523L200.651 69.2174C201.049 68.4633 201.727 67.9107 202.557 67.6572C203.374 67.4102 204.231 67.4882 204.982 67.8782C208.044 69.484 209.99 70.9727 210.462 72.0713C211.358 74.1516 210.515 81.5497 210.03 84.7872L210.036 84.7742Z" fill="black"/>
<path d="M211.079 71.8049L233.291 79.554L231.006 52.7311C231.006 52.7311 248.037 57.8214 252.541 74.9969C257.045 92.1723 250.522 105.85 236.546 107.066C222.57 108.282 203.619 89.1299 203.619 89.1299L211.072 71.8049H211.079Z" fill="#F7931B"/>
<path d="M162.384 45.9833C160.384 45.4503 159.328 33.0009 163.147 31.7073C164.974 31.0897 166.01 33.0009 166.01 33.0009C166.01 33.0009 166.721 30.6281 168.82 30.9401C170.919 31.2522 170.78 33.0009 170.78 33.0009C170.78 33.0009 173.264 28.9054 175.556 32.3314C177.847 35.7573 175.888 45.5283 174.028 45.9768C172.321 46.3929 171.158 43.734 170.859 42.9474" fill="white"/>
<path d="M173.649 46.6854C173.822 46.6854 174.001 46.6659 174.187 46.6204C174.864 46.4579 175.449 45.7363 175.974 44.4296C177.296 41.1271 177.993 34.8017 176.113 31.9868C175.363 30.8621 174.486 30.3096 173.496 30.3291C172.5 30.3486 171.65 30.9791 171.065 31.5837C170.706 30.9987 170.049 30.4721 168.919 30.3096C167.432 30.095 166.435 30.9271 165.871 31.7918C165.2 31.1742 164.183 30.6801 162.928 31.1092C159.906 32.1363 159.872 37.9547 159.932 39.7099C159.952 40.36 160.211 46.0873 162.211 46.6204C162.563 46.7179 162.928 46.5099 163.028 46.1653C163.121 45.8208 162.921 45.4697 162.569 45.3722C161.965 45.0602 161.015 41.5302 161.294 37.4801C161.493 34.6327 162.264 32.7084 163.366 32.3378C164.608 31.9153 165.346 33.1765 165.426 33.326C165.552 33.56 165.811 33.69 166.083 33.664C166.349 33.638 166.575 33.456 166.654 33.2025C166.674 33.131 167.239 31.3757 168.727 31.6032C170.115 31.8048 170.135 32.7864 170.122 32.9814C170.108 33.2805 170.301 33.5535 170.593 33.638C170.886 33.7225 171.198 33.612 171.357 33.352C171.643 32.8839 172.599 31.6552 173.529 31.6357C174.014 31.6032 174.519 31.9868 175.004 32.7084C176.412 34.8212 176.1 40.0675 174.931 43.4545C174.439 44.8847 173.988 45.3267 173.868 45.3657C172.892 45.6063 171.902 43.8315 171.483 42.7394C171.351 42.4013 170.972 42.2323 170.627 42.3623C170.281 42.4858 170.108 42.8629 170.241 43.2009C170.666 44.3061 171.796 46.6984 173.649 46.6984V46.6854Z" fill="black"/>
<path d="M169.205 45.7296C168.946 45.8792 168.647 45.9767 168.301 45.9832C166.202 46.0417 165.246 42.7392 165.246 42.7392C165.246 42.7392 165.08 43.3438 164.754 44.0329" fill="white"/>
<path d="M168.248 46.6397C168.248 46.6397 168.294 46.6397 168.321 46.6397C168.759 46.6267 169.171 46.5097 169.543 46.2952C169.855 46.1132 169.961 45.7101 169.775 45.4046C169.589 45.099 169.178 44.995 168.865 45.177C168.686 45.281 168.493 45.333 168.281 45.3395C168.268 45.3395 168.261 45.3395 168.248 45.3395C166.74 45.3395 165.89 42.5962 165.883 42.5701C165.803 42.2906 165.538 42.0956 165.245 42.0956C164.946 42.0956 164.687 42.2906 164.608 42.5701C164.608 42.5701 164.448 43.1357 164.156 43.7663C164.003 44.0914 164.156 44.4814 164.488 44.6244C164.767 44.748 165.086 44.67 165.272 44.4489C165.843 45.4696 166.806 46.6267 168.254 46.6267L168.248 46.6397Z" fill="black"/>
<path d="M198.786 69.4647H203.848C204.047 69.4647 204.213 69.3022 204.213 69.1072C204.213 68.9122 204.047 68.7496 203.848 68.7496H198.786C198.587 68.7496 198.421 68.9122 198.421 69.1072C198.421 69.3022 198.587 69.4647 198.786 69.4647Z" fill="black"/>
<path d="M194.386 74.0152C194.579 74.0152 194.738 73.8721 194.752 73.6836C194.765 73.4886 194.619 73.3196 194.413 73.3001L192.553 73.17C192.36 73.1505 192.181 73.3066 192.168 73.5016C192.154 73.6966 192.301 73.8656 192.506 73.8851L194.366 74.0152C194.366 74.0152 194.386 74.0152 194.393 74.0152H194.386Z" fill="black"/>
<path d="M274.826 155.368C275.072 155.368 275.411 155.257 275.637 154.75C276.892 151.916 272.01 145.571 271.804 145.305C271.684 145.149 271.459 145.123 271.306 145.24C271.146 145.357 271.12 145.571 271.239 145.727C272.588 147.469 275.896 152.436 274.992 154.477C274.953 154.568 274.84 154.679 274.833 154.679C273.963 154.666 271.512 150.057 269.738 145.786C269.672 145.623 269.486 145.539 269.32 145.578C269.147 145.623 269.034 145.786 269.054 145.961C269.413 148.75 269.565 152.924 268.768 153.47C268.728 153.496 268.655 153.548 268.45 153.444C266.982 152.709 267.818 147.859 268.689 144.973C268.742 144.791 268.636 144.596 268.45 144.544C268.264 144.485 268.064 144.596 268.011 144.778C267.765 145.597 265.66 152.833 268.131 154.068C268.616 154.308 268.974 154.191 269.187 154.042C270.163 153.372 270.15 150.369 269.991 148.152C271.319 151.097 273.471 155.368 274.826 155.381H274.84L274.826 155.368Z" fill="#A6A0CE"/>
<path d="M240.439 132.641C240.592 132.504 240.817 132.485 240.99 132.589C241.163 132.699 241.236 132.907 241.169 133.096C241.063 133.408 240.711 134.402 240.2 135.69L261.861 152.976C262.053 153.125 262.08 153.405 261.927 153.593C261.841 153.697 261.715 153.756 261.582 153.756C261.482 153.756 261.383 153.723 261.296 153.658L239.854 136.548C238.479 139.876 236.287 144.427 234.354 145.025C234.195 145.077 234.035 145.096 233.883 145.096C233.57 145.096 233.278 144.999 233.012 144.81C232.607 144.518 232.388 144.108 232.355 143.582C232.149 140.357 240.1 132.953 240.439 132.641ZM239.23 135.709C239.23 135.709 239.23 135.709 239.23 135.703C239.376 135.345 239.515 134.981 239.655 134.623C236.433 137.835 233.132 141.781 233.245 143.53C233.265 143.796 233.351 143.972 233.537 144.108C233.71 144.232 233.876 144.258 234.082 144.193C235.523 143.751 237.589 139.746 239.223 135.709H239.23Z" fill="black" stroke="black" stroke-width="0.5"/>
<path d="M195.455 33.3192C195.528 33.3192 195.608 33.3257 195.687 33.3387C196.079 33.4102 196.398 33.6312 196.611 33.9823C197.474 35.4255 196.332 38.9685 196.093 39.6641C196.019 39.8786 195.82 40.0152 195.588 40.0152C195.349 40.0152 195.149 39.8656 195.083 39.6446C194.737 38.5069 193.688 34.7169 194.671 33.6507C194.877 33.4297 195.143 33.3127 195.455 33.3127V33.3192ZM195.614 37.4473C195.933 36.0041 195.966 34.9574 195.701 34.5154C195.634 34.4048 195.574 34.3788 195.501 34.3658C195.481 34.3658 195.468 34.3658 195.462 34.3658C195.216 34.6389 195.282 35.8416 195.621 37.4538L195.614 37.4473ZM195.528 34.2033C195.528 34.2033 195.475 34.1968 195.455 34.1968C195.455 34.1968 195.501 34.1968 195.528 34.2033ZM195.84 34.4308C195.946 34.6064 196.006 34.8404 196.026 35.1264C196 34.8469 195.94 34.6064 195.84 34.4308C195.8 34.3658 195.754 34.3138 195.701 34.2748C195.754 34.3138 195.794 34.3658 195.84 34.4308ZM195.608 38.1754C195.674 37.9284 195.734 37.6683 195.787 37.4018C195.727 37.6683 195.667 37.9284 195.608 38.1754ZM195.362 33.4947C195.309 33.4947 195.262 33.5077 195.216 33.5207C195.262 33.5077 195.315 33.5012 195.362 33.4947ZM195.143 33.5402C195.096 33.5597 195.056 33.5792 195.01 33.5987C195.05 33.5727 195.096 33.5532 195.143 33.5402ZM195.661 33.5012C195.588 33.4882 195.521 33.4817 195.455 33.4817C195.448 33.4817 195.435 33.4817 195.428 33.4817C195.501 33.4817 195.581 33.4817 195.661 33.5012C195.834 33.5337 195.986 33.5987 196.126 33.6962C195.993 33.5987 195.834 33.5337 195.661 33.5012ZM194.797 33.7677C194.844 33.7157 194.904 33.6702 194.957 33.6312C194.897 33.6702 194.844 33.7157 194.797 33.7677Z" fill="black"/>
<path d="M203.62 88.6162C203.759 88.6162 203.899 88.6682 203.998 88.7722L206.908 91.6521L214.819 73.404L210.933 72.3053C210.654 72.2273 210.488 71.9348 210.574 71.6618C210.641 71.4407 210.847 71.2912 211.086 71.2912C211.132 71.2912 211.186 71.2912 211.232 71.3107L215.683 72.5719C216.008 72.6434 222.83 74.1126 230.137 76.3619C230.98 76.0044 234.614 74.5547 237.384 74.5547C238.48 74.5547 239.33 74.7887 239.901 75.2438C240.486 75.7118 240.426 76.1474 240.339 76.3619C240.227 76.648 239.881 77.5321 233.87 77.5321C233.83 77.5321 233.783 77.5321 233.743 77.5321C235.524 78.1367 237.271 78.7803 238.905 79.4564C239.038 79.5084 239.137 79.6124 239.19 79.7359C239.243 79.8659 239.243 80.009 239.19 80.1325C239.111 80.3275 238.918 80.451 238.705 80.451C238.632 80.451 238.566 80.438 238.499 80.412C230.07 76.921 218.472 74.2491 215.882 73.677L207.731 92.4778C213.178 98.6342 221.747 102.34 221.833 102.379C221.966 102.431 222.066 102.535 222.112 102.665C222.166 102.795 222.159 102.938 222.106 103.061C222.019 103.25 221.833 103.373 221.621 103.373C221.548 103.373 221.475 103.36 221.408 103.328C221.322 103.289 212.308 99.4078 206.728 92.9328L203.274 89.5068C203.175 89.4093 203.122 89.2793 203.122 89.1428C203.122 89.0063 203.181 88.8762 203.281 88.7787C203.381 88.6812 203.513 88.6292 203.653 88.6292L203.62 88.6162ZM203.527 88.7982C203.527 88.7982 203.587 88.7787 203.62 88.7787C203.587 88.7787 203.56 88.7852 203.527 88.7982ZM203.719 88.7982C203.719 88.7982 203.746 88.7982 203.759 88.8047C203.746 88.8047 203.733 88.8047 203.719 88.7982ZM239.217 76.0434C238.832 75.7378 238.22 75.5818 237.397 75.5818C235.935 75.5818 234.129 76.0564 232.827 76.4789C233.152 76.4789 233.478 76.4789 233.797 76.4789C237.178 76.4789 238.818 76.2514 239.25 76.0629C239.243 76.0564 239.23 76.0434 239.217 76.0369V76.0434ZM231.89 76.622C232.515 76.635 233.139 76.648 233.75 76.648C233.146 76.648 232.521 76.6415 231.89 76.622ZM231.684 75.9394C231.684 75.9394 231.644 75.9524 231.624 75.9589C231.644 75.9524 231.664 75.9459 231.684 75.9394ZM231.246 76.0954C231.246 76.0954 231.186 76.1149 231.153 76.1279C231.186 76.1149 231.213 76.1084 231.246 76.0954ZM230.854 76.2449C230.854 76.2449 230.834 76.2514 230.827 76.2579C230.834 76.2579 230.847 76.2514 230.854 76.2449ZM230.548 76.3684C230.548 76.3684 230.502 76.3879 230.482 76.3944C230.502 76.3879 230.528 76.3749 230.548 76.3684ZM232.169 75.7703C232.129 75.7833 232.089 75.7963 232.056 75.8094C232.096 75.7963 232.129 75.7833 232.169 75.7703ZM233.245 75.4258C233.199 75.4388 233.159 75.4518 233.112 75.4648C233.152 75.4518 233.199 75.4388 233.245 75.4258ZM232.707 75.5883C232.707 75.5883 232.647 75.6078 232.621 75.6143C232.647 75.6078 232.681 75.5948 232.707 75.5883ZM238.752 74.8667C238.752 74.8667 238.725 74.8602 238.712 74.8537C238.725 74.8537 238.739 74.8602 238.752 74.8667ZM238.121 74.7497C238.121 74.7497 238.081 74.7497 238.061 74.7432C238.081 74.7432 238.101 74.7432 238.121 74.7497ZM239.316 75.0682C239.316 75.0682 239.303 75.0617 239.297 75.0552C239.303 75.0552 239.31 75.0617 239.316 75.0682ZM239.356 76.1864C239.356 76.1864 239.39 76.1734 239.403 76.1669C239.39 76.1734 239.37 76.1799 239.356 76.1864ZM233.87 76.6415C233.936 76.6415 234.002 76.6415 234.062 76.6415C233.996 76.6415 233.936 76.6415 233.87 76.6415ZM236.879 76.57C236.938 76.57 236.992 76.5635 237.051 76.557C236.998 76.557 236.938 76.5635 236.879 76.57ZM237.357 76.5375C237.41 76.5375 237.47 76.531 237.523 76.5245C237.47 76.5245 237.417 76.531 237.357 76.5375ZM237.809 76.4985C237.855 76.4985 237.902 76.492 237.948 76.4854C237.902 76.4854 237.855 76.492 237.809 76.4985ZM238.254 76.4464C238.254 76.4464 238.307 76.4464 238.327 76.4399C238.3 76.4399 238.28 76.4399 238.254 76.4464ZM238.659 76.3879C238.659 76.3879 238.712 76.3749 238.745 76.3749C238.719 76.3749 238.692 76.3879 238.659 76.3879ZM238.945 76.3294C238.945 76.3294 239.004 76.3164 239.031 76.3099C239.004 76.3164 238.971 76.3229 238.945 76.3294ZM239.177 76.2644C239.177 76.2644 239.223 76.2514 239.25 76.2384C239.23 76.2449 239.204 76.2514 239.177 76.2644ZM210.74 71.7073C210.754 71.6618 210.774 71.6292 210.8 71.5902C210.774 71.6227 210.754 71.6618 210.74 71.7073ZM210.833 71.5642C210.833 71.5642 210.873 71.5252 210.9 71.5122C210.873 71.5252 210.853 71.5447 210.833 71.5642ZM211.019 71.4667C211.019 71.4667 210.966 71.4797 210.94 71.4927C210.966 71.4797 210.993 71.4732 211.019 71.4667ZM211.093 71.4537C211.093 71.4537 211.073 71.4537 211.066 71.4537C211.106 71.4537 211.152 71.4537 211.192 71.4602C211.159 71.4537 211.126 71.4472 211.093 71.4472V71.4537ZM236.168 74.7952C236.208 74.7952 236.241 74.7887 236.281 74.7822C236.241 74.7822 236.208 74.7887 236.168 74.7952ZM236.726 74.7432C236.766 74.7432 236.799 74.7432 236.839 74.7367C236.799 74.7367 236.766 74.7367 236.726 74.7432ZM237.344 74.7172C237.344 74.7172 237.403 74.7172 237.43 74.7172C237.417 74.7172 237.397 74.7172 237.384 74.7172C237.37 74.7172 237.357 74.7172 237.344 74.7172ZM237.038 77.2591C236.055 77.3371 234.946 77.3696 233.87 77.3696C234.946 77.3696 236.055 77.3436 237.038 77.2591ZM238.911 80.217C238.911 80.217 238.885 80.2365 238.871 80.243C238.885 80.2365 238.898 80.23 238.911 80.217ZM209.565 94.5971C209.186 94.2395 208.808 93.8755 208.442 93.4984C208.808 93.8755 209.18 94.2395 209.565 94.5971ZM221.76 102.528C221.76 102.528 221.667 102.489 221.515 102.418C221.262 102.301 220.824 102.099 220.246 101.807C220.824 102.093 221.262 102.301 221.515 102.418C221.667 102.489 221.754 102.522 221.76 102.528ZM221.946 102.996C221.986 102.905 221.986 102.808 221.946 102.723C221.98 102.808 221.98 102.905 221.946 102.996ZM203.381 88.8892C203.414 88.8567 203.46 88.8307 203.5 88.8112C203.454 88.8307 203.414 88.8567 203.381 88.8892C203.308 88.9608 203.274 89.0518 203.274 89.1428C203.274 89.0518 203.314 88.9608 203.381 88.8892Z" fill="black"/>
<path d="M74.0304 159.912C80.0485 159.477 81.935 157.877 82.4598 156.616C86.3523 157.448 90.6699 157.637 93.752 156.363C98.3419 158.04 102.719 157.377 102.985 157.338C103.264 157.292 103.45 157.039 103.404 156.766C103.357 156.493 103.105 156.304 102.819 156.356C102.759 156.363 99.0793 156.915 95.0207 155.706C95.8842 155.153 96.5883 154.438 97.0865 153.528C98.2822 151.357 97.9035 149.368 96.0569 148.08C93.4863 146.299 88.6572 146.299 86.9833 148.093C86.4054 148.711 85.7146 150.063 87.5678 152.183C89.0159 153.84 90.6831 154.991 92.3703 155.791C90.2381 156.395 87.8003 156.33 86.1065 156.168C84.8843 156.051 83.7152 155.849 82.6391 155.609C82.6125 154.958 82.3269 154.302 81.7889 153.704C80.6729 152.456 78.4344 151.48 76.3155 152.026C75.4386 152.254 75.2593 152.703 75.2593 153.034C75.2726 154.627 80.0485 155.986 81.4567 156.35C81.0848 157.065 79.63 158.501 73.9839 158.917C73.7049 158.937 73.4924 159.178 73.5123 159.451C73.5322 159.711 73.7581 159.912 74.0172 159.912H74.0304ZM77.5642 152.872C78.9592 152.872 80.3142 153.561 81.0316 154.36C81.2309 154.581 81.49 154.932 81.5896 155.355C78.7134 154.601 76.6542 153.587 76.3287 153.086C76.3752 153.06 76.4616 153.028 76.5878 152.995C76.9133 152.911 77.2388 152.872 77.5642 152.872ZM91.2278 147.736C92.7157 147.736 94.3365 148.1 95.479 148.893C96.9271 149.894 97.1729 151.298 96.2031 153.054C95.6451 154.068 94.7816 154.776 93.7653 155.27C91.8655 154.529 89.9525 153.359 88.3583 151.532C87.3353 150.362 87.1294 149.426 87.7472 148.763C88.3583 148.106 89.7266 147.736 91.2278 147.736Z" fill="#BDBDCF"/>
<path d="M179.136 128.955H193.178V142.698H179.136V128.955Z" fill="white"/>
<path d="M179.136 147.313H193.178V161.056H179.136V147.313Z" fill="white"/>
<path d="M94.0711 56.9048H178.743C179.022 56.9048 179.254 56.6837 179.254 56.4042C179.254 56.1247 179.029 55.9036 178.743 55.9036H94.0711C93.7921 55.9036 93.5596 56.1247 93.5596 56.4042C93.5596 56.6837 93.7855 56.9048 94.0711 56.9048Z" fill="#828282"/>
<path d="M105.284 63.1457H178.743C179.022 63.1457 179.254 62.9246 179.254 62.6451C179.254 62.3656 179.029 62.1445 178.743 62.1445H105.284C105.005 62.1445 104.772 62.3656 104.772 62.6451C104.772 62.9246 104.998 63.1457 105.284 63.1457Z" fill="#828282"/>
<path d="M116.497 75.5884H178.751C179.03 75.5884 179.262 75.3674 179.262 75.0879C179.262 74.8083 179.036 74.5873 178.751 74.5873H116.497C116.218 74.5873 115.986 74.8083 115.986 75.0879C115.986 75.3674 116.212 75.5884 116.497 75.5884Z" fill="#828282"/>
<path d="M116.497 81.1792H178.751C179.03 81.1792 179.262 80.9582 179.262 80.6786C179.262 80.3991 179.036 80.178 178.751 80.178H116.497C116.218 80.178 115.986 80.3991 115.986 80.6786C115.986 80.9582 116.212 81.1792 116.497 81.1792Z" fill="#828282"/>
<path d="M94.0711 94.2656H178.743C179.022 94.2656 179.254 94.0446 179.254 93.765C179.254 93.4855 179.029 93.2645 178.743 93.2645H94.0711C93.7921 93.2645 93.5596 93.4855 93.5596 93.765C93.5596 94.0446 93.7855 94.2656 94.0711 94.2656Z" fill="#828282"/>
<path d="M105.284 100.506H178.743C179.022 100.506 179.254 100.285 179.254 100.006C179.254 99.7263 179.029 99.5053 178.743 99.5053H105.284C105.005 99.5053 104.772 99.7263 104.772 100.006C104.772 100.285 104.998 100.506 105.284 100.506Z" fill="#828282"/>
<path d="M116.497 112.949H178.751C179.03 112.949 179.262 112.728 179.262 112.449C179.262 112.169 179.036 111.948 178.751 111.948H116.497C116.218 111.948 115.986 112.169 115.986 112.449C115.986 112.728 116.212 112.949 116.497 112.949Z" fill="#828282"/>
<path d="M116.497 118.547H178.751C179.03 118.547 179.262 118.326 179.262 118.046C179.262 117.767 179.036 117.546 178.751 117.546H116.497C116.218 117.546 115.986 117.767 115.986 118.046C115.986 118.326 116.212 118.547 116.497 118.547Z" fill="#828282"/>
<path d="M94.0711 131.627H178.743C179.022 131.627 179.254 131.405 179.254 131.126C179.254 130.846 179.029 130.625 178.743 130.625H94.0711C93.7921 130.625 93.5596 130.846 93.5596 131.126C93.5596 131.405 93.7855 131.627 94.0711 131.627Z" fill="#828282"/>
<path d="M105.284 137.867H178.743C179.022 137.867 179.254 137.646 179.254 137.367C179.254 137.087 179.029 136.866 178.743 136.866H105.284C105.005 136.866 104.772 137.087 104.772 137.367C104.772 137.646 104.998 137.867 105.284 137.867Z" fill="#828282"/>
<path d="M116.497 150.31H178.751C179.03 150.31 179.262 150.089 179.262 149.81C179.262 149.53 179.036 149.309 178.751 149.309H116.497C116.218 149.309 115.986 149.53 115.986 149.81C115.986 150.089 116.212 150.31 116.497 150.31Z" fill="#828282"/>
<path d="M116.497 155.908H178.751C179.03 155.908 179.262 155.686 179.262 155.407C179.262 155.127 179.036 154.906 178.751 154.906H116.497C116.218 154.906 115.986 155.127 115.986 155.407C115.986 155.686 116.212 155.908 116.497 155.908Z" fill="#828282"/>
<path d="M189.364 155.934L183.977 150.908L186.083 148.743L188.979 151.441L193.589 145.422L196.04 147.216L189.364 155.934Z" fill="#D6D6E0"/>
<path d="M225.766 51.834C218.246 51.834 212.155 45.8727 212.155 38.5136C212.155 31.1545 218.246 25.1932 225.766 25.1932C233.285 25.1932 239.376 31.1545 239.376 38.5136C239.376 45.8727 233.285 51.834 225.766 51.834Z" fill="white"/>
<path d="M225.765 52.2565C233.51 52.2565 239.807 46.0936 239.807 38.5135C239.807 30.9334 233.503 24.7705 225.765 24.7705C218.026 24.7705 211.723 30.9334 211.723 38.5135C211.723 46.0936 218.02 52.2565 225.765 52.2565ZM225.765 25.6156C233.032 25.6156 238.944 31.4015 238.944 38.5135C238.944 45.6255 233.032 51.4114 225.765 51.4114C218.498 51.4114 212.586 45.6255 212.586 38.5135C212.586 31.4015 218.498 25.6156 225.765 25.6156Z" fill="black" stroke="black" stroke-width="0.5"/>
<path d="M230.794 25.9538C233.278 26.7144 241.289 31.4341 239.09 41.7706C238.167 46.0742 234.766 48.226 234.766 48.226C229.518 46.6268 229.306 39.2092 228.881 39.2742C226.044 39.8333 223.141 37.4734 221.295 33.8654C219.309 29.9779 220.159 26.0968 220.159 26.0968C221.72 25.6807 224.908 24.153 230.794 25.9603V25.9538Z" fill="black"/>
<path d="M230.368 44.059C228.256 44.059 226.542 42.3817 226.542 40.3144C226.542 38.2471 228.256 36.5699 230.368 36.5699C232.481 36.5699 234.194 38.2471 234.194 40.3144C234.194 42.3817 232.481 44.059 230.368 44.059Z" fill="white"/>
<path d="M215.342 30.1859C215.342 30.1859 220.304 29.1457 222.151 27.4815L220.523 26.1618C220.597 26.1618 216.697 27.9626 215.349 30.1859H215.342Z" fill="black"/>
<path d="M229.093 40.8085C229.093 40.8085 229.16 40.8085 229.193 40.7955L232.315 40.0999C232.547 40.0479 232.694 39.8204 232.64 39.5928C232.587 39.3653 232.355 39.2223 232.122 39.2743L229 39.9699C228.768 40.0219 228.622 40.2494 228.675 40.477C228.721 40.672 228.901 40.8085 229.093 40.8085Z" fill="black"/>
<path d="M107.934 28.7036V67.8848C107.934 69.068 106.951 70.0496 105.709 70.0496H35.1789C33.9567 70.0496 32.9669 69.0745 32.9669 67.8848V28.7036C32.9669 27.5075 33.95 26.5388 35.1789 26.5388H105.709C106.944 26.5388 107.934 27.501 107.934 28.7036Z" fill="white"/>
<path d="M35.1792 70.6997H105.709C107.303 70.6997 108.599 69.4385 108.599 67.8848V28.7036C108.599 27.1499 107.303 25.8887 105.709 25.8887H35.1792C33.5916 25.8887 32.303 27.1499 32.303 28.7036V67.8848C32.303 69.4385 33.5916 70.6997 35.1792 70.6997ZM105.709 27.1889C106.586 27.1889 107.27 27.852 107.27 28.7036V67.8848C107.27 68.7169 106.573 69.3995 105.709 69.3995H35.1792C34.329 69.3995 33.6315 68.7234 33.6315 67.8848V28.7036C33.6315 27.8715 34.3223 27.1889 35.1792 27.1889H105.709Z" fill="black"/>
<path d="M107.935 29.3017V35.8417H32.9748V29.3017C32.9748 27.774 33.9579 26.5388 35.1867 26.5388H105.717C106.952 26.5388 107.942 27.7675 107.942 29.3017H107.935Z" fill="#DEDEDE"/>
<path d="M32.3033 36.4916H108.592V29.3016C108.592 27.3903 107.324 25.8886 105.703 25.8886H35.1729C33.5587 25.8886 32.2966 27.3838 32.2966 29.3016V36.4916H32.3033ZM107.264 35.1915H33.6318V29.3016C33.6318 28.1379 34.3226 27.1888 35.1795 27.1888H105.709C106.566 27.1888 107.27 28.1379 107.27 29.3016V35.1915H107.264Z" fill="black"/>
<path d="M104.042 30.8423C104.042 31.7134 103.318 32.422 102.428 32.422C101.538 32.422 100.814 31.7134 100.814 30.8423C100.814 29.9712 101.538 29.2626 102.428 29.2626C103.318 29.2626 104.042 29.9712 104.042 30.8423Z" fill="white" stroke="black" stroke-width="1.5"/>
<path d="M96.9268 30.8423C96.9268 31.7134 96.2027 32.422 95.3126 32.422C94.4225 32.422 93.6985 31.7134 93.6985 30.8423C93.6985 29.9712 94.4225 29.2626 95.3126 29.2626C96.2027 29.2626 96.9268 29.9712 96.9268 30.8423Z" fill="white" stroke="black" stroke-width="1.5"/>
<path d="M42.7048 44.1628H98.1961C98.4884 44.1628 98.7275 43.8768 98.7275 43.5192C98.7275 43.1617 98.4884 42.8756 98.1961 42.8756H42.7048C42.4125 42.8756 42.1734 43.1617 42.1734 43.5192C42.1734 43.8768 42.4125 44.1628 42.7048 44.1628Z" fill="black"/>
<path d="M42.7048 51.5219H98.1961C98.4884 51.5219 98.7275 51.2359 98.7275 50.8783C98.7275 50.5208 98.4884 50.2347 98.1961 50.2347H42.7048C42.4125 50.2347 42.1734 50.5208 42.1734 50.8783C42.1734 51.2359 42.4125 51.5219 42.7048 51.5219Z" fill="black"/>
<path d="M170.578 41.8941C170.937 41.8941 171.236 41.608 171.243 41.257L171.415 32.5977C171.422 32.2402 171.13 31.9411 170.764 31.9346H170.751C170.392 31.9346 170.094 32.2207 170.087 32.5717L169.914 41.231C169.908 41.5885 170.2 41.8876 170.565 41.8941H170.578Z" fill="black"/>
<path d="M165.809 41.1334C166.168 41.1334 166.467 40.8539 166.474 40.4963L166.646 32.5977C166.653 32.2401 166.361 31.9411 165.995 31.9346H165.982C165.623 31.9346 165.325 32.2141 165.318 32.5717L165.145 40.4703C165.139 40.8279 165.431 41.1269 165.796 41.1334H165.809Z" fill="black"/>
<path d="M232.322 107.527C232.608 107.527 232.873 107.345 232.96 107.059C233.066 106.715 232.86 106.351 232.508 106.253L208.084 99.2517C207.732 99.1476 207.36 99.3492 207.26 99.6937C207.154 100.038 207.36 100.402 207.712 100.5L232.136 107.501C232.196 107.521 232.262 107.527 232.322 107.527Z" fill="black"/>
<path d="M37.4399 83.0703C45.1548 83.0703 51.409 76.9493 51.409 69.3988C51.409 61.8482 45.1548 55.7273 37.4399 55.7273C29.7249 55.7273 23.4707 61.8482 23.4707 69.3988C23.4707 76.9493 29.7249 83.0703 37.4399 83.0703Z" fill="black"/>
<path d="M35.6332 83.0704C43.3482 83.0704 49.6024 76.9495 49.6024 69.399C49.6024 61.8484 43.3482 55.7275 35.6332 55.7275C27.9183 55.7275 21.6641 61.8484 21.6641 69.399C21.6641 76.9495 27.9183 83.0704 35.6332 83.0704Z" fill="#FFC886"/>
<path d="M35.6334 83.7205C27.5628 83.7205 21 77.2976 21 69.399C21 61.5003 27.5628 55.0774 35.6334 55.0774C43.704 55.0774 50.2668 61.5003 50.2668 69.399C50.2668 77.2976 43.704 83.7205 35.6334 83.7205ZM35.6334 56.3776C28.3001 56.3776 22.3285 62.2154 22.3285 69.399C22.3285 76.5825 28.2935 82.4204 35.6334 82.4204C42.9734 82.4204 48.9383 76.5825 48.9383 69.399C48.9383 62.2154 42.9734 56.3776 35.6334 56.3776Z" fill="black"/>
<path d="M34.1658 77.343L26.4473 69.2298L28.7655 67.1105L34.0131 72.6233L42.2099 62.8264L44.6676 64.8026L34.1658 77.343Z" fill="black"/>
</g>
<defs>
<clipPath id="clip0_864_27013">
<rect width="320" height="200" fill="white"/>
</clipPath>
</defs>
</svg>
