<svg width="262" height="140" viewBox="0 0 262 140" fill="none" xmlns="http://www.w3.org/2000/svg">
<rect x="0.5" y="0.5" width="261" height="139" rx="4.5" stroke="#9747FF" stroke-dasharray="10 5"/>
<path d="M32.4571 113.847H106.351V34.2919C106.351 28.145 103.468 26.0149 100.563 26.0149H27.9883C29.0098 25.934 30.0302 26.1842 30.8984 26.7283C31.7667 27.2725 32.4368 28.0817 32.8094 29.0362C33.0566 29.6695 33.1652 30.3486 33.1284 31.0273V63.3611" fill="#F3F3F3"/>
<path d="M94.1947 50.5344H45.8159V51.6689H94.1947V50.5344ZM94.1947 58.256H45.8159V59.3905H94.1947V58.256ZM94.1947 65.989H45.8159V67.1239H94.1947V65.989ZM94.1947 93.0557H45.8159V94.1903H94.1947V93.0557ZM94.1947 100.789H45.8159V101.924H94.1947V100.789ZM94.1947 73.8496H45.8159V74.9841H94.1947V73.8496ZM63.4006 81.4328H45.8159V82.5785H63.4006V81.4328Z" fill="white"/>
<path d="M119.64 61.486H74.1787V92.4307H119.64V61.486Z" fill="#EFF2F4"/>
<path d="M74.2139 61.5318V92.164H119.965V61.3353L96.6959 76.9405L74.2139 61.5318Z" fill="#F7931B"/>
<path d="M74.2139 61.5322L97.3209 44.9656L120 61.5089L74.2139 61.5322ZM79.064 88.6449L97.2049 70.6196L116.978 88.992L79.064 88.6449Z" fill="#F7931B"/>
<path d="M82.5029 85.1371L97.113 70.0755L112.116 85.276" stroke="#231815" stroke-width="2" stroke-miterlimit="10"/>
<path d="M51.223 45.325C54.1192 45.325 56.4675 42.9768 56.4675 40.0805C56.4675 37.1843 54.1192 34.8365 51.223 34.8365C48.3268 34.8365 45.979 37.1843 45.979 40.0805C45.979 42.9768 48.3268 45.325 51.223 45.325Z" fill="#F7931B"/>
<path d="M90.6412 67.9342C91.2215 67.9342 91.7781 67.7036 92.1884 67.2933C92.5987 66.8829 92.8293 66.3264 92.8293 65.7461C92.8293 65.1658 92.5987 64.6092 92.1884 64.1989C91.7781 63.7885 91.2215 63.558 90.6412 63.558C90.0609 63.558 89.5043 63.7885 89.094 64.1989C88.6837 64.6092 88.4531 65.1658 88.4531 65.7461C88.4531 66.3264 88.6837 66.8829 89.094 67.2933C89.5043 67.7036 90.0609 67.9342 90.6412 67.9342ZM98.2702 67.9342C98.8506 67.9342 99.4071 67.7036 99.8175 67.2933C100.228 66.8829 100.458 66.3264 100.458 65.7461C100.458 65.1658 100.228 64.6092 99.8175 64.1989C99.4071 63.7885 98.8506 63.558 98.2702 63.558C97.6899 63.558 97.1334 63.7885 96.723 64.1989C96.3127 64.6092 96.0822 65.1658 96.0822 65.7461C96.0822 66.3264 96.3127 66.8829 96.723 67.2933C97.1334 67.7036 97.6899 67.9342 98.2702 67.9342ZM105.726 67.9342C106.306 67.9342 106.863 67.7036 107.273 67.2933C107.684 66.8829 107.914 66.3264 107.914 65.7461C107.914 65.1658 107.684 64.6092 107.273 64.1989C106.863 63.7885 106.306 63.558 105.726 63.558C105.146 63.558 104.589 63.7885 104.179 64.1989C103.769 64.6092 103.538 65.1658 103.538 65.7461C103.538 66.3264 103.769 66.8829 104.179 67.2933C104.589 67.7036 105.146 67.9342 105.726 67.9342Z" fill="white"/>
<path d="M27.583 47.6402C27.583 47.6402 27.6523 38.2282 27.6523 35.8319C27.6523 33.4352 28.8101 31.0043 32.1557 31.0043C35.5012 31.0043 37.2958 32.9608 37.2958 36.0168V42.9632" stroke="#1A1A1A" stroke-width="2" stroke-miterlimit="10"/>
<path d="M26 112C26 112 30.1784 91.4383 45.9998 92.3218C56.2867 92.8895 50.7828 101.55 45.5271 97.7008C38.4807 92.5583 44.8836 82.5575 56 83.0152" stroke="#1A1A1A" stroke-width="2" stroke-miterlimit="10"/>
<g clip-path="url(#clip0_803_11058)">
<path d="M217.64 98.6808C217.64 98.6808 244.366 82.6662 241.831 60.2076C239.895 43.0128 231.603 39.655 231.777 34.7685C231.951 29.8821 226.416 30.898 226.881 38.126C227.113 39.2487 228.168 42.2679 228.168 42.2679" stroke="#1C1C1C" stroke-width="2" stroke-miterlimit="10"/>
<path d="M214.408 83.3728L216.682 79.957L230.006 91.0559C230.006 91.0559 226.513 95.7198 217.669 99.5419L214.408 83.3728Z" fill="#F7931B"/>
<path d="M217.601 80.9827L231.584 91.7234L232.6 92.4105L229.968 95.5067L220.233 87.7946M221.781 72.5738L216.566 76.8025" stroke="#1C1C1C" stroke-width="2" stroke-miterlimit="10"/>
<path d="M185.824 70.5901H151.483V100.587H185.824V70.5901Z" fill="#F3F3F3"/>
<path d="M219.024 70.5901H185.815V100.587H219.024V70.5901ZM185.814 40.6036H151.473V70.5999H185.814V40.6036Z" fill="#F3F3F3"/>
<path d="M206.028 65.5101H194.919V70.4837H206.028V65.5101Z" fill="white"/>
<path d="M150.544 70.5322H164.275V66.5068H174.029V70.2323H194.833" stroke="white" stroke-width="2.14" stroke-miterlimit="10"/>
<path d="M186.222 67.3488V81.0793H190.247V90.8428H186.522V111.647" stroke="white" stroke-width="2.14" stroke-miterlimit="10"/>
<path d="M142.745 107.515L167.7 107.902C174.706 108.009 176.08 104.467 174.28 101.651" stroke="#1C1C1C" stroke-width="2" stroke-miterlimit="10"/>
<path d="M163.095 101.622C163.095 101.622 175.974 102.057 178.054 101.622C181.286 101.032 180.638 96.2904 177.6 96.2904" stroke="#1C1C1C" stroke-width="2" stroke-miterlimit="10"/>
<path d="M164.797 96.1648C164.797 96.1648 176.196 96.4452 178.402 96.358C182.166 96.213 182.621 89.8073 176.37 90.1557" stroke="#1C1C1C" stroke-width="2" stroke-miterlimit="10"/>
<path d="M151.318 80.9342C150.515 84.253 159.93 84.4274 163.569 84.4563C167.207 84.4853 172.829 83.4885 176.719 84.3594C180.609 85.2302 180.231 90.2621 176.07 90.3008C174.29 90.3008 164.033 90.1652 164.033 90.1652M151.589 74.7511C149.938 75.4257 148.533 76.5911 147.566 78.0898C146.599 79.5885 146.115 81.3481 146.18 83.1307H142" stroke="#1C1C1C" stroke-width="2" stroke-miterlimit="10"/>
<path d="M156.882 46.5928H179.825M156.882 50.8989H179.825M195.046 84.9788H215.163M195.046 79.8214H215.163M156.882 55.2144H167.41" stroke="white" stroke-width="2.14" stroke-miterlimit="10"/>
<path d="M239.77 47.7925L218.443 28.3531L210.557 37.0714L207.19 34.0138L199.546 42.4129L203.068 45.6253L195.743 53.8986L217.892 72.7384L239.77 47.7925Z" fill="#F7931B"/>
<path d="M225.914 46.2541C225.914 46.2541 222.924 45.1029 222.662 47.7154L222.73 50.3765C222.73 50.3765 218.647 47.4734 216.663 50.1634C216.663 50.1634 215.512 52.5342 218.376 55.1178C218.376 55.1178 215.686 53.8309 214.573 57.9142C214.573 57.9142 214.012 59.7239 216.595 61.543C216.595 61.543 211.757 62.0267 213.944 66.1099L220.021 71.3159L231.39 67.2616L236.035 54.3823C236.035 54.3823 234.39 52.447 233.587 51.5957C232.784 50.744 229.958 47.1926 225.914 46.2541Z" fill="white"/>
<path d="M235.783 53.8598C235.783 53.8598 229.977 47.0863 225.197 45.9546C222.236 45.2769 221.675 49.7086 223.581 51.1409C226.261 53.163 231.922 57.798 231.922 57.798" stroke="#1C1C1C" stroke-width="2" stroke-miterlimit="10"/>
<path d="M228.584 62.5394C228.584 62.5394 218.791 55.3595 217.862 54.3725C216.934 53.3855 215.327 51.1988 217.117 49.6699C218.908 48.1409 222.41 49.9409 224.433 51.8761M226.059 67.8231C226.059 67.8231 217.35 61.9399 216.13 61.0495C214.65 59.8979 213.702 58.4561 215.269 56.0759C216.837 53.6956 219.459 55.7857 219.459 55.7857M223.582 73.7833L222.924 73.2222C222.924 73.2222 216.421 68.5387 214.757 67.2228C213.092 65.9066 212.599 61.4171 217.06 61.7268" stroke="#1C1C1C" stroke-width="2" stroke-miterlimit="10"/>
<path d="M177.251 59.3657C178.057 59.3657 178.829 59.0456 179.399 58.4758C179.969 57.906 180.289 57.1331 180.289 56.3273C180.289 55.5215 179.969 54.7487 179.399 54.1789C178.829 53.6091 178.057 53.2889 177.251 53.2889C176.445 53.2889 175.672 53.6091 175.102 54.1789C174.533 54.7487 174.212 55.5215 174.212 56.3273C174.212 57.1331 174.533 57.906 175.102 58.4758C175.672 59.0456 176.445 59.3657 177.251 59.3657Z" fill="#F7931B"/>
<path d="M212.569 95.5161C213.375 95.5161 214.148 95.196 214.718 94.6263C215.288 94.0565 215.608 93.2837 215.608 92.4779C215.608 91.6721 215.288 90.8994 214.718 90.3296C214.148 89.7598 213.375 89.4397 212.569 89.4397C211.764 89.4397 210.991 89.7598 210.421 90.3296C209.851 90.8994 209.531 91.6721 209.531 92.4779C209.531 93.2837 209.851 94.0565 210.421 94.6263C210.991 95.196 211.764 95.5161 212.569 95.5161Z" fill="white"/>
</g>
<defs>
<clipPath id="clip0_803_11058">
<rect width="100" height="100" fill="white" transform="translate(142 20)"/>
</clipPath>
</defs>
</svg>
