<svg width="320" height="200" viewBox="0 0 320 200" fill="none" xmlns="http://www.w3.org/2000/svg">
<g clip-path="url(#clip0_864_28348)">
<path d="M215.915 147.204L191.925 261.14H160.688L180.995 147.204H215.907H215.915Z" fill="#DEDEDE"/>
<path d="M191.927 261.981H160.689C160.435 261.981 160.199 261.873 160.038 261.681C159.878 261.489 159.81 261.248 159.853 260.998L180.16 147.062C180.227 146.663 180.582 146.371 180.996 146.371H215.908C216.161 146.371 216.406 146.488 216.567 146.679C216.727 146.871 216.787 147.129 216.736 147.37L192.746 261.306C192.661 261.689 192.315 261.972 191.918 261.972L191.927 261.981ZM161.694 260.315H191.242L214.878 148.045H181.705L161.694 260.315Z" fill="#040000"/>
<path d="M205.755 198.118L201.691 194.587L210.392 144.339L186.985 137.952L177.794 196.494C176.637 202.789 178.766 209.268 183.403 213.748L198.684 228.238" fill="#040000"/>
<path d="M187.087 132.997L177.897 191.539C176.74 197.835 178.868 204.313 183.506 208.794L228.58 251.505L247.924 230.145L209.337 192.863L218.038 142.615" fill="#DEDEDE"/>
<path d="M228.581 252.346C228.361 252.346 228.15 252.263 227.998 252.113L182.924 209.401C178.041 204.688 175.853 197.96 177.07 191.398L186.252 132.881C186.32 132.423 186.742 132.115 187.215 132.181C187.671 132.248 187.992 132.681 187.916 133.13L178.726 191.672C177.611 197.718 179.621 203.889 184.089 208.211L228.522 250.322L246.742 230.203L208.73 193.479C208.536 193.288 208.443 193.013 208.485 192.747L217.186 142.499C217.262 142.049 217.701 141.741 218.157 141.816C218.613 141.891 218.926 142.324 218.85 142.774L210.217 192.588L248.491 229.562C248.812 229.87 248.829 230.378 248.533 230.711L229.189 252.071C229.037 252.238 228.817 252.338 228.589 252.346C228.581 252.346 228.564 252.346 228.555 252.346H228.581Z" fill="#040000"/>
<path d="M134.573 145.014L148.207 135.762C148.207 135.762 150.243 132.331 151.4 131.757C152.752 131.09 157.296 131.182 157.296 131.182L186.312 109.347C188.052 108.207 190.764 130.607 189.024 131.757C189.024 131.757 160.489 158.454 147.438 159.978C144.533 160.361 143.088 158.646 143.57 156.639C143.57 156.639 140.478 157.497 138.544 155.498C137.192 154.066 137.868 151.592 137.868 151.592C137.192 151.684 134.776 151.592 133.999 149.685C133.036 147.112 134.582 145.014 134.582 145.014H134.573Z" fill="white"/>
<path d="M146.652 160.869C145.334 160.869 144.227 160.445 143.492 159.645C142.986 159.096 142.698 158.396 142.648 157.638C141.406 157.738 139.412 157.605 137.934 156.081C136.887 154.973 136.794 153.433 136.887 152.425C135.645 152.3 133.93 151.742 133.221 150.002C132.106 147.021 133.829 144.631 133.905 144.531C133.964 144.456 134.032 144.389 134.108 144.331L147.589 135.187C148.113 134.321 149.811 131.623 151.036 131.024C152.362 130.366 155.817 130.341 157.033 130.358L185.813 108.698C186.201 108.44 186.945 108.282 187.519 109.139C189.09 111.454 191.768 130.283 189.605 132.373C188.431 133.472 160.716 159.279 147.539 160.819C147.234 160.861 146.939 160.878 146.652 160.878V160.869ZM143.568 155.815C143.788 155.815 143.999 155.898 144.16 156.048C144.371 156.256 144.464 156.556 144.396 156.839C144.236 157.505 144.362 158.105 144.751 158.529C145.258 159.087 146.179 159.312 147.336 159.162C159.973 157.688 188.169 131.423 188.457 131.157L188.482 131.132C189.479 129.3 187.764 113.428 186.328 110.397L157.827 131.848C157.675 131.965 157.489 132.023 157.295 132.023C155.623 131.981 152.641 132.09 151.796 132.506C151.222 132.789 149.87 134.638 148.958 136.187C148.899 136.295 148.814 136.387 148.704 136.453L135.206 145.613C134.944 146.03 134.116 147.57 134.8 149.402C135.366 150.793 137.309 150.835 137.757 150.776C138.036 150.743 138.323 150.843 138.509 151.051C138.694 151.259 138.762 151.551 138.694 151.817C138.694 151.834 138.162 153.874 139.176 154.94C140.722 156.539 143.332 155.856 143.366 155.848C143.442 155.831 143.518 155.815 143.585 155.815H143.568Z" fill="#040000"/>
<path d="M142.7 127.851L148.216 128.9C150.058 129.283 151.891 130.141 152.955 131.573L157.981 138.152C159.24 139.867 158.851 142.249 157.01 143.398C151.984 145.78 147.532 137.486 147.532 137.486L134.473 145.014L98.3018 110.405L104.688 80.5593L142.7 127.851ZM247.344 133.48L252.758 140.633C252.758 140.633 258.173 147.787 260.302 151.309C262.143 154.265 259.144 155.215 258.173 154.549C258.173 154.549 260.302 157.313 258.562 158.937C257.303 160.078 255.563 159.795 254.6 158.654C254.6 158.654 255.664 160.469 253.73 161.702C252.378 162.56 250.824 161.893 249.76 160.744C247.732 158.454 242.993 152.642 242.993 152.642C242.993 152.642 243.188 156.739 243.281 158.937C243.373 162.085 239.699 162.659 238.829 159.795C237.959 157.222 236.894 147.97 236.894 147.97L233.701 144.156L247.335 133.48H247.344Z" fill="white"/>
<path d="M252.411 162.918C251.287 162.918 250.122 162.368 249.142 161.311C247.866 159.87 245.535 157.055 243.955 155.14C244.014 156.397 244.082 157.863 244.124 158.896C244.192 161.036 242.823 162.235 241.522 162.443C240.255 162.651 238.617 161.977 238.025 160.028C237.214 157.63 236.268 149.827 236.091 148.303L233.058 144.681C232.915 144.506 232.847 144.289 232.873 144.064C232.898 143.84 233.008 143.64 233.185 143.498L246.819 132.822C246.996 132.681 247.224 132.614 247.452 132.648C247.68 132.673 247.883 132.797 248.018 132.972L253.433 140.126C253.653 140.417 258.898 147.354 261.027 150.876C262.404 153.091 261.432 154.365 260.951 154.815C260.596 155.14 260.157 155.365 259.692 155.49C260.233 156.772 260.402 158.363 259.143 159.537C258.4 160.211 257.471 160.544 256.508 160.486C256.229 160.469 255.942 160.411 255.671 160.328C255.528 161.061 255.097 161.81 254.185 162.393C253.636 162.743 253.028 162.909 252.411 162.909V162.918ZM242.992 151.809C243.246 151.809 243.491 151.917 243.651 152.117C243.702 152.175 248.398 157.946 250.4 160.195C251.135 160.986 252.284 161.619 253.272 160.994C254.497 160.211 253.931 159.179 253.864 159.062C253.644 158.687 253.754 158.213 254.109 157.963C254.472 157.713 254.962 157.78 255.241 158.113C255.595 158.529 256.094 158.787 256.618 158.821C257.107 158.846 257.589 158.679 257.986 158.321C259.135 157.247 257.513 155.073 257.496 155.048C257.243 154.724 257.276 154.266 257.564 153.966C257.851 153.666 258.315 153.624 258.653 153.866C258.805 153.966 259.422 153.949 259.794 153.608C260.309 153.125 259.878 152.234 259.583 151.742C257.496 148.286 252.132 141.2 252.081 141.125L247.191 134.663L234.908 144.281L237.552 147.437C237.654 147.562 237.721 147.712 237.738 147.87C237.747 147.962 238.802 157.064 239.639 159.52C239.968 160.603 240.712 160.878 241.261 160.786C241.827 160.694 242.485 160.161 242.443 158.946C242.35 156.764 242.156 152.667 242.156 152.667C242.139 152.309 242.359 151.975 242.705 151.851C242.806 151.817 242.899 151.801 243.001 151.801L242.992 151.809ZM134.48 145.847C134.269 145.847 134.058 145.763 133.889 145.613L97.7178 111.005C97.5066 110.805 97.4222 110.513 97.4813 110.238L103.867 80.3929C103.935 80.0765 104.18 79.8266 104.501 79.7517C104.822 79.6768 105.151 79.7933 105.354 80.0432L143.172 127.093L148.376 128.084C150.698 128.567 152.557 129.625 153.638 131.082L158.664 137.652C159.424 138.693 159.72 139.984 159.484 141.208C159.247 142.416 158.537 143.44 157.473 144.098C157.448 144.114 157.414 144.131 157.389 144.148C152.616 146.404 148.553 140.75 147.235 138.627L134.911 145.738C134.776 145.813 134.632 145.855 134.488 145.855L134.48 145.847ZM99.2299 110.122L134.607 143.973L147.108 136.761C147.311 136.645 147.548 136.62 147.767 136.678C147.987 136.736 148.173 136.886 148.283 137.086C148.325 137.161 152.388 144.597 156.603 142.657C157.245 142.241 157.676 141.616 157.819 140.883C157.971 140.109 157.786 139.284 157.296 138.627L152.278 132.065C151.146 130.541 149.136 129.933 148.038 129.708L142.539 128.659C142.336 128.617 142.158 128.517 142.04 128.359L105.151 82.4581L99.2383 110.114L99.2299 110.122Z" fill="#040000"/>
<path d="M254.7 159.478C254.446 159.478 254.201 159.37 254.032 159.162L247.266 150.676C246.979 150.318 247.038 149.794 247.41 149.511C247.781 149.227 248.305 149.286 248.592 149.652L255.358 158.138C255.646 158.496 255.586 159.02 255.215 159.304C255.063 159.42 254.877 159.478 254.691 159.478H254.7ZM258.281 155.381C258.028 155.381 257.774 155.265 257.605 155.048L250.932 146.279C250.653 145.913 250.729 145.388 251.101 145.114C251.473 144.839 252.005 144.914 252.284 145.28L258.957 154.049C259.236 154.415 259.16 154.94 258.788 155.215C258.636 155.331 258.458 155.381 258.281 155.381ZM243.093 153.383C242.772 153.383 242.46 153.2 242.316 152.883C242.13 152.467 242.316 151.975 242.747 151.784C242.907 151.717 246.193 150.152 244.799 145.538C244.664 145.097 244.918 144.631 245.365 144.506C245.822 144.373 246.286 144.631 246.413 145.064C248.246 151.134 243.482 153.291 243.431 153.308C243.321 153.358 243.203 153.383 243.093 153.383Z" fill="#040000"/>
<path d="M241.844 181.388L277.939 162.393L264.136 136.903L228.042 155.898L241.844 181.38V181.388Z" fill="white"/>
<path d="M241.497 182.512L226.9 155.556L264.482 135.779L279.079 162.735L241.497 182.512ZM229.19 156.239L242.19 180.255L276.789 162.052L263.789 138.035L229.19 156.248V156.239Z" fill="#040000"/>
<path d="M242.289 176.525L272.581 160.586L262.605 142.166L232.313 158.104L242.289 176.525Z" fill="#FFC886"/>
<path d="M235.751 177.374L242.154 174.01L234.408 159.712L228.005 163.076L235.751 177.374Z" fill="#C7C7C7"/>
<path d="M235.404 178.498L226.864 162.726L234.754 158.571L243.294 174.343L235.404 178.498ZM229.153 163.417L236.097 176.25L241.005 173.669L234.061 160.836L229.153 163.417Z" fill="#040000"/>
<path d="M247.349 133.48L253.735 141.866L245.803 146.254C246.479 150.643 243.092 152.55 243.092 152.55C243.092 152.55 243.286 156.647 243.379 158.845C243.472 161.993 239.797 162.568 238.927 159.703C238.057 157.13 236.993 147.878 236.993 147.878L233.8 144.064L247.341 133.48H247.349Z" fill="white"/>
<path d="M241.175 162.385C239.992 162.385 238.649 161.66 238.117 159.936C237.306 157.538 236.36 149.735 236.183 148.211L233.15 144.589C233.006 144.414 232.939 144.198 232.964 143.973C232.99 143.748 233.099 143.548 233.277 143.407L246.818 132.822C246.995 132.681 247.223 132.622 247.451 132.647C247.679 132.672 247.882 132.797 248.017 132.972L254.403 141.358C254.547 141.549 254.606 141.791 254.555 142.032C254.504 142.266 254.352 142.466 254.141 142.59L246.699 146.704C247.012 150.268 244.909 152.259 243.954 152.966C244.005 154.099 244.148 157.055 244.224 158.796C244.292 160.936 242.923 162.135 241.623 162.343C241.479 162.368 241.327 162.376 241.175 162.376V162.385ZM235 144.189L237.644 147.345C237.745 147.47 237.813 147.62 237.83 147.778C237.838 147.87 238.894 156.972 239.73 159.428C240.06 160.511 240.82 160.786 241.352 160.703C241.918 160.611 242.577 160.078 242.535 158.862C242.442 156.68 242.248 152.583 242.248 152.583C242.231 152.267 242.4 151.975 242.67 151.817C242.78 151.751 245.542 150.11 244.959 146.371C244.909 146.03 245.077 145.688 245.382 145.522L252.469 141.599L247.189 134.654L235 144.181V144.189Z" fill="#040000"/>
<path d="M243.092 153.374C242.771 153.374 242.458 153.191 242.315 152.875C242.129 152.458 242.315 151.967 242.737 151.776C242.881 151.709 246.192 150.152 244.79 145.53C244.654 145.089 244.908 144.622 245.356 144.497C245.812 144.364 246.276 144.622 246.403 145.055C248.236 151.126 243.472 153.283 243.421 153.3C243.311 153.35 243.193 153.374 243.083 153.374H243.092Z" fill="#040000"/>
<path d="M192.02 94.2917L232.541 146.829L250.238 133.289L209.041 78.6528L192.02 94.2917Z" fill="#F7931B"/>
<path d="M232.55 147.654C232.55 147.654 232.474 147.654 232.44 147.654C232.221 147.629 232.018 147.512 231.874 147.329L191.345 94.7912C191.083 94.4498 191.125 93.9668 191.438 93.6754L208.459 78.0364C208.636 77.8782 208.873 77.7949 209.109 77.8199C209.346 77.8449 209.565 77.9615 209.709 78.153L250.914 132.789C251.185 133.156 251.117 133.664 250.754 133.947L233.057 147.487C232.905 147.604 232.727 147.662 232.542 147.662L232.55 147.654ZM193.161 94.3832L232.711 145.647L249.081 133.122L208.94 79.8935L193.169 94.3832H193.161Z" fill="#040000"/>
<path d="M195.122 94.8575L219.492 124.895L218.14 89.8028L209.051 78.644L195.122 94.8492V94.8575Z" fill="#040000"/>
<path d="M103.723 132.997L113.876 191.539C115.033 197.835 112.913 204.313 108.267 208.794L59.3244 255.319L39.5918 235.108L77.0212 196.686L73.6339 150.635" fill="#DEDEDE"/>
<path d="M59.3315 256.16H59.3147C59.0866 256.16 58.8754 256.06 58.7233 255.902L38.9908 235.691C38.6782 235.366 38.6782 234.858 38.9908 234.533L76.1583 196.377L72.7963 150.693C72.7625 150.235 73.1089 149.835 73.5735 149.802C74.0296 149.777 74.4435 150.11 74.4773 150.576L77.8646 196.627C77.8815 196.86 77.7971 197.093 77.6281 197.26L40.7647 235.108L59.3484 254.145L107.675 208.194C112.143 203.88 114.154 197.71 113.039 191.689L102.885 133.139C102.809 132.689 103.113 132.256 103.578 132.181C104.051 132.106 104.473 132.406 104.549 132.864L114.703 191.406C115.911 197.968 113.723 204.696 108.849 209.401L59.906 255.935C59.7455 256.085 59.5343 256.168 59.3231 256.168L59.3315 256.16Z" fill="#040000"/>
<path d="M70.55 152.067L76.8347 197.735L67.5513 261.14H95.8915L106.721 203.264C107.304 199.542 107.498 195.828 107.202 192.105L105.462 152.059H70.55V152.067Z" fill="#DEDEDE"/>
<path d="M95.8824 261.981H67.5421C67.2971 261.981 67.0606 261.872 66.9001 261.689C66.7396 261.506 66.6636 261.265 66.7058 261.023L75.9724 197.735L69.7046 152.175C69.6708 151.934 69.7468 151.701 69.9073 151.517C70.0678 151.334 70.2959 151.234 70.5409 151.234H105.453C105.909 151.234 106.281 151.584 106.298 152.034L108.038 192.08C108.317 195.678 108.156 199.5 107.548 203.397L96.7102 261.298C96.6342 261.689 96.2878 261.981 95.8824 261.981ZM68.522 260.315H95.1813L105.884 203.122C106.467 199.375 106.627 195.686 106.357 192.18L104.651 152.9H71.5123L77.6703 197.626C77.6787 197.701 77.6787 197.785 77.6703 197.86L68.522 260.315Z" fill="#040000"/>
<path d="M194.925 66.9275C202.781 66.9275 209.142 60.6486 209.142 52.9124C209.142 45.1762 202.773 38.8973 194.925 38.8973C187.078 38.8973 180.708 45.1762 180.708 52.9124C180.708 60.6486 187.078 66.9275 194.925 66.9275Z" fill="white"/>
<path d="M194.925 67.7601C186.622 67.7601 179.864 61.0981 179.864 52.9123C179.864 44.7264 186.622 38.0645 194.925 38.0645C203.229 38.0645 209.986 44.7264 209.986 52.9123C209.986 61.0981 203.229 67.7601 194.925 67.7601ZM194.925 39.7299C187.551 39.7299 181.553 45.6424 181.553 52.9123C181.553 60.1821 187.551 66.0946 194.925 66.0946C202.299 66.0946 208.297 60.1821 208.297 52.9123C208.297 45.6424 202.299 39.7299 194.925 39.7299Z" fill="#040000"/>
<path d="M200.443 39.8466C202.96 40.7043 211.179 45.8507 208.662 56.6264C207.597 61.1066 204.016 63.2967 204.016 63.2967C198.601 61.4813 198.601 53.7618 198.12 53.7618C195.121 54.2364 192.224 51.7632 190.382 47.9492C188.355 43.8521 189.411 39.7467 189.411 39.7467C190.956 39.3636 194.344 37.8397 200.434 39.8383L200.443 39.8466Z" fill="#040000"/>
<path d="M199.664 58.9163C201.911 58.9163 203.727 57.1259 203.727 54.9108C203.727 52.6957 201.911 50.9053 199.664 50.9053C197.417 50.9053 195.601 52.704 195.601 54.9108C195.601 57.1175 197.417 58.9079 199.664 58.9163Z" fill="white"/>
<path d="M184.283 43.9437C184.283 43.9437 189.504 42.986 191.438 41.2706L189.791 39.8383C189.791 39.9299 185.635 41.6536 184.275 43.9354L184.283 43.9437Z" fill="#040000"/>
<path d="M198.314 55.7434C197.908 55.7434 197.554 55.4603 197.486 55.0522C197.401 54.6025 197.714 54.1695 198.17 54.0862L201.456 53.5117C201.912 53.4284 202.352 53.7365 202.436 54.1862C202.52 54.6359 202.208 55.0689 201.752 55.1522L198.466 55.7267C198.415 55.7351 198.364 55.7434 198.322 55.7434H198.314Z" fill="#040000"/>
<path d="M106.918 118.033L124.327 103.735C124.327 103.735 109.722 85.3311 100.726 76.2708C97.1442 72.6484 91.0538 71.7907 88.1564 71.7907C88.1564 71.7907 89.0265 82.7579 86.7035 83.8072C78.6787 87.2381 106.918 118.033 106.918 118.033ZM180.813 147.395H222.399C222.399 147.395 217.271 111.446 216.013 98.8632C215.337 92.2845 214.078 86.7551 211.561 82.3665C207.211 74.5471 198.603 69.4007 190.088 72.357C182.444 75.0301 177.511 82.2749 177.899 90.186L180.805 147.395H180.813Z" fill="#F7931B"/>
<path d="M222.398 148.228H180.812C180.365 148.228 179.993 147.878 179.968 147.437L177.062 90.2274C176.656 81.875 181.775 74.3803 189.809 71.574C198.053 68.7093 207.303 72.9896 212.303 81.9666C214.643 86.0554 216.096 91.4016 216.848 98.7797C218.09 111.204 223.175 146.921 223.226 147.279C223.259 147.52 223.183 147.762 223.023 147.945C222.862 148.128 222.626 148.228 222.389 148.228H222.398ZM181.615 146.562H221.426C220.607 140.783 216.299 110.263 215.175 98.9463C214.441 91.8013 213.064 86.6633 210.834 82.7827C207.066 76.0208 199.067 70.125 190.383 73.1479C183.059 75.7044 178.388 82.5412 178.76 90.1525L181.623 146.571L181.615 146.562ZM106.916 118.857C106.688 118.857 106.46 118.766 106.291 118.582C103.892 115.959 82.8758 92.7756 84.523 85.2643C84.7511 84.2234 85.3931 83.4489 86.3645 83.0325C87.3021 82.6078 87.7498 77.3782 87.3106 71.8488C87.2937 71.6156 87.3697 71.3908 87.5302 71.2159C87.6907 71.0494 87.9188 70.9494 88.1469 70.9494C89.0169 70.9494 96.7799 71.0827 101.324 75.6794C110.245 84.6647 124.833 103.027 124.985 103.21C125.264 103.568 125.213 104.076 124.858 104.359L107.449 118.657C107.288 118.791 107.102 118.849 106.908 118.849L106.916 118.857ZM89.0592 72.6399C89.3041 76.4622 89.4224 83.4822 87.0487 84.5481C86.5503 84.7646 86.28 85.0894 86.1702 85.614C84.9623 91.1101 100.302 109.48 107.001 116.867L123.152 103.593C120.5 100.279 108.04 84.8146 100.125 76.8369C97.1431 73.8224 92.1339 72.7981 89.0676 72.6316L89.0592 72.6399Z" fill="#040000"/>
<path d="M212.918 60.2489L241.351 70.5499C246.672 72.4569 248.7 78.7525 245.507 83.4241C242.221 88.1958 235.058 88.4789 231.484 83.8988L212.918 60.2572V60.2489ZM70.9375 153.591L73.8433 154.257L106.821 156.264L107.303 153.783L70.9375 153.591Z" fill="#040000"/>
<path d="M68.8105 262.48L93.282 261.814V261.148H69.0048L68.8105 262.48ZM234.679 144.822L249.09 135.953L248.22 135.004L234.679 144.822Z" fill="#040000"/>
<path d="M88.2449 71.7823C77.3143 71.7823 68.4194 80.551 68.4194 91.3267V153.683H107.978V91.2268C108.07 80.551 99.1756 71.7739 88.2449 71.7739V71.7823Z" fill="#F7931B"/>
<path d="M107.977 154.524H68.4189C67.9543 154.524 67.5742 154.149 67.5742 153.691V91.3351C67.5742 80.1014 76.8492 70.9579 88.2444 70.9579C93.7942 70.9579 98.9977 73.098 102.909 76.9869C106.769 80.8259 108.872 85.889 108.822 91.2435V153.691C108.822 154.149 108.442 154.524 107.977 154.524ZM69.2637 152.858H107.132V91.2352C107.175 86.322 105.249 81.6753 101.709 78.1528C98.1192 74.5803 93.3381 72.615 88.2444 72.615C77.7784 72.615 69.2637 81.0091 69.2637 91.3268V152.85V152.858Z" fill="#040000"/>
<path d="M76.5463 145.772L78.3878 120.315L89.707 94.2831L68.7158 89.703L60.3954 110.397C58.9424 113.828 58.1738 117.55 57.8781 121.264L56.2309 149.486C56.2309 149.486 55.7494 160.07 56.3238 164.833C56.9067 169.413 60.0997 167.789 60.5812 166.549C60.5812 166.549 60.5812 170.937 63.3857 171.22C65.413 171.412 66.6716 169.788 66.8659 168.072C66.8659 168.072 67.0602 170.746 69.7717 170.646C71.6132 170.554 72.8634 168.547 72.9647 167.115C73.252 163.584 73.8348 154.432 73.8348 154.432C73.8348 154.432 75.482 157.58 76.9265 159.77C78.9622 162.818 82.924 161.011 82.0539 157.58C81.0825 153.858 76.5379 145.755 76.5379 145.755L76.5463 145.772Z" fill="white"/>
<path d="M63.7259 172.078C63.5907 172.078 63.4556 172.078 63.312 172.061C61.1241 171.836 60.2794 169.863 59.95 168.339C59.4263 168.622 58.8181 168.772 58.2099 168.697C57.3567 168.597 55.8784 167.973 55.4983 164.95C54.9155 160.17 55.3801 149.894 55.397 149.461L57.0442 121.231C57.3651 117.117 58.2268 113.378 59.6205 110.089L67.9326 89.4115C68.0846 89.0285 68.4985 88.8203 68.904 88.9036L89.8952 93.4837C90.1402 93.5336 90.3513 93.6918 90.4612 93.9167C90.571 94.1415 90.5879 94.3997 90.4865 94.6245L79.2264 120.523L77.4187 145.597C78.1621 146.946 81.9886 153.924 82.8925 157.397C83.4669 159.67 82.3181 161.302 80.9243 161.902C79.539 162.501 77.5539 162.218 76.2446 160.253C75.6533 159.362 75.0366 158.329 74.5129 157.405C74.3186 160.403 74.0145 164.966 73.8287 167.206C73.7189 168.872 72.2322 171.378 69.8416 171.495C68.4732 171.545 67.544 171.029 66.9611 170.346C66.2769 171.37 65.1872 172.086 63.7512 172.086L63.7259 172.078ZM60.5835 165.724C60.6342 165.724 60.6849 165.724 60.7356 165.741C61.1326 165.816 61.4282 166.157 61.4282 166.557C61.4282 166.59 61.4958 170.196 63.4724 170.404C65.0183 170.546 65.8883 169.255 66.0235 167.998C66.0742 167.573 66.4374 167.256 66.8598 167.256H66.8767C67.3159 167.265 67.6707 167.598 67.7045 168.031C67.7298 168.339 67.9241 169.888 69.7318 169.83C71.0665 169.763 72.0379 168.156 72.1139 167.081C72.4011 163.592 72.9755 154.499 72.984 154.407C73.0093 154.032 73.2796 153.724 73.6513 153.641C74.023 153.566 74.4031 153.741 74.572 154.074C74.5889 154.107 76.2108 157.205 77.6215 159.337C78.4408 160.569 79.5305 160.669 80.2063 160.37C80.899 160.07 81.5747 159.22 81.22 157.796C80.2908 154.224 75.8307 146.255 75.7884 146.171C75.7124 146.03 75.6702 145.872 75.6871 145.713L77.5201 120.256C77.5201 120.165 77.5454 120.073 77.5877 119.99L88.5014 94.8827L69.2081 90.6773L61.1579 110.705C59.8317 113.844 59.0039 117.417 58.6998 121.331L57.0526 149.536C57.0526 149.627 56.5796 160.095 57.1455 164.741C57.3229 166.124 57.7706 166.965 58.3873 167.04C58.9701 167.106 59.6543 166.565 59.7726 166.257C59.8993 165.932 60.2203 165.724 60.5582 165.724H60.5835Z" fill="#040000"/>
<path d="M66.8761 168.822C66.42 168.822 66.0399 168.464 66.0314 168.006L65.7442 155.606C65.7358 155.148 66.099 154.765 66.572 154.757C67.0197 154.732 67.4252 155.107 67.4337 155.573L67.7209 167.972C67.7293 168.43 67.3661 168.814 66.893 168.822H66.8761ZM60.5914 167.198C60.1269 167.198 59.7467 166.832 59.7467 166.374L59.6538 155.406C59.6538 154.948 60.0255 154.574 60.4901 154.565C60.9547 154.565 61.3348 154.932 61.3348 155.39L61.4277 166.357C61.4277 166.815 61.056 167.19 60.5914 167.198Z" fill="#040000"/>
<path d="M93.7626 94.1913L83.0262 118.316L58.9434 108.206L70.5498 82.5579" fill="#F7931B"/>
<path d="M83.027 119.149C82.9172 119.149 82.8074 119.124 82.6975 119.082L58.6147 108.973C58.4035 108.889 58.243 108.723 58.1585 108.515C58.074 108.306 58.0825 108.073 58.1754 107.873L69.7818 82.2248C69.9677 81.8085 70.4745 81.6169 70.8968 81.8001C71.3192 81.9833 71.5135 82.483 71.3277 82.8994L60.0676 107.773L82.5877 117.225L92.9862 93.8583C93.172 93.4336 93.6704 93.242 94.1012 93.4336C94.532 93.6168 94.7263 94.1081 94.532 94.5328L83.7957 118.657C83.6521 118.965 83.348 119.157 83.0185 119.157L83.027 119.149Z" fill="#040000"/>
<path d="M60.8789 109.447L78.9643 118.699L79.8344 117.267L60.8789 109.447Z" fill="#040000"/>
<path d="M180.034 89.0452L180.811 110.971L158.08 130.041L170.75 148.445L199.479 125.369C202.385 122.688 204.117 118.991 204.311 115.077L203.922 87.7128" fill="#F7931B"/>
<path d="M170.751 149.278C170.751 149.278 170.666 149.278 170.633 149.269C170.396 149.236 170.185 149.103 170.058 148.911L157.387 130.507C157.142 130.158 157.21 129.683 157.539 129.408L179.958 110.597L181.265 109.377C181.248 108.919 181.611 108.536 182.076 108.519C182.566 108.502 182.938 108.861 182.946 109.319C182.954 109.577 181.555 111.438 181.361 111.604L159.212 130.191L170.937 147.221L198.948 124.72C201.659 122.205 203.289 118.749 203.475 115.027L203.087 87.7128C203.087 87.2548 203.45 86.8718 203.923 86.8718C204.421 86.8468 204.776 87.2298 204.776 87.6962L205.165 115.06C204.953 119.274 203.146 123.129 200.063 125.977L171.291 149.086C171.139 149.211 170.954 149.269 170.759 149.269L170.751 149.278Z" fill="#040000"/>
<path d="M302.597 105.275H268.023V117.525H302.597V105.275Z" fill="#040000"/>
<path d="M300.909 106.941H269.713V115.86H300.909V106.941Z" fill="white"/>
<path d="M5 62.4722H29.8093V74.7135H5" fill="#040000"/>
<path d="M28.1209 64.1377H6.69043V73.0564H28.1209V64.1377Z" fill="white"/>
<path d="M45.6652 42.9196H32.4707V55.1692H45.6652V42.9196Z" fill="#040000"/>
<path d="M43.9763 44.585H34.1606V53.5036H43.9763V44.585Z" fill="white"/>
<path d="M95.6987 66.1613C104.188 66.1613 111.073 59.3744 111.073 50.997C111.073 42.6196 104.188 35.8328 95.6987 35.8328C87.2093 35.8328 80.3164 42.6196 80.3164 50.997C80.3164 59.3744 87.2009 66.1613 95.6987 66.1613Z" fill="white"/>
<path d="M95.6982 66.994C86.7527 66.994 79.4712 59.8157 79.4712 50.997C79.4712 42.1782 86.7527 35 95.6982 35C104.644 35 111.917 42.1782 111.917 50.997C111.917 59.8157 104.635 66.994 95.6982 66.994ZM95.6982 36.6738C87.6818 36.6738 81.1606 43.1026 81.1606 51.0053C81.1606 58.9081 87.6818 65.3368 95.6982 65.3368C103.715 65.3368 110.227 58.9081 110.227 51.0053C110.227 43.1026 103.706 36.6738 95.6982 36.6738Z" fill="#040000"/>
<path d="M95.7894 36.0326C105.461 36.0326 108.849 43.2775 108.849 43.2775C108.849 43.2775 105.267 43.9437 99.9538 44.2268C96.178 44.5099 100.342 48.9984 97.538 51.4717C97.2508 51.7548 94.7335 51.4717 93.1877 53.3786C92.7991 53.8533 93.8634 55.3856 93.4749 55.9518C91.5405 58.525 88.3474 60.6235 84.4786 61.3896C83.22 61.5812 82.257 58.3418 82.0627 58.1503C79.8411 54.6194 80.2212 49.573 80.7112 48.3322C84.2928 35.2665 95.6036 36.0326 95.6036 36.0326H95.7978H95.7894Z" fill="#040000"/>
<path d="M97.632 51.4802C97.3448 49.6648 95.7905 48.3324 93.8561 48.3324C91.719 48.3324 89.9958 50.0395 89.9873 52.1464C89.9873 54.0533 91.5331 55.6772 93.3746 55.8687" fill="white"/>
<path d="M93.2895 56.6932C90.9665 56.4517 89.1504 54.4532 89.1504 52.1465C89.1504 49.5899 91.2706 47.5081 93.8639 47.4998C96.1784 47.4998 98.1128 49.1153 98.4761 51.347L96.812 51.6052C96.5839 50.1645 95.376 49.1652 93.8724 49.1652C92.2083 49.1652 90.8483 50.506 90.8483 52.1465C90.8483 53.5871 92.0309 54.8862 93.4753 55.0361L93.2979 56.6932H93.2895Z" fill="#040000"/>
<path d="M76.8355 197.743L71.7081 201.649L67.4507 247.133L69.9679 244.943L76.8355 197.743Z" fill="#040000"/>
</g>
<defs>
<clipPath id="clip0_864_28348">
<rect width="320" height="200" fill="white"/>
</clipPath>
</defs>
</svg>
