<svg width="100" height="100" viewBox="0 0 100 100" fill="none" xmlns="http://www.w3.org/2000/svg">
<g clip-path="url(#clip0_805_9766)">
<path d="M84.1962 15.9636H11.5996V78.7403H84.1962V15.9636Z" fill="#DEDEDE"/>
<path d="M76.473 22.7507H19.0024V71.3676H76.473V22.7507Z" fill="#F3F3F3"/>
<path d="M65.6455 49.1157L73.255 64.5812" stroke="#1A1A1A" stroke-width="2" stroke-miterlimit="10"/>
<path d="M66.7458 33.1873H29.1826V33.9793H66.7458V33.1873ZM66.7458 38.5657H29.1826V39.3573H66.7458V38.5657ZM66.7458 43.9333H29.1826V44.725H66.7458V43.9333ZM66.7458 49.301H29.1826V50.0926H66.7458V49.301ZM42.8384 54.6786H29.1826V55.4807H42.8384V54.6786Z" fill="white"/>
<path d="M25.1519 0.282349C25.1519 0.282349 42.3552 25.3521 43.6609 27.8196C47.188 34.4933 46.6532 38.2054 42.0772 38.1028C39.4759 38.0513 36.2059 35.6037 31.2496 28.9611" stroke="#1A1A1A" stroke-width="2" stroke-miterlimit="10"/>
<path d="M28.3192 18.4008C28.3192 18.4008 35.9487 25.9895 29.3473 32.0358C28.4996 32.8472 27.4101 33.3596 26.2445 33.4951C25.0789 33.6306 23.9009 33.3819 22.8896 32.7867" stroke="#1A1A1A" stroke-width="2" stroke-miterlimit="10"/>
<path d="M17.1826 33.1465C18.7148 34.9151 22.746 34.5656 24.7099 30.3806C27.044 25.4239 22.1393 19.7375 22.1393 19.7375" stroke="#1A1A1A" stroke-width="2" stroke-miterlimit="10"/>
<path d="M15.6087 24.2105C15.6087 24.2105 20.1332 27.121 17.583 31.9024C15.0332 36.6837 11.619 35.7379 8.9969 34.874C6.4932 33.7278 4.32616 31.9573 2.70381 29.7324C0.45194 25.8869 3.10482 22.257 5.54201 22.4627" stroke="#1A1A1A" stroke-width="2" stroke-miterlimit="10"/>
<path d="M0 13.897C0 13.897 8.22623 27.3267 10.3655 28.2929C10.3655 28.2929 12.7096 29.4448 9.059 30.3499" stroke="#1A1A1A" stroke-width="2" stroke-miterlimit="10"/>
<path d="M100 73.1158C98.3858 71.3576 96.062 69.1776 90.6121 63.923C86.9204 60.3651 81.3266 57.4757 75.4553 58.4219C64.432 60.2317 55.7017 65.9077 53.6967 67.1314C51.1772 68.6532 51.0231 74.4526 57.2854 73.3011C60.5887 72.7643 63.742 71.538 66.5401 69.7021" stroke="#1A1A1A" stroke-width="2" stroke-miterlimit="10"/>
<path d="M57.8918 73.2288C57.8918 73.2288 53.7787 76.9309 57.6758 79.3166C60.6989 81.1775 69.6041 77.4654 73.2132 75.1312" stroke="#1A1A1A" stroke-width="2" stroke-miterlimit="10"/>
<path d="M61.0283 79.7276C61.0283 79.7276 57.5011 82.6273 59.9999 85.3213C62.8073 88.2933 75.4242 83.2648 77.4189 82.329C80.1956 81.054 79.1467 78.6272 78.0875 78.2159" stroke="#1A1A1A" stroke-width="2" stroke-miterlimit="10"/>
<path d="M64.2576 86.1545C64.2576 86.1545 61.9027 87.9027 63.99 90.576C66.3964 93.661 75.4043 90.1649 78.304 88.8589C80.782 87.7381 81.3887 85.1468 80.1341 84.0364M84.411 77.0951C84.411 77.0951 75.9176 76.2316 70.7249 73.9282C66.7659 72.18 64.1127 67.8304 67.3826 65.7019C71.3931 63.0387 80.8739 66.5862 80.8739 66.5862M76.7408 90.9977L85.0493 99.7176" stroke="#1A1A1A" stroke-width="2" stroke-miterlimit="10"/>
<path d="M73.9543 19.059C67.3117 7.542 54.4168 3.02787 45.8718 7.943C37.3269 12.8585 34.8385 26.4524 41.4811 38.0309C48.1237 49.6093 61.3989 54.5964 69.9234 49.6812C78.448 44.7661 80.5969 30.5859 73.9543 19.059ZM45.913 35.7275C40.7718 26.7711 41.9336 16.4165 48.5559 12.6013C55.1781 8.78654 64.7203 12.9512 69.8823 21.9071C75.0443 30.8635 73.8616 41.2082 67.2398 45.0229C60.6176 48.8381 51.0749 44.6735 45.913 35.7275Z" fill="#F7931B"/>
<path d="M28.0515 67.7789C30.2437 67.7789 32.0208 66.0018 32.0208 63.81C32.0208 61.6177 30.2437 59.8406 28.0515 59.8406C25.8596 59.8406 24.0825 61.6177 24.0825 63.81C24.0825 66.0018 25.8596 67.7789 28.0515 67.7789Z" fill="#F7931B"/>
</g>
<defs>
<clipPath id="clip0_805_9766">
<rect width="100" height="100" fill="white"/>
</clipPath>
</defs>
</svg>
